<?xml version="1.0" encoding="UTF-8"?>
<!DOCTYPE svg PUBLIC "-//W3C//DTD SVG 1.1//EN" "http://www.w3.org/Graphics/SVG/1.1/DTD/svg11.dtd">
<!-- Creator: CorelDRAW 2018 (64 Bit Versão de avaliação) -->
<svg xmlns="http://www.w3.org/2000/svg" xml:space="preserve" width="6.0997mm" height="9.7164mm" version="1.1" style="shape-rendering:geometricPrecision; text-rendering:geometricPrecision; image-rendering:optimizeQuality; fill-rule:evenodd; clip-rule:evenodd"
viewBox="0 0 97.22 154.87"
 xmlns:xlink="http://www.w3.org/1999/xlink">
 <defs>
  <style type="text/css">
   <![CDATA[
    .fil0 {fill:#FEFEFE;fill-rule:nonzero}
   ]]>
  </style>
 </defs>
 <g id="Camada_x0020_1">
  <metadata id="CorelCorpID_0Corel-Layer"/>
  <g id="_1742664542512">
   <path class="fil0" d="M62.03 65.92c-0.61,-0.61 -1.85,-0.97 -2.48,-0.97 -0.87,0 -2.85,0.66 -2.84,1.75 0,0.27 0.13,0.53 0.37,0.78 0.6,0.6 1.84,0.97 2.47,0.97 0.87,0.01 2.85,-0.66 2.85,-1.75 0,-0.27 -0.12,-0.54 -0.37,-0.78zm-1.11 1.43c-0.51,0.25 -1.07,0.38 -1.37,0.38 -0.48,0 -1.52,-0.32 -1.96,-0.76 -0.11,-0.1 -0.16,-0.19 -0.16,-0.26 0,-0.15 0.24,-0.41 0.74,-0.66 0.51,-0.25 1.07,-0.38 1.37,-0.38 0.48,0 1.52,0.32 1.96,0.76 0.1,0.1 0.15,0.19 0.15,0.27 0,0.14 -0.23,0.41 -0.75,0.65z"/>
   <path class="fil0" d="M61.45 66.5c-0.42,-0.42 -1.42,-0.73 -1.9,-0.73 -0.29,0 -0.84,0.12 -1.33,0.36 -0.51,0.24 -0.7,0.48 -0.7,0.57 0,0.04 0.04,0.11 0.13,0.2 0.42,0.42 1.44,0.74 1.9,0.74 0.28,0 0.84,-0.13 1.33,-0.37 0.51,-0.24 0.69,-0.48 0.69,-0.57 0,-0.04 -0.03,-0.11 -0.13,-0.2zm-3.92 0.53c-0.08,-0.08 -0.18,-0.2 -0.18,-0.33 0,-0.22 0.3,-0.5 0.79,-0.74 0.52,-0.25 1.1,-0.38 1.41,-0.38 0.5,0 1.54,0.31 2.02,0.79 0.08,0.08 0.18,0.2 0.18,0.33 0,0.22 -0.31,0.5 -0.8,0.73 -0.52,0.25 -1.1,0.38 -1.41,0.38 -0.49,0 -1.57,-0.33 -2.02,-0.79zm4.43 -1.04c-0.59,-0.59 -1.8,-0.95 -2.41,-0.95 -0.6,0 -1.8,0.34 -2.41,0.94 -0.23,0.23 -0.34,0.48 -0.34,0.73 0,0.25 0.11,0.49 0.33,0.71 0.59,0.59 1.8,0.95 2.41,0.95 0.6,0 1.8,-0.33 2.4,-0.94 0.23,-0.23 0.35,-0.47 0.35,-0.72 0,-0.25 -0.11,-0.49 -0.34,-0.72zm-4.94 1.56c-0.26,-0.26 -0.4,-0.54 -0.4,-0.84 0,-0.3 0.14,-0.58 0.4,-0.85 0.64,-0.64 1.9,-1 2.53,-0.99 0.64,0 1.91,0.37 2.54,1 0.26,0.26 0.39,0.54 0.39,0.84 0,0.3 -0.14,0.58 -0.4,0.85 -0.64,0.64 -1.9,1 -2.53,1 -0.64,0 -1.92,-0.39 -2.53,-1z"/>
   <path class="fil0" d="M58.91 69.04c-0.6,-0.61 -1.85,-0.98 -2.48,-0.98 -0.87,0 -2.84,0.66 -2.84,1.75 0,0.27 0.12,0.54 0.37,0.78 0.6,0.6 1.84,0.97 2.48,0.97 0.86,0 2.84,-0.67 2.84,-1.75 0,-0.27 -0.13,-0.54 -0.37,-0.78zm-1.1 1.43c-0.51,0.24 -1.07,0.37 -1.37,0.37 -0.48,0 -1.52,-0.32 -1.96,-0.76 -0.1,-0.1 -0.16,-0.2 -0.16,-0.27 0,-0.15 0.24,-0.41 0.75,-0.65 0.51,-0.25 1.08,-0.38 1.37,-0.38 0.48,0 1.52,0.32 1.96,0.76 0.1,0.1 0.15,0.19 0.15,0.26 0,0.15 -0.23,0.4 -0.74,0.66z"/>
   <path class="fil0" d="M58.34 69.61c-0.42,-0.42 -1.42,-0.73 -1.9,-0.73 -0.29,0 -0.83,0.13 -1.33,0.37 -0.51,0.24 -0.69,0.48 -0.69,0.57 0,0.04 0.04,0.11 0.12,0.2 0.42,0.42 1.44,0.73 1.9,0.73 0.28,0 0.83,-0.12 1.32,-0.36 0.51,-0.25 0.69,-0.48 0.69,-0.58 0,-0.04 -0.02,-0.1 -0.13,-0.2zm-3.92 0.54c-0.08,-0.08 -0.18,-0.21 -0.18,-0.33 0,-0.22 0.3,-0.5 0.79,-0.73 0.52,-0.25 1.1,-0.38 1.41,-0.38 0.5,0.01 1.55,0.32 2.02,0.79 0.08,0.08 0.18,0.21 0.18,0.33 0,0.22 -0.3,0.5 -0.8,0.74 -0.52,0.24 -1.1,0.38 -1.4,0.38 -0.5,0 -1.57,-0.33 -2.03,-0.79zm4.43 -1.05c-0.58,-0.58 -1.8,-0.94 -2.41,-0.94 -0.6,0 -1.79,0.33 -2.4,0.94 -0.23,0.23 -0.35,0.47 -0.35,0.72 0,0.25 0.11,0.49 0.34,0.72 0.59,0.59 1.8,0.95 2.41,0.95 0.38,0 1.07,-0.14 1.7,-0.46 0.39,-0.19 1.05,-0.61 1.05,-1.2 0,-0.25 -0.12,-0.49 -0.35,-0.72zm-4.94 1.56c-0.26,-0.26 -0.39,-0.55 -0.39,-0.85 0,-0.3 0.14,-0.58 0.4,-0.85 0.64,-0.64 1.9,-0.99 2.53,-0.99 0.65,0 1.92,0.38 2.54,1 0.26,0.26 0.4,0.54 0.4,0.84 0,0.51 -0.41,1 -1.15,1.37 -0.55,0.28 -1.29,0.47 -1.78,0.47 -0.65,0 -1.93,-0.38 -2.54,-1z"/>
   <path class="fil0" d="M55.8 72.15c-0.61,-0.6 -1.86,-0.97 -2.48,-0.97 -0.87,0 -2.85,0.66 -2.85,1.75 0,0.27 0.13,0.54 0.37,0.78 0.6,0.6 1.85,0.98 2.48,0.98 0.86,0 2.85,-0.67 2.85,-1.75 0,-0.27 -0.13,-0.54 -0.37,-0.78zm-1.11 1.43c-0.51,0.24 -1.07,0.38 -1.37,0.38 -0.48,0 -1.52,-0.32 -1.96,-0.76 -0.1,-0.1 -0.16,-0.19 -0.16,-0.26 0,-0.15 0.23,-0.41 0.75,-0.66 0.51,-0.25 1.07,-0.38 1.37,-0.38 0.48,0 1.52,0.32 1.96,0.76 0.1,0.1 0.15,0.19 0.15,0.27 0,0.14 -0.23,0.41 -0.74,0.65z"/>
   <path class="fil0" d="M55.23 72.72c-0.42,-0.42 -1.43,-0.73 -1.9,-0.73 -0.29,0 -0.84,0.12 -1.34,0.36 -0.5,0.24 -0.69,0.48 -0.69,0.57 0,0.04 0.04,0.11 0.13,0.2 0.42,0.42 1.44,0.73 1.9,0.73 0.28,0 0.84,-0.13 1.33,-0.36 0.51,-0.24 0.69,-0.48 0.69,-0.58 0,-0.04 -0.03,-0.11 -0.12,-0.2zm-3.92 0.53c-0.09,-0.08 -0.18,-0.2 -0.18,-0.33 0,-0.22 0.3,-0.5 0.79,-0.74 0.52,-0.24 1.1,-0.38 1.41,-0.38 0.49,0 1.54,0.31 2.02,0.79 0.08,0.08 0.18,0.21 0.18,0.33 0,0.22 -0.3,0.5 -0.79,0.73 -0.52,0.25 -1.1,0.38 -1.41,0.38 -0.5,0 -1.57,-0.33 -2.02,-0.79zm4.43 -1.04c-0.59,-0.59 -1.8,-0.95 -2.41,-0.95 -0.39,0 -1.08,0.14 -1.71,0.46 -0.39,0.19 -1.04,0.62 -1.04,1.2 0,0.24 0.11,0.49 0.33,0.72 0.59,0.58 1.8,0.94 2.42,0.94 0.38,0 1.07,-0.14 1.71,-0.45 0.39,-0.2 1.04,-0.61 1.04,-1.2 0,-0.25 -0.11,-0.49 -0.34,-0.72zm-4.95 1.56c-0.26,-0.26 -0.4,-0.54 -0.4,-0.84 0,-0.51 0.41,-1 1.14,-1.37 0.56,-0.28 1.29,-0.47 1.79,-0.47 0.64,0 1.91,0.37 2.53,0.99 0.26,0.26 0.4,0.54 0.4,0.84 0,0.51 -0.41,1 -1.14,1.37 -0.56,0.28 -1.29,0.48 -1.78,0.48 -0.64,0 -1.92,-0.38 -2.54,-1z"/>
   <path class="fil0" d="M55.22 65.62c0.25,0.25 0.51,0.37 0.78,0.37 1.09,0 1.75,-1.98 1.75,-2.84 0,-0.63 -0.37,-1.87 -0.97,-2.48 -0.25,-0.24 -0.51,-0.36 -0.78,-0.36 -1.09,0 -1.75,1.97 -1.75,2.84 0,0.62 0.36,1.87 0.97,2.47zm0.78 -4.59c0.07,0 0.16,0.06 0.26,0.15 0.44,0.45 0.76,1.48 0.76,1.96 0,0.3 -0.13,0.86 -0.38,1.36 -0.24,0.52 -0.51,0.75 -0.65,0.75 -0.08,0 -0.17,-0.05 -0.27,-0.15 -0.44,-0.44 -0.76,-1.48 -0.76,-1.96 0,-0.3 0.13,-0.87 0.38,-1.37 0.24,-0.51 0.5,-0.75 0.66,-0.75z"/>
   <path class="fil0" d="M56 61.12c-0.1,0 -0.33,0.19 -0.58,0.69 -0.24,0.49 -0.36,1.05 -0.36,1.33 0,0.46 0.32,1.48 0.73,1.9 0.09,0.09 0.16,0.12 0.2,0.12 0.1,0 0.33,-0.18 0.58,-0.69 0.23,-0.49 0.36,-1.04 0.36,-1.34 0,-0.45 -0.32,-1.47 -0.74,-1.9 -0.09,-0.1 -0.16,-0.13 -0.2,-0.13zm-0.33 4.05c-0.45,-0.46 -0.78,-1.53 -0.78,-2.03 0,-0.3 0.13,-0.89 0.38,-1.4 0.24,-0.5 0.52,-0.8 0.74,-0.8 0.12,0 0.24,0.1 0.33,0.18 0.47,0.48 0.79,1.53 0.79,2.02 0,0.31 -0.13,0.89 -0.38,1.41 -0.23,0.49 -0.52,0.79 -0.73,0.79 -0.1,0 -0.22,-0.06 -0.33,-0.18zm1.04 -4.43c-0.22,-0.23 -0.47,-0.35 -0.71,-0.35 -0.25,0 -0.5,0.12 -0.73,0.35 -0.61,0.6 -0.94,1.8 -0.94,2.4 0,0.61 0.36,1.83 0.95,2.42 0.23,0.23 0.47,0.33 0.72,0.33 0.59,0 1.01,-0.65 1.2,-1.04 0.32,-0.63 0.45,-1.32 0.45,-1.71 0,-0.61 -0.36,-1.82 -0.95,-2.4zm-1.56 4.94c-0.62,-0.62 -1,-1.9 -1,-2.54 -0.01,-0.63 0.35,-1.89 0.99,-2.53 0.26,-0.26 0.55,-0.4 0.85,-0.4 0.3,0 0.58,0.14 0.84,0.39 0.61,0.62 1,1.9 1,2.54 0,0.5 -0.2,1.23 -0.48,1.79 -0.37,0.73 -0.86,1.14 -1.37,1.14 -0.3,0 -0.58,-0.14 -0.85,-0.39z"/>
   <path class="fil0" d="M52.1 68.73c0.24,0.24 0.51,0.37 0.78,0.37 1.09,0 1.75,-1.97 1.75,-2.84 0,-0.63 -0.37,-1.87 -0.97,-2.47 -0.24,-0.25 -0.51,-0.37 -0.78,-0.37 -1.09,0 -1.75,1.97 -1.75,2.85 0,0.62 0.37,1.87 0.97,2.47zm0.78 -4.59c0.07,0 0.17,0.05 0.27,0.15 0.44,0.44 0.76,1.48 0.76,1.96 0,0.3 -0.13,0.86 -0.37,1.37 -0.25,0.51 -0.51,0.75 -0.66,0.75 -0.07,0 -0.16,-0.05 -0.27,-0.15 -0.44,-0.44 -0.76,-1.47 -0.76,-1.96 0,-0.3 0.13,-0.86 0.37,-1.37 0.25,-0.51 0.51,-0.75 0.66,-0.75z"/>
   <path class="fil0" d="M53.09 64.36c-0.1,-0.1 -0.17,-0.13 -0.2,-0.13 -0.09,0 -0.33,0.18 -0.58,0.69 -0.23,0.5 -0.36,1.04 -0.36,1.33 0,0.46 0.31,1.48 0.73,1.9 0.09,0.1 0.17,0.12 0.2,0.12 0.09,0.01 0.33,-0.18 0.57,-0.69 0.24,-0.49 0.36,-1.04 0.36,-1.33 0,-0.47 -0.31,-1.47 -0.73,-1.9zm-0.53 3.92c-0.46,-0.45 -0.79,-1.53 -0.79,-2.02 0.01,-0.3 0.14,-0.89 0.39,-1.41 0.23,-0.49 0.52,-0.8 0.73,-0.8 0.12,0 0.25,0.1 0.33,0.18 0.48,0.47 0.79,1.53 0.79,2.02 0,0.31 -0.13,0.89 -0.38,1.41 -0.24,0.49 -0.52,0.79 -0.74,0.79 -0.1,0 -0.21,-0.06 -0.33,-0.18zm1.04 -4.43c-0.23,-0.23 -0.47,-0.34 -0.72,-0.34 -0.25,0 -0.49,0.11 -0.72,0.35 -0.61,0.61 -0.94,1.81 -0.94,2.4 0,0.61 0.35,1.83 0.94,2.41 0.23,0.23 0.47,0.34 0.72,0.34 0.59,0 1.01,-0.65 1.2,-1.04 0.32,-0.63 0.46,-1.32 0.46,-1.71 0,-0.61 -0.36,-1.82 -0.95,-2.41zm-1.56 4.94c-0.62,-0.61 -1,-1.89 -1,-2.53 0,-0.63 0.35,-1.89 0.99,-2.53 0.27,-0.26 0.55,-0.4 0.85,-0.4 0.3,0 0.58,0.13 0.84,0.39 0.62,0.62 1,1.9 1,2.53 0,0.49 -0.19,1.22 -0.48,1.78 -0.37,0.74 -0.85,1.15 -1.36,1.15 -0.3,0 -0.58,-0.14 -0.84,-0.4z"/>
   <path class="fil0" d="M51.52 69.37c0,-0.62 -0.37,-1.87 -0.97,-2.47 -0.25,-0.25 -0.51,-0.37 -0.78,-0.37 -1.09,0 -1.75,1.97 -1.75,2.84 0,0.63 0.37,1.87 0.97,2.48 0.24,0.24 0.51,0.37 0.78,0.37 1.09,0 1.75,-1.97 1.75,-2.85zm-1.75 2.11c-0.08,0 -0.17,-0.05 -0.27,-0.15 -0.44,-0.44 -0.76,-1.48 -0.76,-1.96 0,-0.3 0.13,-0.87 0.38,-1.37 0.24,-0.51 0.51,-0.75 0.65,-0.75 0.08,0 0.17,0.05 0.27,0.16 0.44,0.44 0.76,1.47 0.76,1.96 0,0.3 -0.13,0.87 -0.38,1.37 -0.24,0.51 -0.51,0.74 -0.65,0.74z"/>
   <path class="fil0" d="M49.97 67.47c-0.09,-0.1 -0.16,-0.12 -0.2,-0.12 -0.1,0 -0.33,0.19 -0.57,0.7 -0.24,0.49 -0.36,1.04 -0.36,1.32 0,0.46 0.32,1.48 0.74,1.9 0.09,0.09 0.16,0.13 0.2,0.13 0.09,0 0.32,-0.18 0.57,-0.69 0.25,-0.5 0.37,-1.04 0.37,-1.34 -0.01,-0.47 -0.32,-1.47 -0.74,-1.9zm-0.53 3.93c-0.45,-0.46 -0.79,-1.53 -0.79,-2.03 0,-0.3 0.13,-0.89 0.38,-1.4 0.24,-0.5 0.52,-0.8 0.73,-0.8 0.12,0 0.25,0.1 0.33,0.18 0.48,0.48 0.79,1.53 0.79,2.02 0,0.31 -0.13,0.89 -0.38,1.41 -0.24,0.5 -0.52,0.79 -0.74,0.79 -0.12,0 -0.24,-0.1 -0.33,-0.18zm1.04 -4.43c-0.23,-0.23 -0.47,-0.35 -0.72,-0.35 -0.25,0 -0.49,0.12 -0.72,0.35 -0.61,0.62 -0.94,1.81 -0.94,2.41 0,0.61 0.36,1.83 0.95,2.41 0.22,0.23 0.47,0.34 0.72,0.34 0.58,0 1.01,-0.66 1.2,-1.05 0.32,-0.63 0.46,-1.32 0.46,-1.71 0,-0.61 -0.36,-1.82 -0.95,-2.41zm-1.56 4.95c-0.62,-0.62 -1,-1.9 -1,-2.54 0,-0.63 0.36,-1.89 1,-2.52 0.26,-0.27 0.55,-0.4 0.85,-0.4 0.3,0 0.58,0.14 0.84,0.4 0.62,0.61 1,1.89 1,2.53 0,0.49 -0.2,1.23 -0.48,1.79 -0.37,0.74 -0.85,1.15 -1.36,1.15 -0.3,0 -0.58,-0.13 -0.85,-0.39z"/>
   <path class="fil0" d="M49.89 72.73c-0.14,-0.14 -0.37,-0.14 -0.51,0l-2.15 2.14c-0.14,0.15 -0.14,0.38 0,0.51 0.14,0.15 0.37,0.15 0.51,0l2.15 -2.14c0.14,-0.14 0.14,-0.38 0,-0.51z"/>
   <path class="fil0" d="M49.83 72.8c-0.11,-0.11 -0.28,-0.11 -0.38,0l-2.15 2.14c-0.1,0.11 -0.1,0.28 0,0.39 0.11,0.11 0.28,0.11 0.39,0l2.15 -2.15c0.11,-0.1 0.11,-0.27 0,-0.38zm-2.66 2.66c-0.18,-0.17 -0.18,-0.46 0,-0.64l2.15 -2.14c0.17,-0.18 0.46,-0.18 0.64,0 0.18,0.17 0.18,0.46 0,0.64l-2.15 2.14c-0.17,0.18 -0.46,0.18 -0.64,0z"/>
   <path class="fil0" d="M57.9 61.97c0.14,0.14 0.37,0.14 0.51,0l2.15 -2.15c0.14,-0.14 0.14,-0.37 0,-0.51 -0.14,-0.14 -0.37,-0.14 -0.52,0l-2.14 2.15c-0.14,0.14 -0.14,0.37 0,0.51z"/>
   <path class="fil0" d="M60.5 59.37c-0.11,-0.11 -0.28,-0.11 -0.39,0l-2.15 2.15c-0.1,0.11 -0.1,0.28 0,0.39 0.11,0.11 0.28,0.11 0.39,0l2.15 -2.15c0.11,-0.11 0.11,-0.28 0,-0.39zm-2.66 2.66c-0.18,-0.17 -0.18,-0.47 0,-0.64l2.15 -2.15c0.17,-0.18 0.46,-0.18 0.64,0 0.18,0.17 0.18,0.47 0,0.64l-2.15 2.15c-0.17,0.18 -0.46,0.18 -0.64,0z"/>
   <path class="fil0" d="M58.51 64.11c0.14,0.14 0.37,0.14 0.51,0l2.14 -2.15c0.15,-0.14 0.14,-0.37 0,-0.51 -0.14,-0.14 -0.37,-0.14 -0.51,0l-2.14 2.15c-0.14,0.14 -0.14,0.37 0,0.51z"/>
   <path class="fil0" d="M61.1 61.52c-0.11,-0.11 -0.28,-0.11 -0.38,0l-2.15 2.15c-0.1,0.11 -0.1,0.28 0,0.39 0.11,0.1 0.28,0.1 0.39,0l2.14 -2.15c0.11,-0.11 0.11,-0.28 0,-0.39zm-2.65 2.66c-0.18,-0.17 -0.18,-0.46 0,-0.64l2.14 -2.15c0.18,-0.17 0.47,-0.17 0.64,0 0.18,0.18 0.18,0.47 0,0.64l-2.15 2.15c-0.17,0.18 -0.46,0.18 -0.63,0z"/>
   <path class="fil0" d="M60.65 64.73c0.14,0.14 0.37,0.14 0.51,0l2.15 -2.15c0.14,-0.14 0.14,-0.37 0,-0.51 -0.14,-0.14 -0.37,-0.14 -0.51,0l-2.15 2.15c-0.14,0.14 -0.14,0.37 0,0.51z"/>
   <path class="fil0" d="M63.25 62.13c-0.11,-0.11 -0.28,-0.11 -0.38,0l-2.15 2.14c-0.1,0.11 -0.1,0.28 0,0.39 0.11,0.1 0.28,0.1 0.39,0l2.15 -2.15c0.11,-0.1 0.11,-0.27 0,-0.38zm-2.66 2.66c-0.18,-0.17 -0.18,-0.46 0,-0.63l2.15 -2.15c0.17,-0.18 0.46,-0.18 0.64,0 0.18,0.17 0.18,0.46 0,0.64l-2.15 2.14c-0.17,0.18 -0.46,0.18 -0.64,0z"/>
   <path class="fil0" d="M62.03 65.92c-0.61,-0.61 -1.85,-0.97 -2.48,-0.97 -0.87,0 -2.85,0.66 -2.84,1.75 0,0.27 0.13,0.53 0.37,0.78 0.6,0.6 1.84,0.97 2.47,0.97 0.87,0.01 2.85,-0.66 2.85,-1.75 0,-0.27 -0.12,-0.54 -0.37,-0.78zm-1.11 1.43c-0.51,0.25 -1.07,0.38 -1.37,0.38 -0.48,0 -1.52,-0.32 -1.96,-0.76 -0.11,-0.1 -0.16,-0.19 -0.16,-0.26 0,-0.15 0.24,-0.41 0.74,-0.66 0.51,-0.25 1.07,-0.38 1.37,-0.38 0.48,0 1.52,0.32 1.96,0.76 0.1,0.1 0.15,0.19 0.15,0.27 0,0.14 -0.23,0.41 -0.75,0.65z"/>
   <path class="fil0" d="M61.45 66.5c-0.42,-0.42 -1.42,-0.73 -1.9,-0.73 -0.29,0 -0.84,0.12 -1.33,0.36 -0.51,0.24 -0.7,0.48 -0.7,0.57 0,0.04 0.04,0.11 0.13,0.2 0.42,0.42 1.44,0.74 1.9,0.74 0.28,0 0.84,-0.13 1.33,-0.37 0.51,-0.24 0.69,-0.48 0.69,-0.57 0,-0.04 -0.03,-0.11 -0.13,-0.2zm-3.92 0.53c-0.08,-0.08 -0.18,-0.2 -0.18,-0.33 0,-0.22 0.3,-0.5 0.79,-0.74 0.52,-0.25 1.1,-0.38 1.41,-0.38 0.5,0 1.54,0.31 2.02,0.79 0.08,0.08 0.18,0.2 0.18,0.33 0,0.22 -0.31,0.5 -0.8,0.73 -0.52,0.25 -1.1,0.38 -1.41,0.38 -0.49,0 -1.57,-0.33 -2.02,-0.79zm4.43 -1.04c-0.59,-0.59 -1.8,-0.95 -2.41,-0.95 -0.6,0 -1.8,0.34 -2.41,0.94 -0.23,0.23 -0.34,0.48 -0.34,0.73 0,0.25 0.11,0.49 0.33,0.71 0.59,0.59 1.8,0.95 2.41,0.95 0.6,0 1.8,-0.33 2.4,-0.94 0.23,-0.23 0.35,-0.47 0.35,-0.72 0,-0.25 -0.11,-0.49 -0.34,-0.72zm-4.94 1.56c-0.26,-0.26 -0.4,-0.54 -0.4,-0.84 0,-0.3 0.14,-0.58 0.4,-0.85 0.64,-0.64 1.9,-1 2.53,-0.99 0.64,0 1.91,0.37 2.54,1 0.26,0.26 0.39,0.54 0.39,0.84 0,0.3 -0.14,0.58 -0.4,0.85 -0.64,0.64 -1.9,1 -2.53,1 -0.64,0 -1.92,-0.39 -2.53,-1z"/>
   <path class="fil0" d="M58.91 69.04c-0.6,-0.61 -1.85,-0.98 -2.48,-0.98 -0.87,0 -2.84,0.66 -2.84,1.75 0,0.27 0.12,0.54 0.37,0.78 0.6,0.6 1.84,0.97 2.48,0.97 0.86,0 2.84,-0.67 2.84,-1.75 0,-0.27 -0.13,-0.54 -0.37,-0.78zm-1.1 1.43c-0.51,0.24 -1.07,0.37 -1.37,0.37 -0.48,0 -1.52,-0.32 -1.96,-0.76 -0.1,-0.1 -0.16,-0.2 -0.16,-0.27 0,-0.15 0.24,-0.41 0.75,-0.65 0.51,-0.25 1.08,-0.38 1.37,-0.38 0.48,0 1.52,0.32 1.96,0.76 0.1,0.1 0.15,0.19 0.15,0.26 0,0.15 -0.23,0.4 -0.74,0.66z"/>
   <path class="fil0" d="M58.34 69.61c-0.42,-0.42 -1.42,-0.73 -1.9,-0.73 -0.29,0 -0.83,0.13 -1.33,0.37 -0.51,0.24 -0.69,0.48 -0.69,0.57 0,0.04 0.04,0.11 0.12,0.2 0.42,0.42 1.44,0.73 1.9,0.73 0.28,0 0.83,-0.12 1.32,-0.36 0.51,-0.25 0.69,-0.48 0.69,-0.58 0,-0.04 -0.02,-0.1 -0.13,-0.2zm-3.92 0.54c-0.08,-0.08 -0.18,-0.21 -0.18,-0.33 0,-0.22 0.3,-0.5 0.79,-0.73 0.52,-0.25 1.1,-0.38 1.41,-0.38 0.5,0.01 1.55,0.32 2.02,0.79 0.08,0.08 0.18,0.21 0.18,0.33 0,0.22 -0.3,0.5 -0.8,0.74 -0.52,0.24 -1.1,0.38 -1.4,0.38 -0.5,0 -1.57,-0.33 -2.03,-0.79zm4.43 -1.05c-0.58,-0.58 -1.8,-0.94 -2.41,-0.94 -0.6,0 -1.79,0.33 -2.4,0.94 -0.23,0.23 -0.35,0.47 -0.35,0.72 0,0.25 0.11,0.49 0.34,0.72 0.59,0.59 1.8,0.95 2.41,0.95 0.38,0 1.07,-0.14 1.7,-0.46 0.39,-0.19 1.05,-0.61 1.05,-1.2 0,-0.25 -0.12,-0.49 -0.35,-0.72zm-4.94 1.56c-0.26,-0.26 -0.39,-0.55 -0.39,-0.85 0,-0.3 0.14,-0.58 0.4,-0.85 0.64,-0.64 1.9,-0.99 2.53,-0.99 0.65,0 1.92,0.38 2.54,1 0.26,0.26 0.4,0.54 0.4,0.84 0,0.51 -0.41,1 -1.15,1.37 -0.55,0.28 -1.29,0.47 -1.78,0.47 -0.65,0 -1.93,-0.38 -2.54,-1z"/>
   <path class="fil0" d="M55.8 72.15c-0.61,-0.6 -1.86,-0.97 -2.48,-0.97 -0.87,0 -2.85,0.66 -2.85,1.75 0,0.27 0.13,0.54 0.37,0.78 0.6,0.6 1.85,0.98 2.48,0.98 0.86,0 2.85,-0.67 2.85,-1.75 0,-0.27 -0.13,-0.54 -0.37,-0.78zm-1.11 1.43c-0.51,0.24 -1.07,0.38 -1.37,0.38 -0.48,0 -1.52,-0.32 -1.96,-0.76 -0.1,-0.1 -0.16,-0.19 -0.16,-0.26 0,-0.15 0.23,-0.41 0.75,-0.66 0.51,-0.25 1.07,-0.38 1.37,-0.38 0.48,0 1.52,0.32 1.96,0.76 0.1,0.1 0.15,0.19 0.15,0.27 0,0.14 -0.23,0.41 -0.74,0.65z"/>
   <path class="fil0" d="M55.23 72.72c-0.42,-0.42 -1.43,-0.73 -1.9,-0.73 -0.29,0 -0.84,0.12 -1.34,0.36 -0.5,0.24 -0.69,0.48 -0.69,0.57 0,0.04 0.04,0.11 0.13,0.2 0.42,0.42 1.44,0.73 1.9,0.73 0.28,0 0.84,-0.13 1.33,-0.36 0.51,-0.24 0.69,-0.48 0.69,-0.58 0,-0.04 -0.03,-0.11 -0.12,-0.2zm-3.92 0.53c-0.09,-0.08 -0.18,-0.2 -0.18,-0.33 0,-0.22 0.3,-0.5 0.79,-0.74 0.52,-0.24 1.1,-0.38 1.41,-0.38 0.49,0 1.54,0.31 2.02,0.79 0.08,0.08 0.18,0.21 0.18,0.33 0,0.22 -0.3,0.5 -0.79,0.73 -0.52,0.25 -1.1,0.38 -1.41,0.38 -0.5,0 -1.57,-0.33 -2.02,-0.79zm4.43 -1.04c-0.59,-0.59 -1.8,-0.95 -2.41,-0.95 -0.39,0 -1.08,0.14 -1.71,0.46 -0.39,0.19 -1.04,0.62 -1.04,1.2 0,0.24 0.11,0.49 0.33,0.72 0.59,0.58 1.8,0.94 2.42,0.94 0.38,0 1.07,-0.14 1.71,-0.45 0.39,-0.2 1.04,-0.61 1.04,-1.2 0,-0.25 -0.11,-0.49 -0.34,-0.72zm-4.95 1.56c-0.26,-0.26 -0.4,-0.54 -0.4,-0.84 0,-0.51 0.41,-1 1.14,-1.37 0.56,-0.28 1.29,-0.47 1.79,-0.47 0.64,0 1.91,0.37 2.53,0.99 0.26,0.26 0.4,0.54 0.4,0.84 0,0.51 -0.41,1 -1.14,1.37 -0.56,0.28 -1.29,0.48 -1.78,0.48 -0.64,0 -1.92,-0.38 -2.54,-1z"/>
   <path class="fil0" d="M55.22 65.62c0.25,0.25 0.51,0.37 0.78,0.37 1.09,0 1.75,-1.98 1.75,-2.84 0,-0.63 -0.37,-1.87 -0.97,-2.48 -0.25,-0.24 -0.51,-0.36 -0.78,-0.36 -1.09,0 -1.75,1.97 -1.75,2.84 0,0.62 0.36,1.87 0.97,2.47zm0.78 -4.59c0.07,0 0.16,0.06 0.26,0.15 0.44,0.45 0.76,1.48 0.76,1.96 0,0.3 -0.13,0.86 -0.38,1.36 -0.24,0.52 -0.51,0.75 -0.65,0.75 -0.08,0 -0.17,-0.05 -0.27,-0.15 -0.44,-0.44 -0.76,-1.48 -0.76,-1.96 0,-0.3 0.13,-0.87 0.38,-1.37 0.24,-0.51 0.5,-0.75 0.66,-0.75z"/>
   <path class="fil0" d="M56 61.12c-0.1,0 -0.33,0.19 -0.58,0.69 -0.24,0.49 -0.36,1.05 -0.36,1.33 0,0.46 0.32,1.48 0.73,1.9 0.09,0.09 0.16,0.12 0.2,0.12 0.1,0 0.33,-0.18 0.58,-0.69 0.23,-0.49 0.36,-1.04 0.36,-1.34 0,-0.45 -0.32,-1.47 -0.74,-1.9 -0.09,-0.1 -0.16,-0.13 -0.2,-0.13zm-0.33 4.05c-0.45,-0.46 -0.78,-1.53 -0.78,-2.03 0,-0.3 0.13,-0.89 0.38,-1.4 0.24,-0.5 0.52,-0.8 0.74,-0.8 0.12,0 0.24,0.1 0.33,0.18 0.47,0.48 0.79,1.53 0.79,2.02 0,0.31 -0.13,0.89 -0.38,1.41 -0.23,0.49 -0.52,0.79 -0.73,0.79 -0.1,0 -0.22,-0.06 -0.33,-0.18zm1.04 -4.43c-0.22,-0.23 -0.47,-0.35 -0.71,-0.35 -0.25,0 -0.5,0.12 -0.73,0.35 -0.61,0.6 -0.94,1.8 -0.94,2.4 0,0.61 0.36,1.83 0.95,2.42 0.23,0.23 0.47,0.33 0.72,0.33 0.59,0 1.01,-0.65 1.2,-1.04 0.32,-0.63 0.45,-1.32 0.45,-1.71 0,-0.61 -0.36,-1.82 -0.95,-2.4zm-1.56 4.94c-0.62,-0.62 -1,-1.9 -1,-2.54 -0.01,-0.63 0.35,-1.89 0.99,-2.53 0.26,-0.26 0.55,-0.4 0.85,-0.4 0.3,0 0.58,0.14 0.84,0.39 0.61,0.62 1,1.9 1,2.54 0,0.5 -0.2,1.23 -0.48,1.79 -0.37,0.73 -0.86,1.14 -1.37,1.14 -0.3,0 -0.58,-0.14 -0.85,-0.39z"/>
   <path class="fil0" d="M52.1 68.73c0.24,0.24 0.51,0.37 0.78,0.37 1.09,0 1.75,-1.97 1.75,-2.84 0,-0.63 -0.37,-1.87 -0.97,-2.47 -0.24,-0.25 -0.51,-0.37 -0.78,-0.37 -1.09,0 -1.75,1.97 -1.75,2.85 0,0.62 0.37,1.87 0.97,2.47zm0.78 -4.59c0.07,0 0.17,0.05 0.27,0.15 0.44,0.44 0.76,1.48 0.76,1.96 0,0.3 -0.13,0.86 -0.37,1.37 -0.25,0.51 -0.51,0.75 -0.66,0.75 -0.07,0 -0.16,-0.05 -0.27,-0.15 -0.44,-0.44 -0.76,-1.47 -0.76,-1.96 0,-0.3 0.13,-0.86 0.37,-1.37 0.25,-0.51 0.51,-0.75 0.66,-0.75z"/>
   <path class="fil0" d="M53.09 64.36c-0.1,-0.1 -0.17,-0.13 -0.2,-0.13 -0.09,0 -0.33,0.18 -0.58,0.69 -0.23,0.5 -0.36,1.04 -0.36,1.33 0,0.46 0.31,1.48 0.73,1.9 0.09,0.1 0.17,0.12 0.2,0.12 0.09,0.01 0.33,-0.18 0.57,-0.69 0.24,-0.49 0.36,-1.04 0.36,-1.33 0,-0.47 -0.31,-1.47 -0.73,-1.9zm-0.53 3.92c-0.46,-0.45 -0.79,-1.53 -0.79,-2.02 0.01,-0.3 0.14,-0.89 0.39,-1.41 0.23,-0.49 0.52,-0.8 0.73,-0.8 0.12,0 0.25,0.1 0.33,0.18 0.48,0.47 0.79,1.53 0.79,2.02 0,0.31 -0.13,0.89 -0.38,1.41 -0.24,0.49 -0.52,0.79 -0.74,0.79 -0.1,0 -0.21,-0.06 -0.33,-0.18zm1.04 -4.43c-0.23,-0.23 -0.47,-0.34 -0.72,-0.34 -0.25,0 -0.49,0.11 -0.72,0.35 -0.61,0.61 -0.94,1.81 -0.94,2.4 0,0.61 0.35,1.83 0.94,2.41 0.23,0.23 0.47,0.34 0.72,0.34 0.59,0 1.01,-0.65 1.2,-1.04 0.32,-0.63 0.46,-1.32 0.46,-1.71 0,-0.61 -0.36,-1.82 -0.95,-2.41zm-1.56 4.94c-0.62,-0.61 -1,-1.89 -1,-2.53 0,-0.63 0.35,-1.89 0.99,-2.53 0.27,-0.26 0.55,-0.4 0.85,-0.4 0.3,0 0.58,0.13 0.84,0.39 0.62,0.62 1,1.9 1,2.53 0,0.49 -0.19,1.22 -0.48,1.78 -0.37,0.74 -0.85,1.15 -1.36,1.15 -0.3,0 -0.58,-0.14 -0.84,-0.4z"/>
   <path class="fil0" d="M51.52 69.37c0,-0.62 -0.37,-1.87 -0.97,-2.47 -0.25,-0.25 -0.51,-0.37 -0.78,-0.37 -1.09,0 -1.75,1.97 -1.75,2.84 0,0.63 0.37,1.87 0.97,2.48 0.24,0.24 0.51,0.37 0.78,0.37 1.09,0 1.75,-1.97 1.75,-2.85zm-1.75 2.11c-0.08,0 -0.17,-0.05 -0.27,-0.15 -0.44,-0.44 -0.76,-1.48 -0.76,-1.96 0,-0.3 0.13,-0.87 0.38,-1.37 0.24,-0.51 0.51,-0.75 0.65,-0.75 0.08,0 0.17,0.05 0.27,0.16 0.44,0.44 0.76,1.47 0.76,1.96 0,0.3 -0.13,0.87 -0.38,1.37 -0.24,0.51 -0.51,0.74 -0.65,0.74z"/>
   <path class="fil0" d="M49.97 67.47c-0.09,-0.1 -0.16,-0.12 -0.2,-0.12 -0.1,0 -0.33,0.19 -0.57,0.7 -0.24,0.49 -0.36,1.04 -0.36,1.32 0,0.46 0.32,1.48 0.74,1.9 0.09,0.09 0.16,0.13 0.2,0.13 0.09,0 0.32,-0.18 0.57,-0.69 0.25,-0.5 0.37,-1.04 0.37,-1.34 -0.01,-0.47 -0.32,-1.47 -0.74,-1.9zm-0.53 3.93c-0.45,-0.46 -0.79,-1.53 -0.79,-2.03 0,-0.3 0.13,-0.89 0.38,-1.4 0.24,-0.5 0.52,-0.8 0.73,-0.8 0.12,0 0.25,0.1 0.33,0.18 0.48,0.48 0.79,1.53 0.79,2.02 0,0.31 -0.13,0.89 -0.38,1.41 -0.24,0.5 -0.52,0.79 -0.74,0.79 -0.12,0 -0.24,-0.1 -0.33,-0.18zm1.04 -4.43c-0.23,-0.23 -0.47,-0.35 -0.72,-0.35 -0.25,0 -0.49,0.12 -0.72,0.35 -0.61,0.62 -0.94,1.81 -0.94,2.41 0,0.61 0.36,1.83 0.95,2.41 0.22,0.23 0.47,0.34 0.72,0.34 0.58,0 1.01,-0.66 1.2,-1.05 0.32,-0.63 0.46,-1.32 0.46,-1.71 0,-0.61 -0.36,-1.82 -0.95,-2.41zm-1.56 4.95c-0.62,-0.62 -1,-1.9 -1,-2.54 0,-0.63 0.36,-1.89 1,-2.52 0.26,-0.27 0.55,-0.4 0.85,-0.4 0.3,0 0.58,0.14 0.84,0.4 0.62,0.61 1,1.89 1,2.53 0,0.49 -0.2,1.23 -0.48,1.79 -0.37,0.74 -0.85,1.15 -1.36,1.15 -0.3,0 -0.58,-0.13 -0.85,-0.39z"/>
   <path class="fil0" d="M49.89 72.73c-0.14,-0.14 -0.37,-0.14 -0.51,0l-2.15 2.14c-0.14,0.15 -0.14,0.38 0,0.51 0.14,0.15 0.37,0.15 0.51,0l2.15 -2.14c0.14,-0.14 0.14,-0.38 0,-0.51z"/>
   <path class="fil0" d="M49.83 72.8c-0.11,-0.11 -0.28,-0.11 -0.38,0l-2.15 2.14c-0.1,0.11 -0.1,0.28 0,0.39 0.11,0.11 0.28,0.11 0.39,0l2.15 -2.15c0.11,-0.1 0.11,-0.27 0,-0.38zm-2.66 2.66c-0.18,-0.17 -0.18,-0.46 0,-0.64l2.15 -2.14c0.17,-0.18 0.46,-0.18 0.64,0 0.18,0.17 0.18,0.46 0,0.64l-2.15 2.14c-0.17,0.18 -0.46,0.18 -0.64,0z"/>
   <path class="fil0" d="M57.9 61.97c0.14,0.14 0.37,0.14 0.51,0l2.15 -2.15c0.14,-0.14 0.14,-0.37 0,-0.51 -0.14,-0.14 -0.37,-0.14 -0.52,0l-2.14 2.15c-0.14,0.14 -0.14,0.37 0,0.51z"/>
   <path class="fil0" d="M60.5 59.37c-0.11,-0.11 -0.28,-0.11 -0.39,0l-2.15 2.15c-0.1,0.11 -0.1,0.28 0,0.39 0.11,0.11 0.28,0.11 0.39,0l2.15 -2.15c0.11,-0.11 0.11,-0.28 0,-0.39zm-2.66 2.66c-0.18,-0.17 -0.18,-0.47 0,-0.64l2.15 -2.15c0.17,-0.18 0.46,-0.18 0.64,0 0.18,0.17 0.18,0.47 0,0.64l-2.15 2.15c-0.17,0.18 -0.46,0.18 -0.64,0z"/>
   <path class="fil0" d="M58.51 64.11c0.14,0.14 0.37,0.14 0.51,0l2.14 -2.15c0.15,-0.14 0.14,-0.37 0,-0.51 -0.14,-0.14 -0.37,-0.14 -0.51,0l-2.14 2.15c-0.14,0.14 -0.14,0.37 0,0.51z"/>
   <path class="fil0" d="M61.1 61.52c-0.11,-0.11 -0.28,-0.11 -0.38,0l-2.15 2.15c-0.1,0.11 -0.1,0.28 0,0.39 0.11,0.1 0.28,0.1 0.39,0l2.14 -2.15c0.11,-0.11 0.11,-0.28 0,-0.39zm-2.65 2.66c-0.18,-0.17 -0.18,-0.46 0,-0.64l2.14 -2.15c0.18,-0.17 0.47,-0.17 0.64,0 0.18,0.18 0.18,0.47 0,0.64l-2.15 2.15c-0.17,0.18 -0.46,0.18 -0.63,0z"/>
   <path class="fil0" d="M60.65 64.73c0.14,0.14 0.37,0.14 0.51,0l2.15 -2.15c0.14,-0.14 0.14,-0.37 0,-0.51 -0.14,-0.14 -0.37,-0.14 -0.51,0l-2.15 2.15c-0.14,0.14 -0.14,0.37 0,0.51z"/>
   <path class="fil0" d="M63.25 62.13c-0.11,-0.11 -0.28,-0.11 -0.38,0l-2.15 2.14c-0.1,0.11 -0.1,0.28 0,0.39 0.11,0.1 0.28,0.1 0.39,0l2.15 -2.15c0.11,-0.1 0.11,-0.27 0,-0.38zm-2.66 2.66c-0.18,-0.17 -0.18,-0.46 0,-0.63l2.15 -2.15c0.17,-0.18 0.46,-0.18 0.64,0 0.18,0.17 0.18,0.46 0,0.64l-2.15 2.14c-0.17,0.18 -0.46,0.18 -0.64,0z"/>
   <path class="fil0" d="M31.04 65.92c-0.24,0.25 -0.37,0.51 -0.37,0.78 0,1.09 1.98,1.75 2.85,1.75 0.63,0 1.87,-0.37 2.47,-0.97 0.25,-0.25 0.37,-0.51 0.37,-0.78 0,-1.1 -1.97,-1.75 -2.84,-1.75 -0.63,0 -1.87,0.37 -2.48,0.97zm1.11 1.43c-0.52,-0.24 -0.75,-0.51 -0.75,-0.65 0,-0.08 0.05,-0.17 0.15,-0.27 0.44,-0.44 1.48,-0.76 1.96,-0.76 0.3,0 0.86,0.13 1.37,0.38 0.51,0.24 0.74,0.5 0.74,0.66 0,0.07 -0.06,0.16 -0.16,0.26 -0.44,0.44 -1.47,0.76 -1.96,0.76 -0.3,0 -0.86,-0.13 -1.37,-0.38z"/>
   <path class="fil0" d="M31.48 66.7c0,0.1 0.18,0.33 0.69,0.57 0.49,0.24 1.04,0.37 1.34,0.37 0.45,0 1.48,-0.32 1.89,-0.74 0.1,-0.09 0.13,-0.16 0.13,-0.2 0,-0.1 -0.19,-0.34 -0.7,-0.58 -0.49,-0.24 -1.04,-0.36 -1.32,-0.36 -0.47,0 -1.47,0.31 -1.9,0.73 -0.09,0.09 -0.13,0.16 -0.13,0.2zm2.03 1.12c-0.31,0 -0.9,-0.13 -1.41,-0.38 -0.5,-0.24 -0.8,-0.52 -0.8,-0.73 0,-0.13 0.1,-0.25 0.18,-0.33 0.47,-0.47 1.53,-0.78 2.03,-0.78 0.31,0 0.89,0.13 1.4,0.38 0.5,0.24 0.8,0.52 0.8,0.74 0,0.13 -0.1,0.24 -0.18,0.33 -0.45,0.45 -1.53,0.79 -2.02,0.79zm-2.76 -1.12c0,0.25 0.11,0.49 0.35,0.72 0.6,0.61 1.8,0.94 2.4,0.94 0.61,0 1.83,-0.36 2.4,-0.95 0.23,-0.22 0.35,-0.47 0.35,-0.71 0,-0.25 -0.12,-0.5 -0.35,-0.73 -0.6,-0.6 -1.81,-0.94 -2.4,-0.94 -0.62,0 -1.83,0.36 -2.41,0.95 -0.23,0.23 -0.35,0.47 -0.35,0.72zm2.76 1.84c-0.63,0 -1.9,-0.36 -2.54,-1 -0.26,-0.26 -0.39,-0.55 -0.39,-0.85 0,-0.3 0.13,-0.58 0.39,-0.85 0.62,-0.62 1.9,-1 2.54,-1 0.63,-0.01 1.89,0.35 2.53,0.99 0.27,0.26 0.4,0.55 0.4,0.85 0,0.3 -0.13,0.58 -0.39,0.84 -0.62,0.61 -1.9,1 -2.53,1z"/>
   <path class="fil0" d="M34.15 69.04c-0.24,0.24 -0.37,0.5 -0.37,0.78 0,1.09 1.97,1.75 2.84,1.75 0.63,0 1.87,-0.38 2.48,-0.97 0.25,-0.24 0.37,-0.51 0.37,-0.78 0,-1.09 -1.97,-1.75 -2.85,-1.75 -0.62,0 -1.87,0.37 -2.47,0.98zm1.1 1.43c-0.51,-0.25 -0.74,-0.51 -0.74,-0.66 0,-0.07 0.05,-0.16 0.15,-0.26 0.44,-0.44 1.47,-0.76 1.96,-0.76 0.3,0 0.87,0.13 1.37,0.38 0.51,0.24 0.75,0.5 0.75,0.65 0,0.07 -0.05,0.17 -0.16,0.27 -0.44,0.44 -1.48,0.76 -1.96,0.76 -0.3,0 -0.86,-0.13 -1.37,-0.37z"/>
   <path class="fil0" d="M34.59 69.81c0,0.09 0.19,0.33 0.7,0.58 0.49,0.24 1.04,0.36 1.33,0.36 0.46,0 1.48,-0.32 1.9,-0.73 0.1,-0.09 0.13,-0.17 0.13,-0.2 0,-0.1 -0.19,-0.33 -0.7,-0.58 -0.5,-0.23 -1.04,-0.36 -1.33,-0.36 -0.47,0 -1.47,0.31 -1.9,0.73 -0.09,0.1 -0.12,0.17 -0.12,0.2zm2.03 1.11c-0.3,0 -0.89,-0.13 -1.41,-0.37 -0.5,-0.24 -0.79,-0.52 -0.79,-0.74 0,-0.13 0.1,-0.25 0.18,-0.33 0.47,-0.47 1.53,-0.79 2.02,-0.79 0.31,0 0.89,0.13 1.41,0.38 0.49,0.23 0.8,0.52 0.8,0.73 0,0.12 -0.1,0.25 -0.18,0.33 -0.46,0.45 -1.53,0.78 -2.03,0.78zm-2.75 -1.11c0,0.6 0.65,1.01 1.04,1.2 0.63,0.32 1.32,0.46 1.71,0.46 0.61,0 1.83,-0.36 2.41,-0.95 0.23,-0.23 0.35,-0.47 0.35,-0.72 0,-0.25 -0.12,-0.5 -0.35,-0.72 -0.6,-0.61 -1.81,-0.94 -2.4,-0.94 -0.61,0 -1.83,0.36 -2.41,0.94 -0.23,0.23 -0.34,0.47 -0.34,0.72zm2.75 1.84c-0.49,0 -1.22,-0.2 -1.78,-0.48 -0.74,-0.37 -1.14,-0.85 -1.14,-1.36 0,-0.3 0.13,-0.58 0.39,-0.84 0.62,-0.62 1.89,-1 2.53,-1 0.63,0 1.89,0.36 2.54,0.99 0.26,0.27 0.39,0.55 0.39,0.85 0,0.3 -0.13,0.58 -0.39,0.85 -0.63,0.61 -1.9,1 -2.54,1z"/>
   <path class="fil0" d="M37.26 72.15c-0.25,0.24 -0.37,0.51 -0.37,0.78 0,1.09 1.98,1.75 2.85,1.75 0.63,0 1.87,-0.37 2.47,-0.98 0.24,-0.24 0.37,-0.5 0.37,-0.78 0.01,-1.09 -1.97,-1.75 -2.84,-1.75 -0.63,0 -1.87,0.37 -2.48,0.97zm1.11 1.43c-0.52,-0.24 -0.75,-0.51 -0.75,-0.65 0,-0.08 0.05,-0.17 0.15,-0.27 0.44,-0.44 1.48,-0.76 1.96,-0.76 0.3,0 0.86,0.12 1.37,0.38 0.51,0.24 0.75,0.5 0.75,0.66 0,0.07 -0.05,0.16 -0.16,0.26 -0.44,0.44 -1.47,0.76 -1.96,0.76 -0.3,0 -0.86,-0.13 -1.37,-0.38z"/>
   <path class="fil0" d="M37.71 72.93c0,0.1 0.18,0.33 0.69,0.58 0.5,0.23 1.05,0.36 1.34,0.36 0.45,0 1.48,-0.32 1.9,-0.73 0.1,-0.1 0.13,-0.17 0.13,-0.2 0,-0.1 -0.2,-0.33 -0.7,-0.58 -0.49,-0.24 -1.04,-0.36 -1.32,-0.36 -0.46,0 -1.47,0.31 -1.9,0.73 -0.09,0.09 -0.13,0.17 -0.13,0.2zm2.03 1.12c-0.31,0 -0.89,-0.13 -1.41,-0.38 -0.49,-0.23 -0.8,-0.52 -0.8,-0.73 0,-0.12 0.1,-0.25 0.18,-0.33 0.48,-0.47 1.53,-0.78 2.03,-0.78 0.31,0 0.89,0.13 1.41,0.37 0.49,0.24 0.79,0.52 0.79,0.74 0,0.13 -0.1,0.25 -0.18,0.33 -0.45,0.46 -1.53,0.79 -2.02,0.79zm-2.75 -1.12c0,0.6 0.65,1.01 1.04,1.2 0.63,0.32 1.32,0.45 1.71,0.45 0.61,0 1.83,-0.36 2.41,-0.94 0.22,-0.23 0.34,-0.47 0.34,-0.72 0,-0.6 -0.66,-1.01 -1.04,-1.2 -0.63,-0.32 -1.33,-0.46 -1.71,-0.46 -0.61,0 -1.83,0.36 -2.41,0.95 -0.23,0.23 -0.34,0.47 -0.34,0.72zm2.75 1.84c-0.49,0 -1.23,-0.2 -1.79,-0.48 -0.73,-0.37 -1.14,-0.86 -1.14,-1.37 0,-0.3 0.13,-0.58 0.39,-0.85 0.63,-0.61 1.9,-1 2.54,-1 0.49,0 1.22,0.2 1.78,0.48 0.74,0.37 1.15,0.85 1.15,1.37 0,0.3 -0.13,0.58 -0.39,0.84 -0.62,0.62 -1.9,1 -2.54,1z"/>
   <path class="fil0" d="M37.84 65.62c0.6,-0.61 0.97,-1.85 0.97,-2.47 0,-0.87 -0.66,-2.84 -1.75,-2.84 -0.27,0 -0.54,0.12 -0.78,0.36 -0.6,0.6 -0.98,1.85 -0.98,2.48 0,0.86 0.67,2.84 1.75,2.84 0.27,0 0.54,-0.12 0.78,-0.37zm-0.78 -4.59c0.15,0 0.41,0.23 0.66,0.75 0.25,0.51 0.37,1.07 0.37,1.37 0,0.48 -0.32,1.52 -0.76,1.96 -0.1,0.1 -0.19,0.15 -0.27,0.15 -0.14,0 -0.41,-0.23 -0.65,-0.75 -0.25,-0.51 -0.38,-1.07 -0.38,-1.36 0,-0.48 0.32,-1.52 0.76,-1.96 0.1,-0.09 0.19,-0.15 0.26,-0.15z"/>
   <path class="fil0" d="M36.86 61.25c-0.42,0.42 -0.73,1.44 -0.73,1.9 0,0.29 0.13,0.84 0.37,1.34 0.24,0.5 0.48,0.69 0.57,0.69 0.04,0 0.11,-0.04 0.2,-0.13 0.42,-0.42 0.73,-1.44 0.73,-1.9 0,-0.29 -0.12,-0.84 -0.36,-1.33 -0.25,-0.51 -0.48,-0.69 -0.58,-0.69 -0.04,0 -0.1,0.03 -0.2,0.13zm0.2 4.1c-0.22,0 -0.5,-0.31 -0.73,-0.8 -0.25,-0.52 -0.37,-1.1 -0.37,-1.41 0,-0.5 0.3,-1.55 0.78,-2.02 0.08,-0.08 0.21,-0.18 0.33,-0.18 0.22,0 0.5,0.31 0.74,0.8 0.24,0.51 0.38,1.1 0.38,1.41 0,0.49 -0.33,1.57 -0.79,2.03 -0.12,0.11 -0.23,0.18 -0.33,0.18zm-1.66 -2.21c0,0.38 0.14,1.08 0.45,1.71 0.2,0.39 0.61,1.04 1.2,1.04 0.25,0 0.49,-0.11 0.72,-0.34 0.59,-0.58 0.95,-1.8 0.95,-2.41 0,-0.6 -0.33,-1.79 -0.94,-2.4 -0.23,-0.23 -0.47,-0.35 -0.72,-0.35 -0.25,0 -0.49,0.11 -0.72,0.34 -0.58,0.58 -0.94,1.8 -0.94,2.41zm1.66 2.93c-0.51,0 -1,-0.4 -1.36,-1.14 -0.28,-0.56 -0.48,-1.3 -0.48,-1.79 0,-0.64 0.38,-1.91 1,-2.53 0.26,-0.26 0.54,-0.39 0.84,-0.39 0.3,0 0.59,0.13 0.85,0.4 0.64,0.64 0.99,1.9 0.99,2.53 0,0.64 -0.38,1.91 -1,2.54 -0.26,0.26 -0.55,0.39 -0.85,0.39z"/>
   <path class="fil0" d="M40.95 68.73c0.61,-0.6 0.98,-1.85 0.97,-2.47 0.01,-0.87 -0.66,-2.85 -1.75,-2.85 -0.27,0 -0.54,0.13 -0.78,0.37 -0.6,0.6 -0.97,1.84 -0.97,2.47 0,0.87 0.67,2.84 1.75,2.84 0.27,0 0.54,-0.13 0.77,-0.37zm-0.77 -4.59c0.15,0 0.4,0.23 0.65,0.75 0.25,0.51 0.38,1.07 0.38,1.37 0,0.48 -0.32,1.52 -0.76,1.96 -0.1,0.11 -0.19,0.15 -0.26,0.15 -0.15,0 -0.4,-0.23 -0.66,-0.75 -0.24,-0.51 -0.37,-1.07 -0.37,-1.37 0,-0.48 0.32,-1.52 0.76,-1.96 0.1,-0.1 0.19,-0.15 0.27,-0.15z"/>
   <path class="fil0" d="M39.24 66.26c0,0.29 0.13,0.84 0.36,1.33 0.25,0.51 0.48,0.7 0.57,0.69 0.04,0 0.11,-0.03 0.2,-0.13 0.42,-0.41 0.73,-1.44 0.73,-1.89 0,-0.29 -0.12,-0.84 -0.36,-1.34 -0.25,-0.51 -0.48,-0.69 -0.58,-0.69 -0.04,0 -0.11,0.04 -0.2,0.13 -0.42,0.42 -0.73,1.42 -0.73,1.9zm0.94 2.2c-0.22,0 -0.5,-0.3 -0.74,-0.79 -0.25,-0.52 -0.38,-1.1 -0.38,-1.41 0,-0.49 0.31,-1.56 0.79,-2.03 0.08,-0.08 0.21,-0.18 0.33,-0.18 0.21,0 0.5,0.31 0.73,0.8 0.25,0.52 0.38,1.1 0.38,1.41 0,0.5 -0.33,1.57 -0.79,2.02 -0.12,0.11 -0.23,0.18 -0.33,0.18zm-1.66 -2.2c0,0.38 0.14,1.08 0.46,1.71 0.19,0.39 0.61,1.04 1.2,1.04 0.24,0 0.49,-0.12 0.72,-0.35 0.58,-0.58 0.95,-1.79 0.95,-2.4 0,-0.6 -0.33,-1.8 -0.94,-2.4 -0.23,-0.23 -0.47,-0.35 -0.72,-0.35 -0.25,0 -0.49,0.11 -0.72,0.34 -0.59,0.58 -0.95,1.79 -0.95,2.41zm1.66 2.93c-0.51,0 -1,-0.41 -1.37,-1.15 -0.28,-0.56 -0.47,-1.29 -0.47,-1.78 0,-0.64 0.38,-1.91 1,-2.54 0.26,-0.26 0.54,-0.39 0.84,-0.39 0.3,0 0.58,0.14 0.85,0.4 0.63,0.64 0.99,1.91 0.99,2.53 0,0.64 -0.38,1.92 -1,2.54 -0.26,0.26 -0.54,0.39 -0.84,0.39z"/>
   <path class="fil0" d="M41.54 69.37c-0,0.87 0.66,2.85 1.75,2.85 0.27,0 0.54,-0.13 0.78,-0.37 0.6,-0.61 0.97,-1.85 0.97,-2.48 0,-0.87 -0.66,-2.84 -1.75,-2.84 -0.28,0 -0.54,0.12 -0.78,0.37 -0.6,0.6 -0.97,1.85 -0.97,2.47zm1.75 2.11c-0.14,0 -0.41,-0.23 -0.65,-0.74 -0.24,-0.51 -0.38,-1.07 -0.38,-1.37 0,-0.48 0.32,-1.52 0.76,-1.96 0.1,-0.1 0.19,-0.16 0.26,-0.16 0.15,0 0.4,0.23 0.66,0.75 0.24,0.5 0.37,1.07 0.37,1.37 0,0.48 -0.32,1.52 -0.76,1.96 -0.1,0.1 -0.19,0.15 -0.27,0.15z"/>
   <path class="fil0" d="M42.35 69.37c0,0.29 0.12,0.84 0.36,1.34 0.24,0.51 0.48,0.69 0.57,0.69 0.04,0 0.11,-0.04 0.2,-0.13 0.42,-0.42 0.73,-1.44 0.73,-1.9 0,-0.29 -0.12,-0.84 -0.36,-1.33 -0.24,-0.51 -0.48,-0.7 -0.58,-0.69 -0.04,-0.01 -0.1,0.03 -0.2,0.13 -0.42,0.43 -0.73,1.43 -0.73,1.9zm0.94 2.21l0 0c-0.22,0 -0.5,-0.3 -0.73,-0.8 -0.25,-0.52 -0.38,-1.1 -0.38,-1.41 0,-0.49 0.31,-1.55 0.79,-2.02 0.08,-0.08 0.2,-0.18 0.32,-0.18 0.22,0 0.5,0.3 0.74,0.8 0.25,0.51 0.38,1.09 0.38,1.4 0,0.5 -0.33,1.57 -0.79,2.03 -0.08,0.08 -0.2,0.18 -0.33,0.18zm-1.66 -2.21l0 0c0,0.38 0.14,1.08 0.45,1.71 0.2,0.39 0.62,1.05 1.2,1.05 0.25,0 0.49,-0.12 0.72,-0.35 0.59,-0.58 0.95,-1.8 0.95,-2.41 0,-0.6 -0.33,-1.8 -0.94,-2.4 -0.23,-0.23 -0.48,-0.35 -0.73,-0.35 -0.24,0 -0.49,0.12 -0.71,0.35 -0.59,0.58 -0.95,1.79 -0.95,2.4zm1.66 2.93c-0.51,0 -1,-0.4 -1.36,-1.14 -0.28,-0.56 -0.48,-1.3 -0.48,-1.79 0,-0.64 0.38,-1.91 1,-2.53 0.26,-0.26 0.54,-0.39 0.84,-0.39 0.3,0 0.58,0.13 0.85,0.4 0.64,0.64 1,1.9 0.99,2.53 0,0.64 -0.38,1.91 -1,2.54 -0.26,0.26 -0.55,0.39 -0.85,0.39z"/>
   <path class="fil0" d="M43.17 72.73c0.14,-0.14 0.37,-0.14 0.51,0l2.15 2.14c0.14,0.15 0.14,0.38 0,0.51 -0.14,0.15 -0.37,0.15 -0.51,0l-2.15 -2.14c-0.14,-0.14 -0.14,-0.38 0,-0.51z"/>
   <path class="fil0" d="M43.24 73.18l2.14 2.14c0.11,0.11 0.28,0.11 0.39,0 0.1,-0.1 0.1,-0.28 0,-0.38l-2.15 -2.14c-0.1,-0.11 -0.27,-0.11 -0.38,0 -0.11,0.1 -0.11,0.27 0,0.38zm2.02 2.27l-2.15 -2.15c-0.18,-0.18 -0.18,-0.47 0,-0.64 0.17,-0.17 0.47,-0.17 0.64,0l2.14 2.14c0.18,0.18 0.18,0.47 0,0.64 -0.17,0.17 -0.46,0.17 -0.63,0z"/>
   <path class="fil0" d="M35.16 61.97c-0.14,0.14 -0.37,0.14 -0.51,0l-2.15 -2.15c-0.14,-0.14 -0.14,-0.37 0,-0.51 0.14,-0.14 0.37,-0.14 0.51,0l2.15 2.15c0.14,0.14 0.14,0.37 0,0.51z"/>
   <path class="fil0" d="M32.57 59.76l2.15 2.15c0.11,0.11 0.28,0.11 0.39,0 0.1,-0.11 0.1,-0.28 0,-0.39l-2.15 -2.15c-0.1,-0.11 -0.27,-0.11 -0.38,0 -0.11,0.11 -0.11,0.28 0,0.39zm2.02 2.27l-2.15 -2.15c-0.18,-0.17 -0.18,-0.47 0,-0.64 0.18,-0.18 0.47,-0.18 0.64,0l2.15 2.15c0.18,0.17 0.18,0.47 0,0.64 -0.18,0.18 -0.47,0.18 -0.64,0z"/>
   <path class="fil0" d="M34.55 64.11c-0.14,0.14 -0.37,0.14 -0.51,0l-2.14 -2.15c-0.15,-0.14 -0.15,-0.37 0,-0.51 0.14,-0.14 0.36,-0.14 0.51,0l2.14 2.15c0.14,0.14 0.14,0.37 0,0.51z"/>
   <path class="fil0" d="M31.96 61.9l2.14 2.15c0.11,0.1 0.28,0.1 0.39,0 0.11,-0.11 0.11,-0.28 0,-0.39l-2.15 -2.15c-0.1,-0.11 -0.28,-0.11 -0.38,0 -0.11,0.11 -0.11,0.28 0,0.39zm2.02 2.27l-2.14 -2.15c-0.18,-0.17 -0.18,-0.46 0,-0.64 0.17,-0.17 0.46,-0.17 0.64,0l2.14 2.15c0.18,0.18 0.18,0.47 0,0.64 -0.17,0.18 -0.46,0.18 -0.64,0z"/>
   <path class="fil0" d="M32.41 64.73c-0.14,0.14 -0.37,0.14 -0.51,0l-2.15 -2.15c-0.14,-0.14 -0.14,-0.37 0,-0.51 0.14,-0.14 0.37,-0.14 0.51,0l2.15 2.15c0.14,0.14 0.14,0.37 0,0.51z"/>
   <path class="fil0" d="M29.81 62.51l2.14 2.15c0.11,0.11 0.28,0.11 0.39,0 0.1,-0.11 0.1,-0.28 0,-0.39l-2.15 -2.14c-0.1,-0.11 -0.27,-0.11 -0.38,0 -0.11,0.1 -0.11,0.27 0,0.38zm2.02 2.27l-2.15 -2.15c-0.18,-0.17 -0.18,-0.46 0,-0.64 0.17,-0.17 0.47,-0.17 0.64,0l2.14 2.15c0.18,0.18 0.18,0.47 0,0.64 -0.17,0.18 -0.46,0.18 -0.63,0z"/>
   <path class="fil0" d="M31.04 65.92c-0.24,0.25 -0.37,0.51 -0.37,0.78 0,1.09 1.98,1.75 2.85,1.75 0.63,0 1.87,-0.37 2.47,-0.97 0.25,-0.25 0.37,-0.51 0.37,-0.78 0,-1.1 -1.97,-1.75 -2.84,-1.75 -0.63,0 -1.87,0.37 -2.48,0.97zm1.11 1.43c-0.52,-0.24 -0.75,-0.51 -0.75,-0.65 0,-0.08 0.05,-0.17 0.15,-0.27 0.44,-0.44 1.48,-0.76 1.96,-0.76 0.3,0 0.86,0.13 1.37,0.38 0.51,0.24 0.74,0.5 0.74,0.66 0,0.07 -0.06,0.16 -0.16,0.26 -0.44,0.44 -1.47,0.76 -1.96,0.76 -0.3,0 -0.86,-0.13 -1.37,-0.38z"/>
   <path class="fil0" d="M31.48 66.7c0,0.1 0.18,0.33 0.69,0.57 0.49,0.24 1.04,0.37 1.34,0.37 0.45,0 1.48,-0.32 1.89,-0.74 0.1,-0.09 0.13,-0.16 0.13,-0.2 0,-0.1 -0.19,-0.34 -0.7,-0.58 -0.49,-0.24 -1.04,-0.36 -1.32,-0.36 -0.47,0 -1.47,0.31 -1.9,0.73 -0.09,0.09 -0.13,0.16 -0.13,0.2zm2.03 1.12c-0.31,0 -0.9,-0.13 -1.41,-0.38 -0.5,-0.24 -0.8,-0.52 -0.8,-0.73 0,-0.13 0.1,-0.25 0.18,-0.33 0.47,-0.47 1.53,-0.78 2.03,-0.78 0.31,0 0.89,0.13 1.4,0.38 0.5,0.24 0.8,0.52 0.8,0.74 0,0.13 -0.1,0.24 -0.18,0.33 -0.45,0.45 -1.53,0.79 -2.02,0.79zm-2.76 -1.12c0,0.25 0.11,0.49 0.35,0.72 0.6,0.61 1.8,0.94 2.4,0.94 0.61,0 1.83,-0.36 2.4,-0.95 0.23,-0.22 0.35,-0.47 0.35,-0.71 0,-0.25 -0.12,-0.5 -0.35,-0.73 -0.6,-0.6 -1.81,-0.94 -2.4,-0.94 -0.62,0 -1.83,0.36 -2.41,0.95 -0.23,0.23 -0.35,0.47 -0.35,0.72zm2.76 1.84c-0.63,0 -1.9,-0.36 -2.54,-1 -0.26,-0.26 -0.39,-0.55 -0.39,-0.85 0,-0.3 0.13,-0.58 0.39,-0.85 0.62,-0.62 1.9,-1 2.54,-1 0.63,-0.01 1.89,0.35 2.53,0.99 0.27,0.26 0.4,0.55 0.4,0.85 0,0.3 -0.13,0.58 -0.39,0.84 -0.62,0.61 -1.9,1 -2.53,1z"/>
   <path class="fil0" d="M34.15 69.04c-0.24,0.24 -0.37,0.5 -0.37,0.78 0,1.09 1.97,1.75 2.84,1.75 0.63,0 1.87,-0.38 2.48,-0.97 0.25,-0.24 0.37,-0.51 0.37,-0.78 0,-1.09 -1.97,-1.75 -2.85,-1.75 -0.62,0 -1.87,0.37 -2.47,0.98zm1.1 1.43c-0.51,-0.25 -0.74,-0.51 -0.74,-0.66 0,-0.07 0.05,-0.16 0.15,-0.26 0.44,-0.44 1.47,-0.76 1.96,-0.76 0.3,0 0.87,0.13 1.37,0.38 0.51,0.24 0.75,0.5 0.75,0.65 0,0.07 -0.05,0.17 -0.16,0.27 -0.44,0.44 -1.48,0.76 -1.96,0.76 -0.3,0 -0.86,-0.13 -1.37,-0.37z"/>
   <path class="fil0" d="M34.59 69.81c0,0.09 0.19,0.33 0.7,0.58 0.49,0.24 1.04,0.36 1.33,0.36 0.46,0 1.48,-0.32 1.9,-0.73 0.1,-0.09 0.13,-0.17 0.13,-0.2 0,-0.1 -0.19,-0.33 -0.7,-0.58 -0.5,-0.23 -1.04,-0.36 -1.33,-0.36 -0.47,0 -1.47,0.31 -1.9,0.73 -0.09,0.1 -0.12,0.17 -0.12,0.2zm2.03 1.11c-0.3,0 -0.89,-0.13 -1.41,-0.37 -0.5,-0.24 -0.79,-0.52 -0.79,-0.74 0,-0.13 0.1,-0.25 0.18,-0.33 0.47,-0.47 1.53,-0.79 2.02,-0.79 0.31,0 0.89,0.13 1.41,0.38 0.49,0.23 0.8,0.52 0.8,0.73 0,0.12 -0.1,0.25 -0.18,0.33 -0.46,0.45 -1.53,0.78 -2.03,0.78zm-2.75 -1.11c0,0.6 0.65,1.01 1.04,1.2 0.63,0.32 1.32,0.46 1.71,0.46 0.61,0 1.83,-0.36 2.41,-0.95 0.23,-0.23 0.35,-0.47 0.35,-0.72 0,-0.25 -0.12,-0.5 -0.35,-0.72 -0.6,-0.61 -1.81,-0.94 -2.4,-0.94 -0.61,0 -1.83,0.36 -2.41,0.94 -0.23,0.23 -0.34,0.47 -0.34,0.72zm2.75 1.84c-0.49,0 -1.22,-0.2 -1.78,-0.48 -0.74,-0.37 -1.14,-0.85 -1.14,-1.36 0,-0.3 0.13,-0.58 0.39,-0.84 0.62,-0.62 1.89,-1 2.53,-1 0.63,0 1.89,0.36 2.54,0.99 0.26,0.27 0.39,0.55 0.39,0.85 0,0.3 -0.13,0.58 -0.39,0.85 -0.63,0.61 -1.9,1 -2.54,1z"/>
   <path class="fil0" d="M37.26 72.15c-0.25,0.24 -0.37,0.51 -0.37,0.78 0,1.09 1.98,1.75 2.85,1.75 0.63,0 1.87,-0.37 2.47,-0.98 0.24,-0.24 0.37,-0.5 0.37,-0.78 0.01,-1.09 -1.97,-1.75 -2.84,-1.75 -0.63,0 -1.87,0.37 -2.48,0.97zm1.11 1.43c-0.52,-0.24 -0.75,-0.51 -0.75,-0.65 0,-0.08 0.05,-0.17 0.15,-0.27 0.44,-0.44 1.48,-0.76 1.96,-0.76 0.3,0 0.86,0.12 1.37,0.38 0.51,0.24 0.75,0.5 0.75,0.66 0,0.07 -0.05,0.16 -0.16,0.26 -0.44,0.44 -1.47,0.76 -1.96,0.76 -0.3,0 -0.86,-0.13 -1.37,-0.38z"/>
   <path class="fil0" d="M37.71 72.93c0,0.1 0.18,0.33 0.69,0.58 0.5,0.23 1.05,0.36 1.34,0.36 0.45,0 1.48,-0.32 1.9,-0.73 0.1,-0.1 0.13,-0.17 0.13,-0.2 0,-0.1 -0.2,-0.33 -0.7,-0.58 -0.49,-0.24 -1.04,-0.36 -1.32,-0.36 -0.46,0 -1.47,0.31 -1.9,0.73 -0.09,0.09 -0.13,0.17 -0.13,0.2zm2.03 1.12c-0.31,0 -0.89,-0.13 -1.41,-0.38 -0.49,-0.23 -0.8,-0.52 -0.8,-0.73 0,-0.12 0.1,-0.25 0.18,-0.33 0.48,-0.47 1.53,-0.78 2.03,-0.78 0.31,0 0.89,0.13 1.41,0.37 0.49,0.24 0.79,0.52 0.79,0.74 0,0.13 -0.1,0.25 -0.18,0.33 -0.45,0.46 -1.53,0.79 -2.02,0.79zm-2.75 -1.12c0,0.6 0.65,1.01 1.04,1.2 0.63,0.32 1.32,0.45 1.71,0.45 0.61,0 1.83,-0.36 2.41,-0.94 0.22,-0.23 0.34,-0.47 0.34,-0.72 0,-0.6 -0.66,-1.01 -1.04,-1.2 -0.63,-0.32 -1.33,-0.46 -1.71,-0.46 -0.61,0 -1.83,0.36 -2.41,0.95 -0.23,0.23 -0.34,0.47 -0.34,0.72zm2.75 1.84c-0.49,0 -1.23,-0.2 -1.79,-0.48 -0.73,-0.37 -1.14,-0.86 -1.14,-1.37 0,-0.3 0.13,-0.58 0.39,-0.85 0.63,-0.61 1.9,-1 2.54,-1 0.49,0 1.22,0.2 1.78,0.48 0.74,0.37 1.15,0.85 1.15,1.37 0,0.3 -0.13,0.58 -0.39,0.84 -0.62,0.62 -1.9,1 -2.54,1z"/>
   <path class="fil0" d="M37.84 65.62c0.6,-0.61 0.97,-1.85 0.97,-2.47 0,-0.87 -0.66,-2.84 -1.75,-2.84 -0.27,0 -0.54,0.12 -0.78,0.36 -0.6,0.6 -0.98,1.85 -0.98,2.48 0,0.86 0.67,2.84 1.75,2.84 0.27,0 0.54,-0.12 0.78,-0.37zm-0.78 -4.59c0.15,0 0.41,0.23 0.66,0.75 0.25,0.51 0.37,1.07 0.37,1.37 0,0.48 -0.32,1.52 -0.76,1.96 -0.1,0.1 -0.19,0.15 -0.27,0.15 -0.14,0 -0.41,-0.23 -0.65,-0.75 -0.25,-0.51 -0.38,-1.07 -0.38,-1.36 0,-0.48 0.32,-1.52 0.76,-1.96 0.1,-0.09 0.19,-0.15 0.26,-0.15z"/>
   <path class="fil0" d="M36.86 61.25c-0.42,0.42 -0.73,1.44 -0.73,1.9 0,0.29 0.13,0.84 0.37,1.34 0.24,0.5 0.48,0.69 0.57,0.69 0.04,0 0.11,-0.04 0.2,-0.13 0.42,-0.42 0.73,-1.44 0.73,-1.9 0,-0.29 -0.12,-0.84 -0.36,-1.33 -0.25,-0.51 -0.48,-0.69 -0.58,-0.69 -0.04,0 -0.1,0.03 -0.2,0.13zm0.2 4.1c-0.22,0 -0.5,-0.31 -0.73,-0.8 -0.25,-0.52 -0.37,-1.1 -0.37,-1.41 0,-0.5 0.3,-1.55 0.78,-2.02 0.08,-0.08 0.21,-0.18 0.33,-0.18 0.22,0 0.5,0.31 0.74,0.8 0.24,0.51 0.38,1.1 0.38,1.41 0,0.49 -0.33,1.57 -0.79,2.03 -0.12,0.11 -0.23,0.18 -0.33,0.18zm-1.66 -2.21c0,0.38 0.14,1.08 0.45,1.71 0.2,0.39 0.61,1.04 1.2,1.04 0.25,0 0.49,-0.11 0.72,-0.34 0.59,-0.58 0.95,-1.8 0.95,-2.41 0,-0.6 -0.33,-1.79 -0.94,-2.4 -0.23,-0.23 -0.47,-0.35 -0.72,-0.35 -0.25,0 -0.49,0.11 -0.72,0.34 -0.58,0.58 -0.94,1.8 -0.94,2.41zm1.66 2.93c-0.51,0 -1,-0.4 -1.36,-1.14 -0.28,-0.56 -0.48,-1.3 -0.48,-1.79 0,-0.64 0.38,-1.91 1,-2.53 0.26,-0.26 0.54,-0.39 0.84,-0.39 0.3,0 0.59,0.13 0.85,0.4 0.64,0.64 0.99,1.9 0.99,2.53 0,0.64 -0.38,1.91 -1,2.54 -0.26,0.26 -0.55,0.39 -0.85,0.39z"/>
   <path class="fil0" d="M40.95 68.73c0.61,-0.6 0.98,-1.85 0.97,-2.47 0.01,-0.87 -0.66,-2.85 -1.75,-2.85 -0.27,0 -0.54,0.13 -0.78,0.37 -0.6,0.6 -0.97,1.84 -0.97,2.47 0,0.87 0.67,2.84 1.75,2.84 0.27,0 0.54,-0.13 0.77,-0.37zm-0.77 -4.59c0.15,0 0.4,0.23 0.65,0.75 0.25,0.51 0.38,1.07 0.38,1.37 0,0.48 -0.32,1.52 -0.76,1.96 -0.1,0.11 -0.19,0.15 -0.26,0.15 -0.15,0 -0.4,-0.23 -0.66,-0.75 -0.24,-0.51 -0.37,-1.07 -0.37,-1.37 0,-0.48 0.32,-1.52 0.76,-1.96 0.1,-0.1 0.19,-0.15 0.27,-0.15z"/>
   <path class="fil0" d="M39.24 66.26c0,0.29 0.13,0.84 0.36,1.33 0.25,0.51 0.48,0.7 0.57,0.69 0.04,0 0.11,-0.03 0.2,-0.13 0.42,-0.41 0.73,-1.44 0.73,-1.89 0,-0.29 -0.12,-0.84 -0.36,-1.34 -0.25,-0.51 -0.48,-0.69 -0.58,-0.69 -0.04,0 -0.11,0.04 -0.2,0.13 -0.42,0.42 -0.73,1.42 -0.73,1.9zm0.94 2.2c-0.22,0 -0.5,-0.3 -0.74,-0.79 -0.25,-0.52 -0.38,-1.1 -0.38,-1.41 0,-0.49 0.31,-1.56 0.79,-2.03 0.08,-0.08 0.21,-0.18 0.33,-0.18 0.21,0 0.5,0.31 0.73,0.8 0.25,0.52 0.38,1.1 0.38,1.41 0,0.5 -0.33,1.57 -0.79,2.02 -0.12,0.11 -0.23,0.18 -0.33,0.18zm-1.66 -2.2c0,0.38 0.14,1.08 0.46,1.71 0.19,0.39 0.61,1.04 1.2,1.04 0.24,0 0.49,-0.12 0.72,-0.35 0.58,-0.58 0.95,-1.79 0.95,-2.4 0,-0.6 -0.33,-1.8 -0.94,-2.4 -0.23,-0.23 -0.47,-0.35 -0.72,-0.35 -0.25,0 -0.49,0.11 -0.72,0.34 -0.59,0.58 -0.95,1.79 -0.95,2.41zm1.66 2.93c-0.51,0 -1,-0.41 -1.37,-1.15 -0.28,-0.56 -0.47,-1.29 -0.47,-1.78 0,-0.64 0.38,-1.91 1,-2.54 0.26,-0.26 0.54,-0.39 0.84,-0.39 0.3,0 0.58,0.14 0.85,0.4 0.63,0.64 0.99,1.91 0.99,2.53 0,0.64 -0.38,1.92 -1,2.54 -0.26,0.26 -0.54,0.39 -0.84,0.39z"/>
   <path class="fil0" d="M41.54 69.37c-0,0.87 0.66,2.85 1.75,2.85 0.27,0 0.54,-0.13 0.78,-0.37 0.6,-0.61 0.97,-1.85 0.97,-2.48 0,-0.87 -0.66,-2.84 -1.75,-2.84 -0.28,0 -0.54,0.12 -0.78,0.37 -0.6,0.6 -0.97,1.85 -0.97,2.47zm1.75 2.11c-0.14,0 -0.41,-0.23 -0.65,-0.74 -0.24,-0.51 -0.38,-1.07 -0.38,-1.37 0,-0.48 0.32,-1.52 0.76,-1.96 0.1,-0.1 0.19,-0.16 0.26,-0.16 0.15,0 0.4,0.23 0.66,0.75 0.24,0.5 0.37,1.07 0.37,1.37 0,0.48 -0.32,1.52 -0.76,1.96 -0.1,0.1 -0.19,0.15 -0.27,0.15z"/>
   <path class="fil0" d="M42.35 69.37c0,0.29 0.12,0.84 0.36,1.34 0.24,0.51 0.48,0.69 0.57,0.69 0.04,0 0.11,-0.04 0.2,-0.13 0.42,-0.42 0.73,-1.44 0.73,-1.9 0,-0.29 -0.12,-0.84 -0.36,-1.33 -0.24,-0.51 -0.48,-0.7 -0.58,-0.69 -0.04,-0.01 -0.1,0.03 -0.2,0.13 -0.42,0.43 -0.73,1.43 -0.73,1.9zm0.94 2.21l0 0c-0.22,0 -0.5,-0.3 -0.73,-0.8 -0.25,-0.52 -0.38,-1.1 -0.38,-1.41 0,-0.49 0.31,-1.55 0.79,-2.02 0.08,-0.08 0.2,-0.18 0.32,-0.18 0.22,0 0.5,0.3 0.74,0.8 0.25,0.51 0.38,1.09 0.38,1.4 0,0.5 -0.33,1.57 -0.79,2.03 -0.08,0.08 -0.2,0.18 -0.33,0.18zm-1.66 -2.21l0 0c0,0.38 0.14,1.08 0.45,1.71 0.2,0.39 0.62,1.05 1.2,1.05 0.25,0 0.49,-0.12 0.72,-0.35 0.59,-0.58 0.95,-1.8 0.95,-2.41 0,-0.6 -0.33,-1.8 -0.94,-2.4 -0.23,-0.23 -0.48,-0.35 -0.73,-0.35 -0.24,0 -0.49,0.12 -0.71,0.35 -0.59,0.58 -0.95,1.79 -0.95,2.4zm1.66 2.93c-0.51,0 -1,-0.4 -1.36,-1.14 -0.28,-0.56 -0.48,-1.3 -0.48,-1.79 0,-0.64 0.38,-1.91 1,-2.53 0.26,-0.26 0.54,-0.39 0.84,-0.39 0.3,0 0.58,0.13 0.85,0.4 0.64,0.64 1,1.9 0.99,2.53 0,0.64 -0.38,1.91 -1,2.54 -0.26,0.26 -0.55,0.39 -0.85,0.39z"/>
   <path class="fil0" d="M43.17 72.73c0.14,-0.14 0.37,-0.14 0.51,0l2.15 2.14c0.14,0.15 0.14,0.38 0,0.51 -0.14,0.15 -0.37,0.15 -0.51,0l-2.15 -2.14c-0.14,-0.14 -0.14,-0.38 0,-0.51z"/>
   <path class="fil0" d="M43.24 73.18l2.14 2.14c0.11,0.11 0.28,0.11 0.39,0 0.1,-0.1 0.1,-0.28 0,-0.38l-2.15 -2.14c-0.1,-0.11 -0.27,-0.11 -0.38,0 -0.11,0.1 -0.11,0.27 0,0.38zm2.02 2.27l-2.15 -2.15c-0.18,-0.18 -0.18,-0.47 0,-0.64 0.17,-0.17 0.47,-0.17 0.64,0l2.14 2.14c0.18,0.18 0.18,0.47 0,0.64 -0.17,0.17 -0.46,0.17 -0.63,0z"/>
   <path class="fil0" d="M35.16 61.97c-0.14,0.14 -0.37,0.14 -0.51,0l-2.15 -2.15c-0.14,-0.14 -0.14,-0.37 0,-0.51 0.14,-0.14 0.37,-0.14 0.51,0l2.15 2.15c0.14,0.14 0.14,0.37 0,0.51z"/>
   <path class="fil0" d="M32.57 59.76l2.15 2.15c0.11,0.11 0.28,0.11 0.39,0 0.1,-0.11 0.1,-0.28 0,-0.39l-2.15 -2.15c-0.1,-0.11 -0.27,-0.11 -0.38,0 -0.11,0.11 -0.11,0.28 0,0.39zm2.02 2.27l-2.15 -2.15c-0.18,-0.17 -0.18,-0.47 0,-0.64 0.18,-0.18 0.47,-0.18 0.64,0l2.15 2.15c0.18,0.17 0.18,0.47 0,0.64 -0.18,0.18 -0.47,0.18 -0.64,0z"/>
   <path class="fil0" d="M34.55 64.11c-0.14,0.14 -0.37,0.14 -0.51,0l-2.14 -2.15c-0.15,-0.14 -0.15,-0.37 0,-0.51 0.14,-0.14 0.36,-0.14 0.51,0l2.14 2.15c0.14,0.14 0.14,0.37 0,0.51z"/>
   <path class="fil0" d="M31.96 61.9l2.14 2.15c0.11,0.1 0.28,0.1 0.39,0 0.11,-0.11 0.11,-0.28 0,-0.39l-2.15 -2.15c-0.1,-0.11 -0.28,-0.11 -0.38,0 -0.11,0.11 -0.11,0.28 0,0.39zm2.02 2.27l-2.14 -2.15c-0.18,-0.17 -0.18,-0.46 0,-0.64 0.17,-0.17 0.46,-0.17 0.64,0l2.14 2.15c0.18,0.18 0.18,0.47 0,0.64 -0.17,0.18 -0.46,0.18 -0.64,0z"/>
   <path class="fil0" d="M32.41 64.73c-0.14,0.14 -0.37,0.14 -0.51,0l-2.15 -2.15c-0.14,-0.14 -0.14,-0.37 0,-0.51 0.14,-0.14 0.37,-0.14 0.51,0l2.15 2.15c0.14,0.14 0.14,0.37 0,0.51z"/>
   <path class="fil0" d="M29.81 62.51l2.14 2.15c0.11,0.11 0.28,0.11 0.39,0 0.1,-0.11 0.1,-0.28 0,-0.39l-2.15 -2.14c-0.1,-0.11 -0.27,-0.11 -0.38,0 -0.11,0.1 -0.11,0.27 0,0.38zm2.02 2.27l-2.15 -2.15c-0.18,-0.17 -0.18,-0.46 0,-0.64 0.17,-0.17 0.47,-0.17 0.64,0l2.14 2.15c0.18,0.18 0.18,0.47 0,0.64 -0.17,0.18 -0.46,0.18 -0.63,0z"/>
   <path class="fil0" d="M54.35 45.33c-0.05,1.73 -0.55,3.3 -1.62,4.66 -0.97,1.25 -1.62,2.64 -1.93,4.19 -0.08,0.44 -0.45,0.7 -0.83,0.63 -0.44,-0.08 -0.69,-0.47 -0.59,-0.93 0.35,-1.74 1.06,-3.3 2.14,-4.7 2.71,-3.5 1.13,-8.62 -3.08,-9.98 -3.84,-1.24 -7.87,1.38 -8.3,5.39 -0.18,1.7 0.26,3.22 1.28,4.58 1.06,1.4 1.78,2.95 2.13,4.67 0.11,0.49 -0.11,0.88 -0.55,0.97 -0.4,0.08 -0.75,-0.19 -0.85,-0.66 -0.32,-1.52 -0.96,-2.89 -1.9,-4.14 -3.58,-4.78 -0.83,-11.54 5.08,-12.49 4.12,-0.66 8.14,2.21 8.86,6.33 0.08,0.48 0.11,0.97 0.17,1.46z"/>
   <path class="fil0" d="M46.51 57.92l3.4 0c0.62,0 1.02,0.36 1.02,0.91 0.01,0.52 -0.39,0.94 -0.98,0.94 -2.31,0.01 -4.62,0.01 -6.94,0.01 -0.52,-0.01 -0.85,-0.27 -0.96,-0.73 -0.1,-0.38 0.07,-0.81 0.42,-0.99 0.17,-0.09 0.39,-0.12 0.6,-0.13 1.14,-0.01 2.29,0 3.43,0z"/>
   <path class="fil0" d="M46.48 60.39l3.46 0c0.58,0 0.99,0.38 1,0.91 0.01,0.54 -0.41,0.94 -1,0.95l-6.9 0c-0.54,-0.01 -0.91,-0.3 -0.99,-0.8 -0.08,-0.42 0.18,-0.86 0.6,-1 0.14,-0.04 0.29,-0.05 0.44,-0.05l3.4 0z"/>
   <path class="fil0" d="M46.48 57.27c-1.15,0 -2.31,0.01 -3.47,0 -0.7,-0.01 -1.13,-0.57 -0.94,-1.19 0.11,-0.36 0.35,-0.58 0.73,-0.63 0.13,-0.02 0.27,-0.02 0.41,-0.02l6.49 0 0.11 0c0.7,0.01 1.12,0.36 1.12,0.93 0,0.57 -0.42,0.92 -1.12,0.92l-3.33 0z"/>
   <path class="fil0" d="M46.4 62.88l2.19 0c0.41,0 0.54,0.2 0.39,0.57 -0.14,0.32 -0.29,0.64 -0.43,0.97 -0.08,0.22 -0.22,0.32 -0.47,0.31 -1.14,-0 -2.29,-0 -3.43,0 -0.24,0.01 -0.38,-0.09 -0.47,-0.31 -0.13,-0.32 -0.27,-0.63 -0.4,-0.94 -0.18,-0.42 -0.05,-0.6 0.41,-0.6l2.2 0z"/>
   <path class="fil0" d="M68.63 99.63c-6.01,3.07 -12.81,4.8 -20.01,4.8 -4.62,0 -9.07,-0.71 -13.25,-2.03 -1.44,-0.45 -2.86,-0.98 -4.24,-1.59 -1.14,1.14 -2.28,2.29 -3.39,3.45 1.31,0.63 2.66,1.2 4.03,1.71 5.25,1.94 10.93,3 16.86,3 8.03,0 15.62,-1.95 22.3,-5.41 1.22,-0.63 2.4,-1.31 3.55,-2.03 -0.74,-1.34 -1.5,-2.66 -2.28,-3.94 -1.16,0.73 -2.34,1.41 -3.56,2.03zm-12.23 -87.25c-1.57,-0.26 -3.15,-0.44 -4.77,-0.53 0.69,1.46 1.44,3.06 2.22,4.77 1.68,0.2 3.31,0.49 4.92,0.87 19.44,4.59 33.9,22.05 33.9,42.89 0,10.54 -3.69,20.21 -9.86,27.78 -1.08,1.32 -2.22,2.59 -3.45,3.77 0.33,1.77 0.67,3.53 0.99,5.26 1.23,-1.06 2.41,-2.19 3.54,-3.38 8.26,-8.71 13.33,-20.48 13.33,-33.44 0,-24.19 -17.68,-44.26 -40.82,-47.99zm-19.17 0.72c-21.35,5.12 -37.23,24.34 -37.23,47.27 0,10.77 3.5,20.72 9.42,28.77 1.04,1.42 2.17,2.78 3.35,4.07 0.39,-1.89 0.78,-3.76 1.17,-5.64 -1.16,-1.49 -2.23,-3.04 -3.2,-4.67 -3.94,-6.59 -6.2,-14.3 -6.2,-22.54 0,-19.33 12.45,-35.75 29.76,-41.69 1.75,-0.6 3.55,-1.1 5.39,-1.47 0.95,-1.8 1.84,-3.5 2.67,-5.05 -1.74,0.23 -3.45,0.54 -5.14,0.94z"/>
   <path class="fil0" d="M58.65 84.24c-7.33,-1.01 -17.8,6.96 -27.53,16.58 1.38,0.6 2.8,1.13 4.24,1.59 9.35,-9 17.16,-14.15 21.99,-14.15 0.26,0 0.5,0.01 0.74,0.05 0.87,0.11 4.16,1.22 9.91,10.33 0.22,0.33 0.42,0.66 0.63,1 1.22,-0.62 2.4,-1.3 3.56,-2.03 -4.28,-7 -9.07,-12.74 -13.54,-13.36zm-24.34 -65.56c-6.43,12.37 -14.06,27.81 -16.67,36.02 -1.94,6.11 -4.43,16.73 -6.89,28.21 0.97,1.63 2.04,3.18 3.2,4.66 2.69,-12.73 5.5,-25 7.61,-31.63 2.76,-8.71 11.58,-26.21 18.15,-38.74 -1.84,0.38 -3.64,0.87 -5.39,1.47zm47.44 97.87c-1.89,-4.37 -4.41,-9.83 -7.28,-15.01 -0.74,-1.34 -1.5,-2.66 -2.28,-3.94 -4.28,-7 -9.07,-12.74 -13.54,-13.36 -7.33,-1.01 -17.8,6.96 -27.53,16.58 -1.15,1.14 -2.28,2.29 -3.4,3.45 -8.42,8.8 -15.9,18.23 -19.7,23.2 -0.67,0.87 -2.04,0.25 -1.84,-0.82 1.24,-6.6 3.77,-19.85 6.58,-33.45 0.39,-1.88 0.78,-3.76 1.17,-5.64 2.69,-12.73 5.5,-25 7.61,-31.63 2.76,-8.71 11.58,-26.21 18.15,-38.74 0.94,-1.8 1.84,-3.5 2.67,-5.05 1.74,-3.27 3.16,-5.9 4.04,-7.52 0.4,-0.75 1.48,-0.72 1.84,0.05 0.75,1.57 1.93,4.06 3.38,7.16 0.69,1.46 1.43,3.06 2.22,4.77 6.23,13.42 15.13,33.15 18.15,42.57 2.15,6.71 4.92,19.9 7.37,32.73 0.33,1.77 0.67,3.53 0.99,5.26 1.31,7.07 2.49,13.72 3.36,18.78 0.21,1.21 -1.48,1.71 -1.97,0.59zm6.01 -1.28c-1.03,-5.96 -2.39,-13.59 -3.87,-21.46 -0.35,-1.88 -0.71,-3.77 -1.07,-5.66 -2.35,-12.07 -4.89,-23.88 -6.91,-30.21 -2.9,-9.04 -10.91,-26.97 -17.14,-40.46 -0.83,-1.79 -1.62,-3.5 -2.37,-5.1 -1.86,-3.98 -3.42,-7.3 -4.45,-9.45 -0.86,-1.81 -2.63,-2.93 -4.63,-2.93 -1.88,0 -3.61,1.03 -4.51,2.69 -1.25,2.29 -3.24,5.98 -5.58,10.41 -0.92,1.76 -1.9,3.63 -2.92,5.58 -6.43,12.37 -14.06,27.81 -16.67,36.02 -1.94,6.11 -4.43,16.73 -6.89,28.21 -0.44,2.06 -0.89,4.15 -1.32,6.23 -2.93,14.05 -5.68,28.4 -7.26,36.76 -0.29,1.51 0.11,3.05 1.08,4.22 0.99,1.19 2.43,1.87 3.97,1.87 1.61,0 3.08,-0.73 4.06,-2.01 7.14,-9.34 14.11,-17.45 20.48,-23.98 1.22,-1.25 2.42,-2.45 3.6,-3.58 9.35,-9 17.16,-14.15 21.99,-14.15 0.26,0 0.5,0.01 0.74,0.05 0.87,0.11 4.16,1.22 9.91,10.33 0.22,0.33 0.42,0.66 0.63,1 0.78,1.28 1.54,2.6 2.28,3.94 2.83,5.14 5.32,10.55 7.08,14.6 0.41,0.95 1.07,1.72 1.89,2.26 0.81,0.54 1.78,0.85 2.8,0.85 1.53,0 2.98,-0.67 3.96,-1.84 0.97,-1.15 1.37,-2.67 1.12,-4.17zm-53.44 -96.58c-6.43,12.37 -14.06,27.81 -16.67,36.02 -1.94,6.11 -4.43,16.73 -6.89,28.21 0.97,1.63 2.04,3.18 3.2,4.66 2.69,-12.73 5.5,-25 7.61,-31.63 2.76,-8.71 11.58,-26.21 18.15,-38.74 -1.84,0.38 -3.64,0.87 -5.39,1.47zm24.34 65.56c-7.33,-1.01 -17.8,6.96 -27.53,16.58 1.38,0.6 2.8,1.13 4.24,1.59 9.35,-9 17.16,-14.15 21.99,-14.15 0.26,0 0.5,0.01 0.74,0.05 0.87,0.11 4.16,1.22 9.91,10.33 0.22,0.33 0.42,0.66 0.63,1 1.22,-0.62 2.4,-1.3 3.56,-2.03 -4.28,-7 -9.07,-12.74 -13.54,-13.36z"/>
   <polygon class="fil0" points="21.04,152.75 12,148.59 12,147.24 21.04,142.52 21.04,144.8 14.94,147.81 21.04,150.48 "/>
   <polygon class="fil0" points="23.84,154.68 28.78,143.28 22.4,143.28 22.4,140.82 31.97,140.82 31.97,142.66 26.91,154.68 "/>
   <polygon class="fil0" points="34.34,154.68 34.34,140.8 37.28,140.8 37.28,152.25 42.33,152.25 42.33,154.68 "/>
   <path class="fil0" d="M49.83 149.76l-0.96 0.04c-0.39,0.01 -0.71,0.06 -0.98,0.15 -0.27,0.09 -0.48,0.21 -0.64,0.36 -0.16,0.15 -0.28,0.33 -0.35,0.53 -0.07,0.21 -0.11,0.44 -0.11,0.69 0,0.44 0.11,0.76 0.32,0.95 0.22,0.19 0.5,0.28 0.84,0.28 0.27,0 0.51,-0.05 0.74,-0.14 0.23,-0.09 0.43,-0.23 0.59,-0.41 0.17,-0.18 0.3,-0.4 0.39,-0.66 0.1,-0.26 0.14,-0.57 0.14,-0.91l0 -0.88zm0.86 4.92l-0.56 -1.44 -0.08 0c-0.21,0.29 -0.42,0.53 -0.63,0.74 -0.21,0.21 -0.44,0.37 -0.69,0.51 -0.25,0.13 -0.52,0.23 -0.83,0.3 -0.31,0.06 -0.66,0.09 -1.07,0.09 -0.43,0 -0.83,-0.07 -1.2,-0.21 -0.37,-0.13 -0.69,-0.34 -0.96,-0.62 -0.27,-0.27 -0.48,-0.62 -0.63,-1.04 -0.15,-0.42 -0.23,-0.92 -0.23,-1.5 0,-1.13 0.36,-1.96 1.08,-2.49 0.72,-0.53 1.8,-0.83 3.24,-0.89l1.69 -0.06 0 -0.8c0,-0.44 -0.13,-0.76 -0.38,-0.97 -0.25,-0.21 -0.61,-0.31 -1.06,-0.31 -0.46,0 -0.9,0.07 -1.33,0.2 -0.43,0.13 -0.87,0.31 -1.31,0.53l-0.94 -1.92c0.53,-0.3 1.12,-0.53 1.77,-0.7 0.65,-0.17 1.32,-0.26 2.03,-0.26 1.32,0 2.34,0.31 3.04,0.93 0.71,0.62 1.06,1.56 1.06,2.83l0 7.08 -2.02 0z"/>
   <path class="fil0" d="M60.37 146.18c-0.32,0 -0.6,0.06 -0.82,0.18 -0.22,0.12 -0.4,0.29 -0.55,0.53 -0.14,0.23 -0.24,0.53 -0.3,0.89 -0.06,0.36 -0.1,0.77 -0.11,1.25l0 0.31c0,0.51 0.03,0.97 0.09,1.37 0.06,0.4 0.16,0.73 0.3,1 0.14,0.27 0.33,0.47 0.56,0.61 0.23,0.14 0.52,0.21 0.86,0.21 0.58,0 1,-0.27 1.27,-0.82 0.27,-0.55 0.4,-1.34 0.4,-2.39 0,-1.04 -0.14,-1.83 -0.4,-2.35 -0.27,-0.52 -0.7,-0.78 -1.29,-0.78zm0.98 -2.32c0.55,0 1.04,0.12 1.49,0.35 0.45,0.23 0.84,0.58 1.16,1.04 0.32,0.46 0.57,1.04 0.75,1.72 0.18,0.68 0.27,1.47 0.27,2.37 0,0.91 -0.09,1.71 -0.27,2.4 -0.18,0.69 -0.43,1.26 -0.76,1.72 -0.33,0.46 -0.72,0.81 -1.19,1.04 -0.46,0.23 -0.97,0.35 -1.53,0.35 -0.36,0 -0.67,-0.04 -0.95,-0.11 -0.28,-0.07 -0.52,-0.18 -0.74,-0.3 -0.22,-0.13 -0.4,-0.27 -0.56,-0.43 -0.16,-0.16 -0.31,-0.33 -0.44,-0.51l-0.2 0 -0.49 1.17 -2.21 0 0 -14.78 2.9 0 0 3.44c0,0.21 -0.01,0.44 -0.02,0.68 -0.01,0.24 -0.03,0.47 -0.04,0.68l-0.06 0.74 0.11 0c0.13,-0.22 0.29,-0.43 0.46,-0.62 0.17,-0.19 0.37,-0.36 0.59,-0.5 0.22,-0.14 0.48,-0.26 0.76,-0.34 0.29,-0.08 0.6,-0.12 0.95,-0.12z"/>
   <path class="fil0" d="M74.58 151.53c0,0.56 -0.1,1.04 -0.3,1.46 -0.2,0.42 -0.49,0.77 -0.86,1.05 -0.37,0.28 -0.83,0.49 -1.36,0.63 -0.53,0.14 -1.13,0.21 -1.79,0.21 -0.35,0 -0.67,-0.01 -0.97,-0.03 -0.3,-0.02 -0.58,-0.06 -0.84,-0.11 -0.27,-0.05 -0.52,-0.11 -0.77,-0.19 -0.25,-0.07 -0.5,-0.17 -0.75,-0.29l0 -2.39c0.27,0.13 0.55,0.25 0.84,0.36 0.29,0.11 0.59,0.2 0.88,0.28 0.29,0.08 0.58,0.14 0.85,0.18 0.28,0.04 0.53,0.07 0.77,0.07 0.26,0 0.48,-0.02 0.66,-0.07 0.18,-0.05 0.33,-0.11 0.45,-0.2 0.12,-0.09 0.2,-0.19 0.26,-0.3 0.05,-0.12 0.08,-0.24 0.08,-0.37 0,-0.13 -0.02,-0.25 -0.06,-0.36 -0.04,-0.11 -0.14,-0.22 -0.28,-0.33 -0.15,-0.12 -0.36,-0.25 -0.64,-0.4 -0.28,-0.15 -0.66,-0.33 -1.13,-0.55 -0.46,-0.21 -0.86,-0.42 -1.2,-0.62 -0.34,-0.21 -0.62,-0.44 -0.84,-0.69 -0.22,-0.25 -0.38,-0.54 -0.49,-0.87 -0.11,-0.33 -0.16,-0.71 -0.16,-1.16 0,-0.49 0.09,-0.92 0.29,-1.3 0.19,-0.37 0.46,-0.68 0.81,-0.93 0.35,-0.25 0.77,-0.43 1.26,-0.56 0.49,-0.12 1.04,-0.18 1.64,-0.18 0.63,0 1.23,0.07 1.8,0.22 0.57,0.15 1.16,0.36 1.76,0.65l-0.88 2.05c-0.48,-0.23 -0.94,-0.42 -1.38,-0.56 -0.44,-0.15 -0.88,-0.22 -1.31,-0.22 -0.39,0 -0.68,0.07 -0.85,0.21 -0.18,0.14 -0.26,0.33 -0.26,0.57 0,0.13 0.02,0.24 0.07,0.34 0.04,0.1 0.13,0.2 0.26,0.3 0.13,0.1 0.32,0.22 0.56,0.34 0.24,0.12 0.55,0.27 0.94,0.45 0.45,0.2 0.85,0.39 1.22,0.58 0.36,0.19 0.67,0.41 0.93,0.66 0.26,0.25 0.46,0.54 0.6,0.86 0.14,0.33 0.21,0.73 0.21,1.2z"/>
   <polygon class="fil0" points="76.18,150.48 82.29,147.81 76.18,144.8 76.18,142.53 85.22,147.24 85.22,148.59 76.18,152.75 "/>
  </g>
 </g>
</svg>
