<?xml version="1.0" encoding="UTF-8"?>
<!DOCTYPE svg PUBLIC "-//W3C//DTD SVG 1.1//EN" "http://www.w3.org/Graphics/SVG/1.1/DTD/svg11.dtd">
<!-- Creator: CorelDRAW 2018 (64 Bit Versão de avaliação) -->
<svg xmlns="http://www.w3.org/2000/svg" xml:space="preserve" width="49.1176mm" height="51.9612mm" version="1.1" style="shape-rendering:geometricPrecision; text-rendering:geometricPrecision; image-rendering:optimizeQuality; fill-rule:evenodd; clip-rule:evenodd"
viewBox="0 0 4911.76 5196.12"
 xmlns:xlink="http://www.w3.org/1999/xlink">
 <defs>
  <style type="text/css">
   <![CDATA[
    .fil2 {fill:#FF6A00}
    .fil0 {fill:#FEFEFE;fill-rule:nonzero}
    .fil1 {fill:#FF6A00;fill-rule:nonzero}
   ]]>
  </style>
 </defs>
 <g id="Camada_x0020_1">
  <metadata id="CorelCorpID_0Corel-Layer"/>
  <g id="_2494902777376">
   <path class="fil0" d="M1759.46 2382.03l-711.8 -1557.54 -0.37 1.8 -174.94 -403.55 86.13 -422.74 800.98 1805.86 801 -1805.86 190.14 997.31 -185 373.66 -97.53 -546.48 -708.61 1557.54zm-742.72 -1402.2l-342.13 1718.75 -2.41 0 -179.01 -414.75 340.76 -1672.6 182.79 368.6z"/>
   <path class="fil1" d="M4406.04 2052.58c0,105.06 -85.16,190.2 -190.21,190.2 -78.21,0 -145.38,-47.19 -174.61,-114.64 32.37,26.3 73.64,42.06 118.58,42.06 103.94,0 188.2,-84.25 188.2,-188.17 0,-29.49 -6.79,-57.39 -18.88,-82.23 46.66,34.65 76.92,90.19 76.92,152.78z"/>
   <path class="fil1" d="M2552.52 2052.58c0,105.06 -85.15,190.2 -190.21,190.2 -78.2,0 -145.38,-47.19 -174.6,-114.64 32.37,26.3 73.64,42.06 118.58,42.06 103.93,0 188.2,-84.25 188.2,-188.17 0,-29.49 -6.79,-57.39 -18.89,-82.23 46.67,34.65 76.92,90.19 76.92,152.78z"/>
   <circle class="fil2" cx="3287.74" cy="314.56" r="204.17"/>
   <polygon class="fil2" points="4144.16,2209.85 4032.41,2128.89 3294.02,2573.55 3321,2583.33 "/>
   <path class="fil2" d="M3093.23 2530.64c-2.38,-6.75 18.05,-106.99 28.14,-117.77l-751.26 -341.59 15.72 24.31 707.4 435.05z"/>
   <circle class="fil2" cx="4214.5" cy="2071.29" r="204.17"/>
   <circle class="fil2" cx="3280.23" cy="2507.77" r="204.17"/>
   <circle class="fil2" cx="2360.98" cy="2071.29" r="204.17"/>
   <polygon class="fil2" points="3287.74,477.9 3411.18,403.44 4249.89,2097.54 4226.52,2093.2 "/>
   <polygon class="fil2" points="3287.75,477.9 3164.31,403.44 2325.6,2097.54 2348.96,2093.2 "/>
   <path class="fil1" d="M3071.81 1458.02c-15.79,-47.18 -14.07,-98.58 5.78,-146.06l6.27 -15.03 16.18 1.76c28.1,3.05 54.58,11.46 78.35,24.5 -4.96,19.17 -7.47,39.16 -7.34,59.61 0.22,31.9 6.86,62.64 19.19,90.76 -3.29,7.51 -6.18,15.18 -8.64,23.02 -32.52,-22.06 -70.1,-35.35 -109.79,-38.56z"/>
   <path class="fil1" d="M3400.98 1324.31c24.12,-13.87 51.19,-22.91 80.02,-26.33l16.18 -1.93 6.4 14.98c20.35,47.47 22.54,99.02 7.02,146.53 -41.05,2.11 -80.08,14.93 -113.84,37.08 -2.21,-6.67 -4.72,-13.23 -7.53,-19.64 12.74,-29.07 19.39,-60.87 19.16,-93.83 -0.12,-19.5 -2.65,-38.56 -7.41,-56.86z"/>
   <path class="fil1" d="M3288.74 1232.58c45.79,33.76 75.7,87.67 76.15,148.92 0.11,15.31 -1.64,30.2 -5.04,44.46l-0.61 -0.77 -0.6 -0.76 -0.61 -0.76 -0.61 -0.76 -0.62 -0.75 -0.53 -0.66 -0.09 -0.09 -0.62 -0.75 -0.63 -0.75 -0.62 -0.74 -0.19 -0.23 -1.09 -1.25 -0.63 -0.74 -0.46 -0.53 -0.19 -0.21 -0.64 -0.73 -0.66 -0.73 -0.65 -0.73 -0.08 -0.1 -0.57 -0.63 -0.67 -0.72 -0.66 -0.71 -0.67 -0.72 -0.67 -0.72 -0.67 -0.71 -0.65 -0.7 -0.02 -0.02 -0.68 -0.7 -0.69 -0.71 -0.69 -0.7 -0.26 -0.28 -0.42 -0.42 -0.7 -0.7 -0.69 -0.7 -0.56 -0.56 -0.14 -0.13 -0.71 -0.69 -0.7 -0.68 -0.71 -0.69 -0.16 -0.16 -0.55 -0.52 -0.72 -0.68 -0.72 -0.68 -0.46 -0.44 -0.26 -0.23 -0.73 -0.67 -0.73 -0.67 -0.73 -0.67 -0.04 -0.04 -0.7 -0.62 -0.73 -0.66 -0.75 -0.67 -0.35 -0.31 -0.39 -0.34 -0.76 -0.65 -0.75 -0.65 -0.68 -0.58 -0.07 -0.07 -0.76 -0.65 -0.76 -0.63 -0.76 -0.64 -0.25 -0.21 -0.52 -0.43 -0.77 -0.63 -0.78 -0.63 -0.58 -0.47 -0.2 -0.16 -0.01 -0.02 -1.55 -1.23 -0.78 -0.62 -0.14 -0.1 -0.66 -0.51 -0.79 -0.61 -0.8 -0.62 -0.46 -0.35 -0.34 -0.26 -0.8 -0.6 -1.61 -1.2 -26.19 -19.34 0 0 -25.95 19.67 -2.28 1.75 -0.45 0.35 -0.3 0.23 -1.5 1.19 -0.74 0.59 -0.15 0.12 -0.6 0.48 -0.73 0.6 -0.74 0.6 -0.59 0.48 -0.14 0.13 -0.72 0.6 -0.73 0.61 -0.73 0.62 -0.29 0.24 -0.43 0.37 -0.72 0.62 -0.71 0.62 -0.71 0.62 -2.12 1.88 -0.42 0.38 -0.28 0.25 -0.7 0.64 -0.69 0.64 -0.69 0.63 -0.14 0.13 -0.55 0.52 -1.36 1.28 -0.01 0.01 -0.54 0.51 -0.13 0.13 -0.68 0.66 -0.68 0.65 -0.67 0.65 -0.26 0.27 -0.4 0.39 -0.07 0.07 -1.26 1.26 -0.66 0.66 0 0 -0.66 0.67 -0.65 0.67 -0.65 0.67 -0.39 0.4 -0.25 0.27 -0.65 0.68 -0.63 0.67 -0.64 0.69 -0.13 0.13 -0.51 0.55 -0.63 0.69 -0.62 0.68 -0.51 0.56 -0.12 0.13 -0.62 0.69 -0.62 0.7 -0.62 0.69 -0.25 0.28 -0.36 0.42 -0.61 0.7 -0.61 0.7 -0.6 0.71 -0.6 0.71 -0.6 0.71 -0.59 0.71 -0.36 0.43 -0.24 0.28 -0.58 0.72 -0.59 0.71 -0.58 0.72 -0.12 0.15 -0.46 0.58 -0.58 0.72 -0.57 0.73c-3.21,-13.46 -4.94,-27.49 -5.04,-41.92 -0.41,-61.25 28.78,-115.57 74.1,-149.93z"/>
   <path class="fil1" d="M3172.08 1543.87c-0.73,7.75 -1.08,15.59 -1.03,23.5 0.23,33.05 7.34,64.84 20.52,93.77 -3.84,8.43 -7.17,17.12 -9.96,25.99l-1.77 -1.19 -1.78 -1.17 -1.79 -1.15 -0.67 -0.43 -1.13 -0.71 -1.25 -0.78 -0.56 -0.34c-2.42,-1.48 -4.86,-2.91 -7.33,-4.3l-1.78 -1 -0.08 -0.03 -1.86 -1.01c-3.73,-2.01 -7.52,-3.92 -11.36,-5.72l-1.68 -0.78 -0.25 -0.1 -3.87 -1.72 -0.98 -0.43 -0.97 -0.41 -1.6 -0.68 -0.35 -0.14 -1.97 -0.79 -0.27 -0.12 -1.7 -0.66 -1.97 -0.76 -1.55 -0.59 -0.44 -0.15 -1.99 -0.72 -0.19 -0.08 -1.81 -0.63 -0.83 -0.29 -1.17 -0.4 -0.22 -0.07c-1.94,-0.66 -3.89,-1.28 -5.85,-1.87l-0.75 -0.24 -1.28 -0.38 -1.4 -0.41 -0.64 -0.18 -2.05 -0.57 0 -0.01 -2.05 -0.55 -0.67 -0.18 -1.39 -0.36 -1.32 -0.33 -0.74 -0.18 -1.99 -0.48 -0.09 -0.02 -2.07 -0.49 -0.58 -0.13 -1.51 -0.32 -2.06 -0.44 -0.02 -0.01 -1.91 -0.39 -0.18 -0.03 -2.11 -0.4 -4.21 -0.75 -1.83 -0.31 -0.28 -0.04 -2.13 -0.32 -0.39 -0.06 -1.73 -0.25 -1.07 -0.15 -1.06 -0.14 -1.75 -0.22 -0.38 -0.04 -2.14 -0.25 -0.29 -0.03 -1.86 -0.2 -0.97 -0.1 -1.18 -0.11 -1.66 -0.15 -0.49 -0.04 -2.15 -0.17 -0.19 -0.01 -2.86 -0.19 -0.96 -0.06c-34.37,-41.65 -47.75,-94.77 -40.4,-145.45 8.96,-1.29 17.94,-1.94 27.03,-1.94 42.39,0 84.78,14.3 119.25,43.04z"/>
   <path class="fil1" d="M3509.3 1648.22l-3.57 0.23 -0.24 0.02 -1.86 0.14 -0.98 0.08 -1.12 0.1 -1.72 0.16 -0.37 0.04 -2.09 0.22 -0.36 0.04 -1.73 0.19 -1.09 0.13 -0.99 0.12 -1.82 0.24 -0.26 0.04 -2.06 0.29 -0.48 0.07 -1.59 0.24 -1.21 0.18 -0.86 0.14 -1.92 0.33 -0.14 0.02 -2.05 0.36 -0.58 0.11 -1.47 0.28 -1.3 0.25 -0.74 0.15 -2.02 0.41 -0.02 0.01 -2.03 0.44 -1.8 0.41 -0.23 0.05 -1.41 0.33 -0.61 0.14 -2.01 0.49 -0.11 0.03 -0.34 0.08 -2.37 0.61 -1.2 0.32 -1.51 0.41 -0.49 0.13 -1.99 0.56 -0.22 0.07 -1.77 0.52 -0.92 0.27 -1.06 0.33 -0.52 0.16 -1.45 0.46 -1.97 0.63 -1.27 0.42 -0.7 0.23 -1.01 0.35 -0.94 0.32 -1.7 0.6 -0.25 0.09 -1.95 0.71 -0.43 0.15 -1.5 0.57 -1.11 0.42 -0.82 0.32 -1.78 0.7 -0.14 0.06 -1.91 0.77 -0.53 0.22 -1.38 0.57 -1.2 0.52 -0.7 0.29 -1.87 0.82 -0.02 0.01 -1.89 0.85 -0.64 0.28 -1.24 0.58 -1.29 0.6 -0.57 0.28 -1.87 0.89 -0.08 0.04 -1.77 0.88 -1.78 0.89 -0.06 0.04 -1.37 0.7 -0.47 0.25 -1.83 0.96 -0.19 0.1 -1.63 0.88 -0.82 0.45 -0.99 0.55 -1.46 0.81 -0.35 0.2 -1.79 1.04 -0.28 0.15 -1.51 0.9 -0.91 0.53 -0.87 0.53 -1.53 0.93 -0.24 0.15 -1.76 1.1 -0.38 0.24 -1.36 0.87 -0.99 0.64 -0.76 0.5c-2.55,-7.71 -5.51,-15.25 -8.86,-22.61 13.61,-29.85 20.73,-62.7 20.49,-96.79 -0.05,-8.35 -0.55,-16.61 -1.46,-24.77 33.79,-26.84 74.72,-40.2 115.74,-40.2 9.03,0 18.08,0.65 27.04,1.94 7.31,50.67 -6.05,103.79 -40.41,145.45zm-150.59 -33.16c-1.68,-2.1 -3.39,-4.18 -5.15,-6.22 2.94,-6.37 6.26,-12.6 9.95,-18.67 -1.04,8.48 -2.65,16.79 -4.8,24.89z"/>
   <path class="fil1" d="M3358.71 1615.06c-12.57,-15.75 -27.34,-29.99 -44.12,-42.36l-26.19 -19.34 0 0 -25.95 19.66c-15.77,11.95 -29.68,25.56 -41.63,40.51l-0.18 -0.69 -0.18 -0.7 -0.17 -0.7 -0.01 -0.01 -0.17 -0.69 -0.17 -0.7 -0.17 -0.7 -0.15 -0.58 -0.02 -0.12 -0.17 -0.7 -0.15 -0.71 -0.47 -2.12 -0.15 -0.7 -0.15 -0.71 -0.08 -0.32 -0.07 -0.39 -0.14 -0.71 -0.14 -0.72 -0.27 -1.43 -0.14 -0.71 -0.25 -1.43 -0.02 -0.06 -0.11 -0.66 -0.11 -0.72 -0.13 -0.72 -0.1 -0.64 -0.01 -0.08 -0.11 -0.72 -0.12 -0.72 -0.1 -0.72 -0.08 -0.52 -0.02 -0.21 -0.11 -0.73 -0.1 -0.73 -0.09 -0.72 -0.18 -1.46 -0.09 -0.73 -0.09 -0.72 -0.03 -0.24 -0.05 -0.5 -0.08 -0.73 -0.08 -0.73 -0.07 -0.74 -0.02 -0.1 -0.06 -0.64 -0.06 -0.73 -0.07 -0.74 -0.06 -0.69 0 -0.04 -0.06 -0.74 -0.05 -0.75 -0.06 -0.73 -0.04 -0.56 -0.01 -0.19 -0.05 -0.73 -0.04 -0.75 -0.04 -0.74 -0.03 -0.42 -0.01 -0.32 -0.04 -0.75 -0.04 -0.74 -0.02 -0.76 -0.02 -0.28 -0.01 -0.46 -0.03 -0.74 -0.02 -0.76 -0.02 -0.75 0 -0.14 -0.01 -0.6 -0.02 -0.76 0 -0.75 -0.01 -0.75c-0.41,-61.19 28.78,-115.57 74.1,-149.9 45.79,33.72 75.7,87.69 76.15,148.94l0 0.79 0 1.58 0 0.49 -0.01 0.31 0 0.79 -0.01 0.79 -0.02 0.78 -0.01 0.18 -0.01 0.62 -0.02 0.78 -0.03 0.79 -0.02 0.66 -0.01 0.12 -0.03 0.79 -0.04 0.78 -0.04 0.78 -0.01 0.36 -0.03 0.42 -0.05 0.78 -0.05 0.78 -0.05 0.78 0 0.06 -0.05 0.73 -0.06 0.77 -0.06 0.77 -0.04 0.54 -0.03 0.24 -0.06 0.78 -0.08 0.77 -0.07 0.77 -0.02 0.23 -0.06 0.54 -0.08 0.78 -0.08 0.77 -0.08 0.7 0 0.07 -0.1 0.77 -0.09 0.76 -0.1 0.77 -0.04 0.4 -0.05 0.37 -0.11 0.76 -0.1 0.76 -0.12 0.76 -0.01 0.11 -0.09 0.66 -0.12 0.75 -0.12 0.76 -0.24 1.52 -0.13 0.75 -0.13 0.76 -0.04 0.28 -0.09 0.48 -0.14 0.75 -0.14 0.75 -0.29 1.5 -0.14 0.75 -0.15 0.75 -0.32 1.49 -0.15 0.75 -0.34 1.48 -0.17 0.74 -0.52 2.22 -0.18 0.73 -0.18 0.74 -0.19 0.74 -0.19 0.72 -0.19 0.74z"/>
   <path class="fil1" d="M3172.08 1734.46c-0.73,7.74 -1.08,15.56 -1.03,23.46 0.39,54.83 19.93,106.69 55.37,147.92 -5.44,0.47 -10.91,0.71 -16.37,0.71 -47.66,0 -95.33,-18.07 -131.76,-54.47 -43.27,-43.31 -60.65,-102.52 -52.49,-158.75 8.96,-1.29 17.94,-1.94 27.03,-1.94 42.39,0 84.78,14.27 119.25,43.07z"/>
   <path class="fil1" d="M3354.08 1906.21c35.51,-41.9 54.69,-94.49 54.31,-149.86 -0.05,-8.34 -0.55,-16.6 -1.46,-24.74 33.8,-26.9 74.72,-40.22 115.74,-40.22 9.03,0 18.08,0.65 27.04,1.94 8.11,56.23 -9.23,115.44 -52.5,158.75 -36.44,36.4 -84.1,54.47 -131.76,54.47 -3.8,0 -7.59,-0.11 -11.37,-0.34zm9.41 -125.46c-3.28,26.68 -12.23,51.62 -25.58,73.58 3.19,-25.69 11.71,-50.8 25.58,-73.58z"/>
   <path class="fil1" d="M3288.74 1607.75c45.79,33.7 75.7,87.67 76.15,148.86 0.34,51.23 -20.11,97.65 -53.26,131.58 -5.7,5.8 -13.43,8.72 -21.14,8.72 -7.61,0 -15.17,-2.77 -20.87,-8.43 -33.6,-33.48 -54.66,-79.6 -54.98,-130.83 -0.41,-61.21 28.78,-115.58 74.1,-149.9z"/>
   <path class="fil1" d="M3286.7 2118.25c-21.4,0 -38.72,-14.11 -38.72,-31.51l0 -115.65c0,-17.46 17.32,-31.57 38.72,-31.57 21.47,0 38.82,14.11 38.82,31.57l0 115.65c0,17.4 -17.35,31.51 -38.82,31.51z"/>
   <path class="fil0" d="M322.69 3747.92l-206.19 0 0 -138.05 186.97 0 0 -51.25 -186.97 0 0 -126.4 202.7 0 0 -51.26 -249.88 0 0 418.22 253.37 0 0 -51.26zm356.04 -27.37l-172.99 -339.59 -54.76 0 0 418.22 44.85 0 0 -339.59 175.91 339.59 51.84 0 0 -418.22 -44.85 0 0 339.59zm335.07 -96.7l106.59 0c0,12.33 -0.58,23.3 -1.74,32.82 -1.17,9.41 -2.72,18.05 -4.66,25.72 -1.94,7.77 -4.66,14.86 -8.16,21.17 -3.49,6.4 -7.57,12.71 -12.23,18.93 -19.8,25.92 -46.21,38.83 -79.22,38.83 -38.25,0 -67.18,-14.17 -86.88,-42.43 -19.71,-28.25 -29.61,-69.99 -29.61,-125.33 0,-26.69 2.72,-50.67 8.15,-72.03 5.44,-21.26 13.11,-39.32 23.01,-54.27 9.9,-14.85 21.94,-26.31 36.11,-34.17 14.18,-7.96 30,-11.94 47.48,-11.94 24.85,0 46.01,6.99 63.49,20.97 4.66,3.88 8.83,7.86 12.52,11.94 3.69,4.08 6.99,8.74 9.9,13.98 2.91,5.24 5.44,11.16 7.57,17.77 2.14,6.6 4.37,14.17 6.7,22.71l44.85 0c-1.16,-7.76 -2.33,-14.66 -3.49,-20.68 -1.17,-6.01 -2.53,-11.55 -4.08,-16.6 -1.55,-5.04 -3.4,-9.8 -5.53,-14.27 -2.14,-4.46 -4.56,-9.22 -7.28,-14.27 -12.82,-22.62 -30.29,-40.38 -52.43,-53.39 -22.13,-12.91 -46.4,-19.42 -72.81,-19.42 -24.07,0 -46.11,5.44 -66.11,16.31 -20,10.87 -36.99,26.21 -51.06,46.02 -14.08,19.8 -24.95,43.49 -32.62,71.06 -7.67,27.57 -11.55,58.25 -11.55,92.03 0,36.12 4.37,67.57 13.1,94.36 8.74,26.8 22.43,51.26 41.07,73.4 13.59,16.31 28.64,28.25 45.14,35.82 16.5,7.57 35.63,11.36 57.37,11.36 26.02,0 49.9,-6.6 71.65,-19.81 8.93,-5.92 16.5,-11.94 22.72,-18.15 6.21,-6.21 13.39,-15.34 21.55,-27.47l10.48 54.36 30.29 0 0 -224.25 -150.28 0 0 48.92zm548.83 124.07l-206.19 0 0 -138.05 186.97 0 0 -51.25 -186.97 0 0 -126.4 202.7 0 0 -51.26 -249.88 0 0 418.22 253.37 0 0 -51.26zm356.04 -27.37l-172.99 -339.59 -54.76 0 0 418.22 44.85 0 0 -339.59 175.91 339.59 51.84 0 0 -418.22 -44.85 0 0 339.59zm411.38 -167.18l-178.24 0 0 -172.41 -47.18 0 0 418.22 47.18 0 0 -194.55 178.24 0 0 194.55 47.18 0 0 -418.22 -47.18 0 0 172.41zm378.75 124.07l33.78 121.74 50.68 0 -124.07 -418.22 -53 0 -128.73 418.22 47.76 0 36.11 -121.74 137.47 0zm-123.49 -51.26l55.34 -185.23 51.26 185.23 -106.6 0zm371.77 -6.4l112.03 0c21.65,0 37.08,5.72 46.21,17.18 9.03,11.45 13.98,30.58 14.76,57.37 0,11.26 0.19,22.23 0.58,32.91 0.39,10.68 0.97,20.68 1.75,30 0.77,9.32 1.55,17.57 2.33,24.76 0.77,7.18 1.74,12.91 2.91,17.18l57.08 0 0 -9.32c-3.49,-2.33 -6.31,-4.66 -8.44,-6.99 -2.14,-2.33 -3.79,-5.05 -4.96,-8.15 -1.16,-3.11 -2.03,-6.7 -2.62,-10.78 -0.58,-4.08 -1.06,-9.42 -1.45,-16.02l-2.33 -75.72c-0.78,-12.04 -1.94,-22.23 -3.5,-30.58 -1.55,-8.35 -3.88,-15.53 -6.99,-21.55 -3.1,-6.02 -7.18,-11.07 -12.23,-15.15 -5.05,-4.07 -11.26,-7.86 -18.64,-11.36 8.84,-6.6 16.21,-13.3 22.14,-20.09 5.92,-6.8 10.87,-14.08 14.65,-21.84 3.89,-7.77 6.51,-16.31 8.06,-25.63 1.56,-9.32 2.33,-20 2.33,-32.04 0,-37.28 -9.51,-65.43 -28.44,-84.46 -19.03,-19.03 -46.89,-28.54 -83.69,-28.54l-158.72 0 0 418.22 47.18 0 0 -179.4zm0 -189.89l114.94 0c41.07,0 61.55,22.91 61.55,68.73 0,25.05 -5.63,43.3 -16.79,54.85 -11.27,11.55 -28.84,17.38 -52.91,17.38l-106.79 0 0 -140.96zm414.87 -48.93l-47.18 0 0 418.22 47.18 0 0 -418.22zm337.98 296.48l33.78 121.74 50.68 0 -124.07 -418.22 -53 0 -128.73 418.22 47.76 0 36.11 -121.74 137.47 0zm-123.49 -51.26l55.34 -185.23 51.26 185.23 -106.6 0zm586.71 173l137.18 0c22.52,0 42.71,-4.95 60.77,-14.85 17.96,-9.91 33.3,-24.18 45.92,-42.82 12.62,-18.63 22.23,-41.16 29.03,-67.56 6.79,-26.41 10.19,-55.92 10.19,-88.54 0,-31.07 -3.4,-59.22 -10.19,-84.46 -6.8,-25.24 -16.41,-46.7 -29.03,-64.36 -12.62,-17.67 -27.77,-31.36 -45.34,-41.07 -17.67,-9.71 -37.47,-14.56 -59.6,-14.56l-138.93 0 0 418.22zm47.18 -369.29l86.5 0c32.91,0 58.15,13.69 75.82,41.16 17.57,27.47 26.41,67.18 26.41,119.02 0,24.76 -2.33,46.99 -6.99,66.79 -4.66,19.71 -11.17,36.5 -19.71,50.48 -8.54,13.88 -18.93,24.56 -31.06,31.84 -12.24,7.38 -26.02,11.07 -41.55,11.07l-89.42 0 0 -320.36zm622.23 318.03l-206.19 0 0 -138.05 186.97 0 0 -51.25 -186.97 0 0 -126.4 202.7 0 0 -51.26 -249.88 0 0 418.22 253.37 0 0 -51.26z"/>
   <path class="fil0" d="M693.38 4036.3l-193.79 0 -116.05 624.06 -118.24 -624.06 -195.97 0 0 786.09 124.81 0 0 -666.75 119.33 666.75 132.48 0 122.62 -666.75 0 666.75 124.81 0 0 -786.09zm266.04 624.06l237.58 0 41.6 162.03 146.71 0 -227.72 -786.09 -155.47 0 -229.91 786.09 142.33 0 44.88 -162.03zm119.34 -449.98l81.02 315.31 -164.23 0 83.21 -315.31zm666.75 -33.94l194.88 0 0 -140.14 -525.52 0 0 140.14 194.88 0 0 645.95 135.76 0 0 -645.95zm746.68 -140.14l-472.97 0 0 786.09 488.29 0 0 -140.14 -358.01 0 0 -202.54 315.32 0 0 -140.14 -315.32 0 0 -163.13 342.69 0 0 -140.14zm125.9 786.09l130.28 0 0 -306.55 139.78 0c24.27,0 43.43,2.55 57.84,7.66 14.23,5.11 25.18,13.5 32.48,25.18 2.92,5.11 5.48,10.59 7.66,16.42 2.19,5.84 3.84,13.14 4.93,21.9 1.1,8.76 1.83,19.53 2.19,32.3 0.37,12.77 0.55,27.92 0.55,45.43 0,18.98 0.36,35.59 1.09,49.82 0.73,14.23 1.65,27.55 2.74,39.96 1.1,12.41 2.74,24.09 4.56,35.04 1.83,10.94 4.2,21.89 7.12,32.84l149.63 0 0 -20.8c-11.68,-5.11 -19.16,-14.05 -22.45,-26.83 -3.28,-12.77 -5.29,-36.31 -6.2,-70.61 0,-45.98 -0.73,-83.57 -2.19,-112.77 -1.46,-29.19 -5.11,-52.92 -10.95,-71.16 -5.84,-18.25 -14.23,-32.85 -25.36,-43.8 -10.95,-10.94 -25.55,-21.16 -43.98,-30.65 66.78,-32.85 100.18,-94.89 100.18,-186.12 0,-33.58 -4.75,-64.23 -14.24,-91.97 -9.48,-27.73 -23.17,-51.27 -41.23,-70.61 -17.89,-19.35 -39.42,-34.31 -64.6,-44.89 -25.36,-10.59 -53.28,-15.88 -83.94,-15.88l-325.89 0 0 786.09zm130.28 -441.22l0 -210.2 169.34 0c62.95,0 94.52,35.21 94.52,105.65 0,36.31 -8.4,62.77 -25.37,79.55 -16.78,16.61 -43.24,25 -79.01,25l-159.48 0zm642.67 -344.87l-135.76 0 0 786.09 135.76 0 0 -786.09zm261.66 624.06l237.58 0 41.6 162.03 146.71 0 -227.72 -786.09 -155.47 0 -229.91 786.09 142.33 0 44.88 -162.03zm119.34 -449.98l81.02 315.31 -164.23 0 83.21 -315.31zm516.76 -174.08l-135.76 0 0 786.09 135.76 0 0 -786.09zm91.96 544.13c1.46,30.66 4.02,55.11 7.67,73.36 3.65,18.24 10.22,37.22 19.71,56.93 20.43,43.06 51.27,75.91 92.51,98.53 41.24,22.63 90.69,33.94 148.35,33.94 81.75,0 145.98,-22.62 192.69,-67.88 46.71,-45.25 70.07,-107.66 70.07,-187.21 0,-58.39 -13.14,-104.01 -39.6,-136.86 -26.46,-32.84 -69.7,-58.39 -129.92,-76.64l-158.57 -47.07c-25,-8.03 -42.51,-18.07 -52.91,-30.11 -10.22,-12.04 -15.33,-29.38 -15.33,-52.01 0,-29.92 10.03,-53.28 30.11,-70.06 20.07,-16.79 48.35,-25.19 84.85,-25.19 40.14,0 70.43,9.49 90.87,28.47 20.43,18.98 33.21,49.27 38.32,90.87l129.19 0c-5.11,-82.48 -29.38,-145.43 -72.81,-188.86 -43.43,-43.43 -103.83,-65.14 -181.19,-65.14 -77.37,0 -137.41,21.71 -180.1,65.14 -42.7,43.43 -64.05,103.83 -64.05,181.2 0,67.88 18.25,120.06 54.74,156.56 13.87,14.6 31.93,27 54.19,37.22 22.27,10.22 54.2,21.17 95.8,32.85l68.98 19.7c45.25,13.14 76.09,26.64 92.51,40.51 16.42,13.87 24.63,33.58 24.63,59.12 0,32.85 -11.31,57.85 -33.94,75 -22.62,17.15 -54.74,25.73 -96.34,25.73 -89.05,0 -136.13,-42.7 -141.24,-128.1l-129.19 0z"/>
   <polygon class="fil2" points="-0,5142.54 4911.71,5142.54 4911.71,5196.12 -0,5196.12 "/>
  </g>
 </g>
</svg>
