<?xml version="1.0" encoding="UTF-8"?>
<!DOCTYPE svg PUBLIC "-//W3C//DTD SVG 1.1//EN" "http://www.w3.org/Graphics/SVG/1.1/DTD/svg11.dtd">
<!-- Creator: CorelDRAW 2018 (64 Bit Versão de avaliação) -->
<svg xmlns="http://www.w3.org/2000/svg" xml:space="preserve" width="11.6592mm" height="7.7081mm" version="1.1" style="shape-rendering:geometricPrecision; text-rendering:geometricPrecision; image-rendering:optimizeQuality; fill-rule:evenodd; clip-rule:evenodd"
viewBox="0 0 225.87 149.32"
 xmlns:xlink="http://www.w3.org/1999/xlink">
 <defs>
  <style type="text/css">
   <![CDATA[
    .fil2 {fill:#FEFEFE}
    .fil1 {fill:#FEFEFE;fill-rule:nonzero}
    .fil0 {fill:#FF6A00;fill-rule:nonzero}
   ]]>
  </style>
 </defs>
 <g id="Camada_x0020_1">
  <metadata id="CorelCorpID_0Corel-Layer"/>
  <g id="_1742909369584">
   <g>
    <path class="fil0" d="M3.99 0l126.31 0c1.23,0.97 2.02,2.47 2.02,4.15 0,1.51 -0.63,2.87 -1.64,3.83l-122.7 0 0 91.68 68.11 0 0 0.01c1.28,0 2.54,0.62 3.3,1.76l24.59 36.76 24.36 -36.48c0.68,-1.23 1.99,-2.05 3.49,-2.05l48.44 0 36.52 -45.94 -36.51 -45.74 -20.56 0c-1.01,-0.96 -1.64,-2.32 -1.64,-3.83 0,-1.69 0.79,-3.19 2.02,-4.15l22.09 0c1.35,0 2.54,0.67 3.27,1.7l39.54 49.54c1.19,1.5 1.13,3.59 -0.04,5.01l-39.65 49.88c-0.78,0.99 -1.94,1.5 -3.12,1.5l0 0.01 -48.24 0 -26.66 39.92c-1.22,1.82 -3.69,2.31 -5.52,1.09 -0.47,-0.31 -0.85,-0.71 -1.13,-1.15l-26.66 -39.86 -69.99 0c-2.2,0 -3.99,-1.79 -3.99,-3.99l0 -99.65c0,-2.2 1.79,-3.99 3.99,-3.99z"/>
    <path class="fil1" d="M32.08 119.05c-1.65,0 -2.99,-1.34 -2.99,-2.99 0,-1.65 1.34,-2.99 2.99,-2.99l36.53 0c1.65,0 2.99,1.34 2.99,2.99 0,1.65 -1.34,2.99 -2.99,2.99l-36.53 0z"/>
    <path class="fil1" d="M38.52 133.09c-1.65,0 -2.99,-1.34 -2.99,-2.99 0,-1.65 1.34,-2.99 2.99,-2.99l36.53 0c1.65,0 2.99,1.34 2.99,2.99 0,1.65 -1.34,2.99 -2.99,2.99l-36.53 0z"/>
    <path class="fil1" d="M48.65 147.13c-1.65,0 -2.99,-1.34 -2.99,-2.99 0,-1.65 1.34,-2.99 2.99,-2.99l36.53 0c1.65,0 2.99,1.34 2.99,2.99 0,1.65 -1.34,2.99 -2.99,2.99l-36.53 0z"/>
   </g>
   <path class="fil2" d="M73.08 55.87c0,3.83 -2.14,6.24 -4.85,7.39 -4.09,1.74 -3.75,0.87 -1.17,7.14 2.62,6.36 2.03,6.23 5.64,4.7 3.7,-1.57 6.79,-0.66 8.95,1.62 1.05,1.11 1.82,1.89 2.25,3.8 0.45,1.98 0.12,3.4 -0.57,5.07 -1.46,3.56 -1.95,3.09 4.54,5.68 6.33,2.52 5.48,3.06 7.23,-1.03 1.22,-2.87 3.48,-4.94 7.42,-4.93 3.71,0.01 6.2,2.19 7.28,4.81 1.8,4.41 1.12,3.58 7.15,1.2 1.47,-0.58 2.81,-1.15 4.28,-1.77 0.78,-0.33 1.46,-0.6 1.27,-1.72 -0.21,-1.25 -3.97,-6.64 0.86,-11.27 2.29,-2.19 5.19,-3 8.95,-1.45 3.76,1.56 2.91,1.61 5.64,-4.87 2.56,-6.06 2.84,-5.27 -1.26,-7 -6.54,-2.75 -6.42,-12 -0.02,-14.65 4.05,-1.68 3.88,-0.92 1.25,-7.07 -0.61,-1.44 -1.18,-2.83 -1.77,-4.28 -0.83,-2.03 -1.56,-1.51 -3.86,-0.52 -6.94,2.99 -13.61,-3.5 -10.65,-10.52 0.72,-1.71 1.77,-3.02 -0.38,-3.92l-8.65 -3.57c-1.74,-0.62 -2,1.05 -2.77,2.93 -2.71,6.6 -11.97,6.48 -14.69,0.07 -0.54,-1.28 -0.95,-3.61 -2.73,-3.03l-8.65 3.57c-2.08,0.86 -1.39,1.66 -0.5,3.83 3.08,7.48 -3.89,13.39 -10.36,10.75 -3.79,-1.55 -3.19,-1.97 -5.81,4.53 -2.54,6.3 -2.98,5.45 1.06,7.18 2.75,1.18 4.92,3.45 4.92,7.32zm28.64 -18.07c-15.34,1.05 -23.08,18.31 -12.93,30.23 3.28,3.86 8.98,6.47 14.45,6.03 9.81,-0.78 17.97,-8.41 17.48,-18.98 -0.44,-9.64 -8.68,-17.99 -18.99,-17.28z"/>
  </g>
 </g>
</svg>
