<?xml version="1.0" encoding="UTF-8"?>
<!DOCTYPE svg PUBLIC "-//W3C//DTD SVG 1.1//EN" "http://www.w3.org/Graphics/SVG/1.1/DTD/svg11.dtd">
<!-- Creator: CorelDRAW 2018 (64 Bit Versão de avaliação) -->
<svg xmlns="http://www.w3.org/2000/svg" xml:space="preserve" width="16.5822mm" height="14.7651mm" version="1.1" style="shape-rendering:geometricPrecision; text-rendering:geometricPrecision; image-rendering:optimizeQuality; fill-rule:evenodd; clip-rule:evenodd"
viewBox="0 0 302.1 269"
 xmlns:xlink="http://www.w3.org/1999/xlink">
 <defs>
  <style type="text/css">
   <![CDATA[
    .fil0 {fill:#FEFEFE}
   ]]>
  </style>
 </defs>
 <g id="Camada_x0020_1">
  <metadata id="CorelCorpID_0Corel-Layer"/>
  <g id="_1742685479568">
   <path class="fil0" d="M219.13 94.57l0 0c8.37,-1.33 16.31,4.43 17.64,12.8l4.69 29.48c0.43,2.68 0.12,5.32 -0.76,7.71 -8.77,-6.17 -19.46,-9.61 -30.72,-9.35l-3.66 -23c-1.33,-8.37 4.43,-16.31 12.8,-17.64z"/>
   <path class="fil0" d="M14.83 27.34l170.49 -27.11c9.56,-1.52 18.62,5.05 20.14,14.61l2.59 16.27c0.43,-0.11 0.86,-0.2 1.3,-0.27l0 0c8.37,-1.33 16.31,4.43 17.64,12.8l4.84 30.44c1.33,8.37 -4.43,16.31 -12.8,17.64l0 0c-0.44,0.07 -0.88,0.12 -1.32,0.15l7.19 45.21c-5.75,-1.6 -11.85,-2.22 -18.08,-1.68l-15.95 -100.3c-1.26,-7.94 -8.79,-13.4 -16.73,-12.14l-141.63 22.52c-7.94,1.26 -13.4,8.79 -12.14,16.73l27.31 171.7c1.26,7.94 8.79,13.4 16.73,12.14l115.84 -18.42c10.75,8.09 24.64,11.98 38.97,9.7 6.57,-1.05 12.65,-3.29 18.05,-6.48 -2.24,5.54 -7.25,9.83 -13.55,10.83l-170.49 27.12c-9.56,1.52 -18.62,-5.06 -20.14,-14.61l-32.87 -206.7c-1.52,-9.56 5.06,-18.62 14.61,-20.14zm220.8 180.93c-0.15,0.17 -0.3,0.34 -0.45,0.5 0.15,-0.17 0.3,-0.34 0.45,-0.5zm-0.56 0.62c-0.14,0.15 -0.29,0.31 -0.43,0.46 0.15,-0.15 0.29,-0.3 0.43,-0.46zm-0.52 0.55c-0.15,0.15 -0.3,0.3 -0.44,0.44 0.15,-0.15 0.3,-0.3 0.44,-0.44zm-0.55 0.55c-0.16,0.15 -0.32,0.31 -0.48,0.46 0.16,-0.15 0.32,-0.31 0.48,-0.46zm-0.55 0.52c-0.17,0.16 -0.35,0.32 -0.53,0.48 0.18,-0.16 0.35,-0.32 0.53,-0.48zm-0.59 0.54c-0.17,0.15 -0.35,0.31 -0.53,0.46 0.18,-0.15 0.36,-0.31 0.53,-0.46zm-0.61 0.53c-0.17,0.14 -0.33,0.28 -0.5,0.41 0.17,-0.14 0.34,-0.27 0.5,-0.41zm-0.61 0.5c-0.17,0.14 -0.34,0.27 -0.51,0.4 0.17,-0.13 0.34,-0.27 0.51,-0.4zm-0.6 0.47c-0.18,0.14 -0.37,0.28 -0.56,0.42 0.19,-0.14 0.37,-0.28 0.56,-0.42zm-0.63 0.47c-0.19,0.14 -0.39,0.28 -0.59,0.42 0.2,-0.14 0.39,-0.28 0.59,-0.42zm-0.66 0.47c-0.19,0.13 -0.38,0.26 -0.58,0.39 0.19,-0.13 0.39,-0.26 0.58,-0.39zm-0.64 0.43c-0.2,0.13 -0.4,0.26 -0.6,0.38 0.2,-0.13 0.4,-0.25 0.6,-0.38zm-0.67 0.43c-0.2,0.12 -0.4,0.25 -0.6,0.37 0.2,-0.12 0.4,-0.24 0.6,-0.37zm-0.67 0.4c-0.21,0.13 -0.43,0.25 -0.64,0.37 0.22,-0.12 0.43,-0.24 0.64,-0.37zm-0.71 0.41c-0.21,0.12 -0.42,0.23 -0.64,0.35 0.21,-0.11 0.43,-0.23 0.64,-0.35zm-0.71 0.38c-0.22,0.11 -0.44,0.22 -0.66,0.33 0.22,-0.11 0.44,-0.22 0.66,-0.33zm-0.7 0.36c-0.22,0.11 -0.44,0.21 -0.66,0.32 0.22,-0.1 0.44,-0.21 0.66,-0.32zm-0.73 0.35c-0.23,0.11 -0.46,0.21 -0.7,0.32 0.24,-0.1 0.47,-0.21 0.7,-0.32zm-0.71 0.32c-0.24,0.11 -0.49,0.21 -0.74,0.31 0.25,-0.1 0.49,-0.2 0.74,-0.31zm-0.77 0.32c-0.24,0.1 -0.48,0.19 -0.72,0.28 0.24,-0.09 0.48,-0.18 0.72,-0.28zm-0.77 0.3c-0.22,0.08 -0.44,0.16 -0.67,0.24 0.22,-0.08 0.45,-0.16 0.67,-0.24zm-0.8 0.29c-0.22,0.08 -0.44,0.15 -0.67,0.22 0.22,-0.07 0.45,-0.15 0.67,-0.22zm-0.74 0.25c-0.24,0.08 -0.48,0.15 -0.73,0.22 0.24,-0.07 0.49,-0.15 0.73,-0.22zm-0.78 0.24c-0.25,0.07 -0.49,0.14 -0.74,0.21 0.25,-0.07 0.5,-0.13 0.74,-0.21zm-0.83 0.23c-0.23,0.06 -0.46,0.12 -0.7,0.18 0.24,-0.06 0.47,-0.11 0.7,-0.18zm-0.8 0.2c-0.24,0.05 -0.47,0.11 -0.71,0.16 0.24,-0.05 0.48,-0.1 0.71,-0.16zm-0.8 0.18c-0.25,0.05 -0.5,0.1 -0.75,0.15 0.25,-0.05 0.5,-0.1 0.75,-0.15zm-0.8 0.16c-0.27,0.05 -0.54,0.1 -0.81,0.14 -0.25,0.04 -0.51,0.08 -0.76,0.11 0.25,-0.03 0.51,-0.07 0.76,-0.11 0.27,-0.04 0.54,-0.09 0.81,-0.14zm2.86 -63.66c0.14,0.04 0.28,0.08 0.42,0.12l-0.42 -0.12zm0.7 0.2c0.16,0.05 0.32,0.1 0.48,0.15 -0.16,-0.05 -0.32,-0.1 -0.48,-0.15zm0.74 0.24c0.17,0.06 0.34,0.11 0.51,0.17 -0.17,-0.06 -0.34,-0.12 -0.51,-0.17zm0.74 0.25c0.18,0.06 0.36,0.13 0.53,0.19 -0.18,-0.07 -0.35,-0.13 -0.53,-0.19zm0.77 0.29c0.16,0.06 0.33,0.13 0.49,0.19 -0.16,-0.07 -0.33,-0.13 -0.49,-0.19zm0.7 0.28c0.18,0.07 0.36,0.15 0.54,0.23 -0.18,-0.08 -0.36,-0.15 -0.54,-0.23zm0.73 0.31c0.18,0.08 0.35,0.16 0.53,0.24 -0.18,-0.08 -0.35,-0.16 -0.53,-0.24zm0.7 0.32c0.18,0.08 0.36,0.17 0.53,0.26 -0.18,-0.09 -0.35,-0.17 -0.53,-0.26zm0.69 0.33c0.19,0.1 0.39,0.2 0.58,0.3 -0.19,-0.1 -0.38,-0.2 -0.58,-0.3zm0.69 0.35c0.19,0.1 0.38,0.2 0.56,0.31 -0.19,-0.1 -0.38,-0.21 -0.56,-0.31zm0.7 0.38c0.19,0.1 0.37,0.21 0.56,0.32 -0.18,-0.11 -0.37,-0.21 -0.56,-0.32zm0.67 0.38c0.19,0.11 0.38,0.23 0.57,0.35 -0.19,-0.12 -0.38,-0.23 -0.57,-0.35z"/>
   <path class="fil0" d="M204.43 141.66c24.83,-3.95 48.17,12.98 52.11,37.81 3.95,24.84 -12.98,48.17 -37.81,52.12 -24.83,3.95 -48.17,-12.98 -52.12,-37.81 -3.95,-24.83 12.98,-48.16 37.81,-52.11zm2.29 14.42c16.45,-2.62 31.95,8.94 34.63,25.8 2.68,16.87 -8.47,32.66 -24.92,35.27 -16.45,2.61 -31.95,-8.94 -34.64,-25.8 -2.68,-16.87 8.48,-32.66 24.92,-35.27z"/>
   <rect class="fil0" transform="matrix(0.0674132 -0.0856257 0.17125 0.134825 241.747 227.237)" width="202.45" height="298.86" rx="308.5" ry="308.5"/>
   <path class="fil0" d="M75.24 111.8c0.89,5.6 -1.67,9.62 -5.37,11.93 -5.57,3.49 -5.28,2.14 -0.05,10.71 5.31,8.68 4.41,8.63 9.33,5.55 5.05,-3.15 9.78,-2.54 13.46,0.29 1.79,1.38 3.09,2.34 4.16,5.04 1.11,2.8 0.96,4.94 0.35,7.54 -1.31,5.55 -2.14,4.97 7.96,7.25 9.85,2.22 8.72,3.2 10.32,-3.18 1.12,-4.48 3.93,-8.03 9.7,-8.93 5.43,-0.85 9.58,1.75 11.76,5.35 3.66,6.03 2.47,4.97 10.73,0.09 2.02,-1.19 3.84,-2.34 5.84,-3.59 1.06,-0.66 2,-1.22 1.46,-2.82 -0.6,-1.78 -7.34,-8.79 -1.36,-16.67 2.83,-3.74 6.88,-5.6 12.74,-4.19 5.85,1.4 4.62,1.67 7.11,-8.44 2.32,-9.46 2.92,-8.37 -3.47,-9.94 -10.2,-2.51 -12.18,-16.05 -3.44,-21.41 5.53,-3.4 5.45,-2.24 0.18,-10.63 -1.23,-1.96 -2.38,-3.86 -3.59,-5.84 -1.68,-2.77 -2.64,-1.84 -5.76,0.14 -9.46,5.98 -20.7,-1.95 -18.02,-12.9 0.65,-2.66 1.89,-4.82 -1.47,-5.63l-13.47 -3.21c-2.69,-0.5 -2.68,2 -3.37,4.92 -2.42,10.28 -15.99,12.25 -21.46,3.52 -1.09,-1.75 -2.22,-5.06 -4.69,-3.79l-11.81 7.23c-2.84,1.74 -1.65,2.75 0.16,5.71 6.24,10.22 -2.58,20.48 -12.64,18.12 -5.9,-1.39 -5.12,-2.14 -7.44,7.97 -2.25,9.8 -3.09,8.66 3.22,10.25 4.3,1.08 7.99,3.89 8.9,9.56zm37.66 -33.08c-22.19,5.1 -29.48,32.13 -11.88,47.19 5.7,4.87 14.62,7.37 22.52,5.46 14.16,-3.43 24.31,-16.47 21.14,-31.8 -2.89,-13.98 -16.88,-24.27 -31.78,-20.85z"/>
   <ellipse class="fil0" transform="matrix(0.341827 -0.0543639 0.0543639 0.341827 208.149 168.759)" rx="23.5" ry="24.1"/>
  </g>
 </g>
</svg>
