<?xml version="1.0" encoding="UTF-8"?>
<!DOCTYPE svg PUBLIC "-//W3C//DTD SVG 1.1//EN" "http://www.w3.org/Graphics/SVG/1.1/DTD/svg11.dtd">
<!-- Creator: CorelDRAW 2018 (64 Bit Versão de avaliação) -->
<svg xmlns="http://www.w3.org/2000/svg" xml:space="preserve" width="9.0274mm" height="8.0969mm" version="1.1" style="shape-rendering:geometricPrecision; text-rendering:geometricPrecision; image-rendering:optimizeQuality; fill-rule:evenodd; clip-rule:evenodd"
viewBox="0 0 161.48 144.83"
 xmlns:xlink="http://www.w3.org/1999/xlink">
 <defs>
  <style type="text/css">
   <![CDATA[
    .fil0 {fill:#FEFEFE;fill-rule:nonzero}
   ]]>
  </style>
 </defs>
 <g id="Camada_x0020_1">
  <metadata id="CorelCorpID_0Corel-Layer"/>
  <g id="_1742909348656">
   <path class="fil0" d="M118.41 118.03c-0.39,0 -0.78,-0.2 -1,-0.56 -0.34,-0.55 -0.16,-1.27 0.39,-1.61 15.59,-9.56 25.27,-27.02 25.27,-45.59 0,-27.2 -19.94,-49.92 -46.37,-52.84 -0.64,-0.07 -1.11,-0.65 -1.04,-1.29 0.07,-0.64 0.65,-1.1 1.29,-1.03 27.63,3.05 48.45,26.77 48.45,55.17 0,19.37 -10.11,37.6 -26.39,47.58 -0.19,0.12 -0.4,0.17 -0.61,0.17z"/>
   <path class="fil0" d="M117.82 104.91c-0.17,0 -0.34,-0.07 -0.45,-0.21 -0.2,-0.25 -0.17,-0.62 0.08,-0.82 9.01,-7.39 14.59,-17.81 15.71,-29.35 0.03,-0.32 0.34,-0.54 0.64,-0.53 0.32,0.03 0.56,0.32 0.53,0.64 -1.15,11.86 -6.88,22.56 -16.13,30.15 -0.11,0.09 -0.24,0.13 -0.37,0.13z"/>
   <path class="fil0" d="M132.36 59c-0.26,0 -0.49,-0.17 -0.56,-0.43 -4.64,-16.83 -18.82,-29.21 -36.13,-31.53 -0.32,-0.04 -0.55,-0.34 -0.5,-0.66 0.04,-0.32 0.34,-0.56 0.66,-0.5 17.78,2.38 32.34,15.09 37.11,32.37 0.09,0.31 -0.1,0.63 -0.41,0.72 -0.05,0.01 -0.1,0.02 -0.16,0.02z"/>
   <path class="fil0" d="M117.82 90.04c-0.12,0 -0.23,-0.03 -0.33,-0.1 -0.27,-0.18 -0.33,-0.55 -0.15,-0.81 3.85,-5.57 5.89,-12.11 5.89,-18.91 0,-3.97 -0.7,-7.87 -2.07,-11.59 -0.11,-0.3 0.04,-0.64 0.35,-0.75 0.3,-0.12 0.64,0.04 0.75,0.35 1.42,3.85 2.14,7.88 2.14,12 0,7.04 -2.11,13.81 -6.09,19.58 -0.11,0.16 -0.3,0.25 -0.48,0.25z"/>
   <path class="fil0" d="M109.14 42.85c-0.12,0 -0.23,-0.03 -0.33,-0.1 -3.96,-2.75 -8.39,-4.57 -13.16,-5.41 -0.32,-0.06 -0.53,-0.36 -0.47,-0.68 0.06,-0.32 0.37,-0.53 0.68,-0.47 4.94,0.87 9.53,2.76 13.63,5.61 0.26,0.18 0.33,0.55 0.15,0.81 -0.11,0.16 -0.3,0.25 -0.48,0.25z"/>
   <path class="fil0" d="M101.2 7.34l1.15 -5.23c0.17,-0.79 0.52,-1.37 1.04,-1.73 0.54,-0.37 1.2,-0.48 1.99,-0.3 0.76,0.17 1.3,0.55 1.61,1.14 0.29,0.56 0.35,1.23 0.18,2l-0.21 0.98 -1.62 -0.36 0.25 -1.12c0.15,-0.7 -0.04,-1.12 -0.58,-1.24 -0.54,-0.12 -0.89,0.18 -1.04,0.88l-1.25 5.69c-0.16,0.71 0.04,1.12 0.58,1.24 0.54,0.12 0.89,-0.18 1.04,-0.89l0.3 -1.39 1.62 0.35 -0.23 1.07c-0.18,0.84 -0.52,1.47 -1.01,1.87 -0.53,0.44 -1.21,0.57 -2.03,0.39 -1.61,-0.35 -2.2,-1.47 -1.79,-3.36z"/>
   <polygon class="fil0" points="107.21,11.53 110.48,1.62 114.47,2.93 114,4.36 111.54,3.55 110.68,6.15 112.45,6.74 111.98,8.17 110.21,7.59 109.23,10.55 111.69,11.36 111.2,12.84 "/>
   <path class="fil0" d="M117.94 5.99l-1.24 2.77 0.58 0.26c0.39,0.18 0.72,0.14 0.99,-0.11 0.16,-0.15 0.35,-0.46 0.56,-0.93 0.2,-0.44 0.29,-0.78 0.27,-1.01 -0.02,-0.32 -0.23,-0.56 -0.63,-0.74l-0.53 -0.24zm-1.86 4.14l-1.8 4 -1.47 -0.66 4.28 -9.52 2.15 0.97c0.86,0.38 1.35,0.91 1.49,1.58 0.11,0.57 -0.03,1.3 -0.44,2.2 -0.51,1.13 -1.17,1.78 -1.98,1.93l-0.91 4.91 -1.52 -0.68 0.89 -4.41 -0.7 -0.31z"/>
   <path class="fil0" d="M123.48 6.95l1.36 0.79 -2.28 5.82c-0.27,0.7 -0.59,1.35 -0.94,1.96l-0.09 0.16c0.52,-0.83 0.96,-1.48 1.34,-1.95l3.92 -4.87 1.37 0.8 -6.85 8.09 -1.45 -0.85 3.63 -9.96z"/>
   <polygon class="fil0" points="124.08,19.5 130.2,11.04 133.6,13.5 132.71,14.72 130.62,13.2 129.01,15.42 130.52,16.51 129.64,17.74 128.13,16.65 126.3,19.18 128.4,20.69 127.48,21.96 "/>
   <path class="fil0" d="M128.15 22.51l1.05 -1.22c0.11,0.12 0.18,0.19 0.23,0.23 0.43,0.36 0.83,0.33 1.21,-0.12l5.18 -6.07 1.23 1.04 -4.98 5.84c-1.2,1.4 -2.27,1.7 -3.22,0.89l-0.69 -0.59z"/>
   <path class="fil0" d="M135.45 24.04l0.86 0.87 2.71 -3.46 -0.07 -0.07 -3.5 2.66zm-4.16 1.12l8.62 -6.14 1.48 1.49 -6.21 8.57 -1.17 -1.18 1.38 -1.82 -1.15 -1.15 -1.85 1.35 -1.11 -1.12z"/>
   <path class="fil0" d="M149.23 48.18c-0.05,0.1 -0.11,0.2 -0.16,0.3 -0.02,0.03 -0.04,0.07 -0.06,0.11 -0.4,0.27 -0.82,0.52 -1.24,0.76 -0.01,-0.01 -0.01,-0.01 -0.02,-0.02 0,-0.01 -0.01,-0.01 -0.01,-0.02 0.03,-0.07 0.07,-0.14 0.11,-0.2 0.16,-0.28 0.34,-0.55 0.57,-0.78 0.16,-0.16 0.35,-0.29 0.55,-0.37 0.02,-0.01 0.03,-0.01 0.05,-0.02 0.07,0.08 0.14,0.16 0.2,0.24z"/>
   <path class="fil0" d="M150.45 47.04c-0.33,0.14 -0.59,0.36 -0.83,0.62 -0.24,-0.29 -0.41,-0.58 -0.58,-0.91 0.34,-0.16 0.68,-0.28 1.04,-0.36 0.13,0.21 0.25,0.42 0.37,0.64z"/>
   <path class="fil0" d="M152.1 45.94c-0.31,0.34 -0.63,0.66 -0.96,0.96 -0.04,-0.05 -0.08,-0.1 -0.12,-0.15 -0.2,-0.27 -0.35,-0.55 -0.47,-0.86 -0.02,-0.04 -0.04,-0.09 -0.06,-0.14 -0.01,-0.01 -0.01,-0.02 -0.02,-0.04 0.48,-0.16 0.97,-0.28 1.48,-0.24 0.04,0.16 0.09,0.32 0.15,0.47z"/>
   <path class="fil0" d="M153.15 44.83c-0.06,0.04 -0.12,0.07 -0.18,0.11 -0.12,0.16 -0.25,0.31 -0.38,0.46 -0.06,-0.17 -0.1,-0.35 -0.14,-0.52l0 -0.03c0.02,0 0.04,-0.01 0.06,-0.01 0.21,-0.02 0.43,-0.02 0.64,-0.01z"/>
   <path class="fil0" d="M144.07 25.81l-2.36 1.9 0.4 0.5c0.27,0.33 0.58,0.45 0.93,0.35 0.21,-0.06 0.52,-0.25 0.92,-0.57 0.38,-0.3 0.61,-0.56 0.7,-0.78 0.13,-0.29 0.05,-0.61 -0.23,-0.95l-0.36 -0.45zm-3.54 2.85l-3.42 2.75 -1.01 -1.25 8.14 -6.54 1.48 1.84c0.59,0.73 0.79,1.43 0.61,2.08 -0.16,0.56 -0.62,1.15 -1.39,1.77 -0.97,0.78 -1.85,1.05 -2.64,0.82l-3.04 3.96 -1.04 -1.3 2.8 -3.53 -0.48 -0.6z"/>
   <polygon class="fil0" points="140.18,35.47 148.85,29.65 149.76,31.01 141.1,36.83 "/>
   <path class="fil0" d="M149.54 49.79c-0.03,0.1 -0.06,0.2 -0.09,0.31l-0.17 0c-0.24,-0.02 -0.45,-0.09 -0.65,-0.19 -0.32,-0.15 -0.6,-0.35 -0.86,-0.57 -0.01,-0.01 -0.01,-0.01 -0.02,-0.02 0,-0.01 -0.01,-0.01 -0.01,-0.02 0.03,-0.07 0.07,-0.14 0.11,-0.2 0.16,-0.28 0.34,-0.55 0.57,-0.78 0.16,-0.16 0.35,-0.29 0.56,-0.37 0.02,-0.01 0.03,-0.01 0.05,-0.02 0.07,0.08 0.14,0.16 0.2,0.24 -0.05,0.1 -0.11,0.2 -0.16,0.3 -0.02,0.03 -0.04,0.07 -0.06,0.11 -0.05,0.1 -0.1,0.21 -0.15,0.31 -0.06,0.14 -0.03,0.27 0.07,0.36 0.18,0.18 0.37,0.34 0.57,0.49 0.02,0.01 0.03,0.02 0.05,0.03z"/>
   <path class="fil0" d="M150.45 47.04c-0.33,0.14 -0.59,0.36 -0.83,0.62 -0.24,-0.29 -0.41,-0.58 -0.58,-0.91 0.34,-0.16 0.68,-0.28 1.04,-0.36 0.13,0.21 0.25,0.42 0.37,0.64z"/>
   <path class="fil0" d="M151.09 50.39c-0.03,0.25 -0.06,0.48 -0.1,0.74 -0.36,0.06 -0.72,0.07 -1.09,0.05 0,-0.23 0.11,-0.86 0.19,-1.04 0.31,0.16 0.64,0.26 0.99,0.26z"/>
   <path class="fil0" d="M151.64 49.21c-0.01,0.02 -0.02,0.03 -0.03,0.04 -0.1,0.14 -0.19,0.28 -0.27,0.45 -0.02,0.03 -0.04,0.05 -0.08,0.05 -0.18,0.03 -0.35,0.01 -0.51,-0.04 -0.19,-0.05 -0.37,-0.14 -0.53,-0.24 -0.25,-0.14 -0.47,-0.31 -0.68,-0.5l0 -0.02c0.17,-0.34 0.36,-0.65 0.61,-0.92 0.16,-0.18 0.34,-0.31 0.55,-0.4 0.05,-0.02 0.11,-0.03 0.16,-0.05 0.03,-0.01 0.05,-0.01 0.06,0.01 0.15,0.13 0.3,0.25 0.46,0.34 0.01,0 0.01,0.01 0.02,0.01 -0.01,0.02 -0.02,0.04 -0.03,0.06 -0.09,0.14 -0.18,0.28 -0.27,0.43 -0.09,0.16 -0.06,0.32 0.08,0.42 0.14,0.11 0.28,0.21 0.41,0.31 0.01,0.01 0.03,0.03 0.05,0.04z"/>
   <path class="fil0" d="M152.53 46.79c-0.29,0.18 -0.53,0.39 -0.75,0.65 -0.02,-0.01 -0.04,-0.02 -0.06,-0.03 -0.23,-0.13 -0.42,-0.31 -0.58,-0.51 -0.04,-0.05 -0.08,-0.1 -0.12,-0.15 -0.19,-0.27 -0.35,-0.55 -0.47,-0.86 -0.02,-0.04 -0.04,-0.09 -0.06,-0.14 -0.01,-0.01 -0.01,-0.02 -0.02,-0.04 0.48,-0.16 0.97,-0.28 1.48,-0.24 0.04,0.16 0.09,0.32 0.15,0.47 0.11,0.3 0.25,0.58 0.43,0.85z"/>
   <path class="fil0" d="M153.08 51.29c-0.46,0.23 -0.95,0.31 -1.46,0.34l0 -0.14c0.01,-0.37 0.04,-0.73 0.14,-1.09 0.08,-0.3 0.2,-0.57 0.39,-0.81 0.02,-0.02 0.03,-0.04 0.05,-0.06 0.3,0.15 0.61,0.27 0.95,0.33 -0.11,0.48 -0.11,0.95 -0.06,1.43z"/>
   <path class="fil0" d="M156.26 49.2c-0.1,0.4 -0.27,0.78 -0.49,1.13 -0.24,0.34 -0.53,0.62 -0.88,0.86 -0.34,0.23 -0.71,0.4 -1.12,0.51 0,-0.03 -0.01,-0.05 -0.01,-0.07 -0.02,-0.11 -0.03,-0.22 -0.05,-0.33 -0.02,-0.23 -0.04,-0.46 -0.03,-0.68 0,-0.31 0.05,-0.63 0.16,-0.93 0.03,-0.08 0.03,-0.16 -0.01,-0.24 -0.06,-0.12 -0.16,-0.18 -0.28,-0.19 -0.26,-0.01 -0.5,-0.07 -0.75,-0.16 -0.36,-0.14 -0.69,-0.34 -1,-0.56 -0.01,-0.01 -0.01,-0.01 -0.02,-0.02 0,-0.01 0.01,-0.02 0.01,-0.03 0.13,-0.21 0.27,-0.4 0.43,-0.59 0.26,-0.31 0.55,-0.56 0.93,-0.73 0.21,-0.09 0.25,-0.34 0.1,-0.5 -0.18,-0.21 -0.33,-0.43 -0.44,-0.68 -0.09,-0.19 -0.16,-0.39 -0.22,-0.59 -0.06,-0.17 -0.1,-0.35 -0.14,-0.52l0 -0.03c0.02,0 0.04,-0.01 0.06,-0.01 0.21,-0.02 0.43,-0.02 0.64,-0.01 0.03,0 0.07,0 0.11,0.01 0.88,0.1 1.62,0.46 2.21,1.14 0.31,0.36 0.53,0.76 0.68,1.21 0.02,0.05 0.03,0.1 0.05,0.15l0.13 0.63c0.04,0.41 0.02,0.82 -0.07,1.22z"/>
   <path class="fil0" d="M146.2 38.01l0.6 1.07 3.54 -2.61 -0.05 -0.09 -4.09 1.62zm-4.3 -0.03l9.95 -3.6 1.02 1.83 -8.27 6.59 -0.81 -1.45 1.82 -1.38 -0.79 -1.42 -2.14 0.8 -0.77 -1.38z"/>
   <path class="fil0" d="M149.54 49.79c-0.03,0.1 -0.06,0.2 -0.09,0.31l-0.17 0c-0.24,-0.02 -0.45,-0.09 -0.65,-0.19 -0.32,-0.15 -0.6,-0.35 -0.86,-0.57 -0.01,-0.01 -0.01,-0.01 -0.02,-0.02 0,-0.01 -0.01,-0.01 -0.01,-0.02 0.03,-0.07 0.07,-0.14 0.11,-0.2 0.16,-0.28 0.34,-0.55 0.57,-0.78 0.16,-0.16 0.35,-0.29 0.56,-0.37 0.02,-0.01 0.03,-0.01 0.05,-0.02 0.07,0.08 0.14,0.16 0.2,0.24 -0.05,0.1 -0.11,0.2 -0.16,0.3 -0.02,0.03 -0.04,0.07 -0.06,0.11 -0.05,0.1 -0.1,0.21 -0.15,0.31 -0.06,0.14 -0.03,0.27 0.07,0.36 0.18,0.18 0.37,0.34 0.57,0.49 0.02,0.01 0.03,0.02 0.05,0.03z"/>
   <path class="fil0" d="M150.45 47.04c-0.33,0.14 -0.59,0.36 -0.83,0.62 -0.24,-0.29 -0.41,-0.58 -0.58,-0.91 0.34,-0.16 0.68,-0.28 1.04,-0.36 0.13,0.21 0.25,0.42 0.37,0.64z"/>
   <path class="fil0" d="M151.09 50.39c-0.03,0.25 -0.06,0.48 -0.1,0.74 -0.36,0.06 -0.72,0.07 -1.09,0.05 0,-0.23 0.11,-0.86 0.19,-1.04 0.31,0.16 0.64,0.26 0.99,0.26z"/>
   <path class="fil0" d="M151.64 49.21c-0.01,0.02 -0.02,0.03 -0.03,0.04 -0.1,0.14 -0.19,0.28 -0.27,0.45 -0.02,0.03 -0.04,0.05 -0.08,0.05 -0.18,0.03 -0.35,0.01 -0.51,-0.04 -0.19,-0.05 -0.37,-0.14 -0.53,-0.24 -0.25,-0.14 -0.47,-0.31 -0.68,-0.5l0 -0.02c0.17,-0.34 0.36,-0.65 0.61,-0.92 0.16,-0.18 0.34,-0.31 0.55,-0.4 0.05,-0.02 0.11,-0.03 0.16,-0.05 0.03,-0.01 0.05,-0.01 0.06,0.01 0.15,0.13 0.3,0.25 0.46,0.34 0.01,0 0.01,0.01 0.02,0.01 -0.01,0.02 -0.02,0.04 -0.03,0.06 -0.09,0.14 -0.18,0.28 -0.27,0.43 -0.09,0.16 -0.06,0.32 0.08,0.42 0.14,0.11 0.28,0.21 0.41,0.31 0.01,0.01 0.03,0.03 0.05,0.04z"/>
   <path class="fil0" d="M152.53 46.79c-0.29,0.18 -0.53,0.39 -0.75,0.65 -0.02,-0.01 -0.04,-0.02 -0.06,-0.03 -0.23,-0.13 -0.42,-0.31 -0.58,-0.51 -0.04,-0.05 -0.08,-0.1 -0.12,-0.15 -0.19,-0.27 -0.35,-0.55 -0.47,-0.86 -0.02,-0.04 -0.04,-0.09 -0.06,-0.14 -0.01,-0.01 -0.01,-0.02 -0.02,-0.04 0.48,-0.16 0.97,-0.28 1.48,-0.24 0.04,0.16 0.09,0.32 0.15,0.47 0.11,0.3 0.25,0.58 0.43,0.85z"/>
   <path class="fil0" d="M153.08 51.29c-0.46,0.23 -0.95,0.31 -1.46,0.34l0 -0.14c0.01,-0.37 0.04,-0.73 0.14,-1.09 0.08,-0.3 0.2,-0.57 0.39,-0.81 0.02,-0.02 0.03,-0.04 0.05,-0.06 0.3,0.15 0.61,0.27 0.95,0.33 -0.11,0.48 -0.11,0.95 -0.06,1.43z"/>
   <path class="fil0" d="M156.26 49.2c-0.1,0.4 -0.27,0.78 -0.49,1.13 -0.24,0.34 -0.53,0.62 -0.88,0.86 -0.34,0.23 -0.71,0.4 -1.12,0.51 0,-0.03 -0.01,-0.05 -0.01,-0.07 -0.02,-0.11 -0.03,-0.22 -0.05,-0.33 -0.02,-0.23 -0.04,-0.46 -0.03,-0.68 0,-0.31 0.05,-0.63 0.16,-0.93 0.03,-0.08 0.03,-0.16 -0.01,-0.24 -0.06,-0.12 -0.16,-0.18 -0.28,-0.19 -0.26,-0.01 -0.5,-0.07 -0.75,-0.16 -0.36,-0.14 -0.69,-0.34 -1,-0.56 -0.01,-0.01 -0.01,-0.01 -0.02,-0.02 0,-0.01 0.01,-0.02 0.01,-0.03 0.13,-0.21 0.27,-0.4 0.43,-0.59 0.26,-0.31 0.55,-0.56 0.93,-0.73 0.21,-0.09 0.25,-0.34 0.1,-0.5 -0.18,-0.21 -0.33,-0.43 -0.44,-0.68 -0.09,-0.19 -0.16,-0.39 -0.22,-0.59 -0.06,-0.17 -0.1,-0.35 -0.14,-0.52l0 -0.03c0.02,0 0.04,-0.01 0.06,-0.01 0.21,-0.02 0.43,-0.02 0.64,-0.01 0.03,0 0.07,0 0.11,0.01 0.88,0.1 1.62,0.46 2.21,1.14 0.31,0.36 0.53,0.76 0.68,1.21 0.02,0.05 0.03,0.1 0.05,0.15l0.13 0.63c0.04,0.41 0.02,0.82 -0.07,1.22z"/>
   <path class="fil0" d="M149.54 49.79c-0.03,0.1 -0.06,0.2 -0.09,0.31l-0.17 0c-0.24,-0.02 -0.45,-0.09 -0.65,-0.19 -0.32,-0.15 -0.6,-0.35 -0.86,-0.57 -0.01,-0.01 -0.01,-0.01 -0.02,-0.02 0,-0.01 -0.01,-0.01 -0.01,-0.02 0.03,-0.07 0.07,-0.14 0.11,-0.2 0.16,-0.28 0.34,-0.55 0.57,-0.78 0.16,-0.16 0.35,-0.29 0.56,-0.37 0.02,-0.01 0.03,-0.01 0.05,-0.02 0.07,0.08 0.14,0.16 0.2,0.24 -0.05,0.1 -0.11,0.2 -0.16,0.3 -0.02,0.03 -0.04,0.07 -0.06,0.11 -0.05,0.1 -0.1,0.21 -0.15,0.31 -0.06,0.14 -0.03,0.27 0.07,0.36 0.18,0.18 0.37,0.34 0.57,0.49 0.02,0.01 0.03,0.02 0.05,0.03z"/>
   <path class="fil0" d="M150.45 47.04c-0.33,0.14 -0.59,0.36 -0.83,0.62 -0.24,-0.29 -0.41,-0.58 -0.58,-0.91 0.34,-0.16 0.68,-0.28 1.04,-0.36 0.13,0.21 0.25,0.42 0.37,0.64z"/>
   <path class="fil0" d="M151.09 50.39c-0.03,0.25 -0.06,0.48 -0.1,0.74 -0.36,0.06 -0.72,0.07 -1.09,0.05 0,-0.23 0.11,-0.86 0.19,-1.04 0.31,0.16 0.64,0.26 0.99,0.26z"/>
   <path class="fil0" d="M151.64 49.21c-0.01,0.02 -0.02,0.03 -0.03,0.04 -0.1,0.14 -0.19,0.28 -0.27,0.45 -0.02,0.03 -0.04,0.05 -0.08,0.05 -0.18,0.03 -0.35,0.01 -0.51,-0.04 -0.19,-0.05 -0.37,-0.14 -0.53,-0.24 -0.25,-0.14 -0.47,-0.31 -0.68,-0.5l0 -0.02c0.17,-0.34 0.36,-0.65 0.61,-0.92 0.16,-0.18 0.34,-0.31 0.55,-0.4 0.05,-0.02 0.11,-0.03 0.16,-0.05 0.03,-0.01 0.05,-0.01 0.06,0.01 0.15,0.13 0.3,0.25 0.46,0.34 0.01,0 0.01,0.01 0.02,0.01 -0.01,0.02 -0.02,0.04 -0.03,0.06 -0.09,0.14 -0.18,0.28 -0.27,0.43 -0.09,0.16 -0.06,0.32 0.08,0.42 0.14,0.11 0.28,0.21 0.41,0.31 0.01,0.01 0.03,0.03 0.05,0.04z"/>
   <path class="fil0" d="M152.53 46.79c-0.29,0.18 -0.53,0.39 -0.75,0.65 -0.02,-0.01 -0.04,-0.02 -0.06,-0.03 -0.23,-0.13 -0.42,-0.31 -0.58,-0.51 -0.04,-0.05 -0.08,-0.1 -0.12,-0.15 -0.19,-0.27 -0.35,-0.55 -0.47,-0.86 -0.02,-0.04 -0.04,-0.09 -0.06,-0.14 -0.01,-0.01 -0.01,-0.02 -0.02,-0.04 0.48,-0.16 0.97,-0.28 1.48,-0.24 0.04,0.16 0.09,0.32 0.15,0.47 0.11,0.3 0.25,0.58 0.43,0.85z"/>
   <path class="fil0" d="M153.08 51.29c-0.46,0.23 -0.95,0.31 -1.46,0.34l0 -0.14c0.01,-0.37 0.04,-0.73 0.14,-1.09 0.08,-0.3 0.2,-0.57 0.39,-0.81 0.02,-0.02 0.03,-0.04 0.05,-0.06 0.3,0.15 0.61,0.27 0.95,0.33 -0.11,0.48 -0.11,0.95 -0.06,1.43z"/>
   <path class="fil0" d="M156.26 49.2c-0.1,0.4 -0.27,0.78 -0.49,1.13 -0.24,0.34 -0.53,0.62 -0.88,0.86 -0.34,0.23 -0.71,0.4 -1.12,0.51 0,-0.03 -0.01,-0.05 -0.01,-0.07 -0.02,-0.11 -0.03,-0.22 -0.05,-0.33 -0.02,-0.23 -0.04,-0.46 -0.03,-0.68 0,-0.31 0.05,-0.63 0.16,-0.93 0.03,-0.08 0.03,-0.16 -0.01,-0.24 -0.06,-0.12 -0.16,-0.18 -0.28,-0.19 -0.26,-0.01 -0.5,-0.07 -0.75,-0.16 -0.36,-0.14 -0.69,-0.34 -1,-0.56 -0.01,-0.01 -0.01,-0.01 -0.02,-0.02 0,-0.01 0.01,-0.02 0.01,-0.03 0.13,-0.21 0.27,-0.4 0.43,-0.59 0.26,-0.31 0.55,-0.56 0.93,-0.73 0.21,-0.09 0.25,-0.34 0.1,-0.5 -0.18,-0.21 -0.33,-0.43 -0.44,-0.68 -0.09,-0.19 -0.16,-0.39 -0.22,-0.59 -0.06,-0.17 -0.1,-0.35 -0.14,-0.52l0 -0.03c0.02,0 0.04,-0.01 0.06,-0.01 0.21,-0.02 0.43,-0.02 0.64,-0.01 0.03,0 0.07,0 0.11,0.01 0.88,0.1 1.62,0.46 2.21,1.14 0.31,0.36 0.53,0.76 0.68,1.21 0.02,0.05 0.03,0.1 0.05,0.15l0.13 0.63c0.04,0.41 0.02,0.82 -0.07,1.22z"/>
   <path class="fil0" d="M152.39 57.33l0.48 1.48c-1.01,0.23 -1.46,0.66 -1.36,1.31 0.05,0.3 0.18,0.52 0.39,0.66 0.21,0.15 0.47,0.2 0.76,0.15 0.53,-0.09 1.16,-0.63 1.87,-1.62l0.13 -0.18c0.55,-0.76 0.97,-1.29 1.28,-1.58 0.54,-0.52 1.13,-0.83 1.76,-0.93 0.71,-0.12 1.36,0.02 1.94,0.4 0.58,0.39 0.93,0.93 1.04,1.64 0.12,0.71 -0.04,1.32 -0.48,1.83 -0.4,0.47 -0.96,0.79 -1.69,0.96l-0.47 -1.52c0.85,-0.19 1.23,-0.55 1.15,-1.08 -0.09,-0.57 -0.46,-0.8 -1.09,-0.69 -0.6,0.1 -1.3,0.72 -2.1,1.88 -0.02,0.03 -0.04,0.06 -0.08,0.11 -0.49,0.71 -0.91,1.21 -1.24,1.5 -0.49,0.44 -1.07,0.71 -1.73,0.82 -0.74,0.12 -1.39,-0.01 -1.95,-0.38 -0.56,-0.38 -0.91,-0.93 -1.02,-1.66 -0.14,-0.83 0.03,-1.52 0.5,-2.07 0.43,-0.5 1.08,-0.84 1.92,-1.02z"/>
   <polygon class="fil0" points="150.76,64.47 161.18,63.82 161.44,68.01 159.93,68.1 159.77,65.52 157.04,65.69 157.16,67.55 155.65,67.64 155.53,65.78 152.42,65.98 152.58,68.56 151.02,68.65 "/>
   <polygon class="fil0" points="159.97,69.76 161.48,69.81 161.33,74.76 159.83,74.72 159.87,73.04 150.94,72.78 150.99,71.18 159.92,71.43 "/>
   <polygon class="fil0" points="150.78,75.69 161.15,76.93 160.65,81.1 159.15,80.92 159.46,78.35 156.74,78.02 156.52,79.88 155.02,79.69 155.24,77.85 152.15,77.47 151.84,80.04 150.28,79.85 "/>
   <path class="fil0" d="M148.57 87.11c0.15,-0.6 0.49,-1 1.03,-1.18 0.52,-0.18 1.23,-0.14 2.13,0.12l7.39 2.07 -0.43 1.55 -7.69 -2.15c-0.56,-0.16 -0.92,0.03 -1.07,0.58 -0.02,0.06 -0.03,0.12 -0.04,0.2 -0.01,0.08 -0.12,0.5 -0.33,1.26l-1.47 -0.53 0.48 -1.91z"/>
   <path class="fil0" d="M150.52 93.27l-0.45 1.14 4.26 1.08 0.04 -0.09 -3.85 -2.13zm-2.71 -3.35l9.1 5.41 -0.77 1.96 -10.34 -2.21 0.6 -1.55 2.22 0.53 0.59 -1.52 -1.98 -1.14 0.58 -1.47z"/>
   <path class="fil0" d="M147.66 97.39l4.75 2.46c0.72,0.37 1.19,0.86 1.4,1.46 0.22,0.62 0.15,1.28 -0.22,2 -0.71,1.38 -1.86,1.65 -3.45,0.83l-0.85 -0.44 0.71 -1.38 0.98 0.51c0.64,0.33 1.09,0.25 1.34,-0.24 0.26,-0.49 0.06,-0.9 -0.58,-1.24l-5.17 -2.68c-0.65,-0.33 -1.1,-0.26 -1.35,0.23 -0.26,0.49 -0.06,0.91 0.58,1.24l1.45 0.75 0.45 -0.87 1.18 0.61 -1.16 2.24 -4.67 -2.42 1.14 -0.63c-0.4,-0.6 -0.44,-1.2 -0.13,-1.81 0.68,-1.31 1.88,-1.52 3.6,-0.63z"/>
   <path class="fil0" d="M142.26 106l4.85 3.23c0.6,0.4 1.06,0.37 1.36,-0.09 0.31,-0.46 0.16,-0.89 -0.44,-1.29l-4.85 -3.23c-0.6,-0.4 -1.06,-0.37 -1.37,0.09 -0.31,0.46 -0.16,0.89 0.45,1.29zm6.6 0.42c0.68,0.45 1.09,0.99 1.23,1.6 0.15,0.64 0.01,1.3 -0.44,1.96 -0.43,0.65 -0.98,1.01 -1.65,1.09 -0.62,0.07 -1.27,-0.12 -1.93,-0.55l-4.46 -2.96c-0.72,-0.48 -1.18,-1.02 -1.38,-1.62 -0.22,-0.66 -0.09,-1.34 0.37,-2.03 0.91,-1.37 2.17,-1.52 3.78,-0.45l4.46 2.96z"/>
   <path class="fil0" d="M140.23 111.11l-0.78 0.94 3.71 2.36 0.06 -0.08 -2.99 -3.23zm-1.52 -4.03l6.94 7.99 -1.34 1.62 -9.13 -5.34 1.06 -1.28 1.94 1.2 1.04 -1.25 -1.52 -1.71 1.01 -1.22z"/>
   <path class="fil0" d="M136.42 113.88l-0.93 1.24c-0.77,-0.7 -1.38,-0.82 -1.85,-0.36 -0.21,0.21 -0.32,0.44 -0.31,0.7 0,0.26 0.11,0.5 0.32,0.71 0.38,0.38 1.18,0.58 2.41,0.58l0.21 0c0.94,0.01 1.62,0.05 2.03,0.13 0.74,0.14 1.33,0.44 1.78,0.9 0.51,0.52 0.77,1.12 0.79,1.82 0.02,0.7 -0.23,1.3 -0.74,1.8 -0.52,0.51 -1.11,0.73 -1.77,0.67 -0.61,-0.06 -1.2,-0.33 -1.76,-0.82l0.96 -1.26c0.65,0.58 1.16,0.69 1.55,0.31 0.41,-0.4 0.38,-0.83 -0.07,-1.29 -0.42,-0.43 -1.34,-0.64 -2.75,-0.63 -0.03,-0 -0.08,-0 -0.13,-0 -0.87,0.01 -1.51,-0.04 -1.94,-0.15 -0.64,-0.15 -1.2,-0.47 -1.67,-0.94 -0.52,-0.53 -0.79,-1.14 -0.81,-1.81 -0.02,-0.68 0.24,-1.28 0.76,-1.8 0.6,-0.59 1.26,-0.85 1.98,-0.79 0.66,0.06 1.31,0.39 1.94,0.97z"/>
   <polygon class="fil0" points="-0,23.5 -0,3.14 59.05,3.14 59.05,18.53 32.74,144.04 11.84,144.04 37.7,23.5 "/>
   <path class="fil0" d="M89.48 144.82c-8.38,0.26 -14.75,-2.79 -19.1,-9.16 -4.16,-6.1 -6.24,-15.49 -6.24,-28.16l0 -103.58 21.73 0 0 107.77c0,7.86 3.8,11.79 11.4,11.79 0.78,0 1.7,-0.06 2.78,-0.2 1.07,-0.13 6.93,-0.23 17.59,-0.29l-1.56 21.05 -26.6 0.78z"/>
  </g>
 </g>
</svg>
