<?xml version="1.0" encoding="UTF-8"?>
<!DOCTYPE svg PUBLIC "-//W3C//DTD SVG 1.1//EN" "http://www.w3.org/Graphics/SVG/1.1/DTD/svg11.dtd">
<!-- Creator: CorelDRAW 2018 (64 Bit Versão de avaliação) -->
<svg xmlns="http://www.w3.org/2000/svg" xml:space="preserve" width="92.6507mm" height="27.1194mm" version="1.1" style="shape-rendering:geometricPrecision; text-rendering:geometricPrecision; image-rendering:optimizeQuality; fill-rule:evenodd; clip-rule:evenodd"
viewBox="0 0 21868.33 6400.99"
 xmlns:xlink="http://www.w3.org/1999/xlink">
 <defs>
  <style type="text/css">
   <![CDATA[
    .fil2 {fill:#FF6A00}
    .fil0 {fill:#FEFEFE;fill-rule:nonzero}
    .fil1 {fill:#FF6A00;fill-rule:nonzero}
   ]]>
  </style>
 </defs>
 <g id="Camada_x0020_1">
  <metadata id="CorelCorpID_0Corel-Layer"/>
  <g id="_2494908669216">
   <g>
    <path class="fil0" d="M2988.78 5622.3l-1680.06 -3676.26 -0.87 4.25 -412.91 -952.5 203.29 -997.79 1890.55 4262.37 1890.6 -4262.37 448.79 2353.95 -436.66 881.95 -230.2 -1289.86 -1672.53 3676.26zm-1753.04 -3309.61l-807.53 4056.76 -5.69 0 -422.52 -978.93 804.3 -3947.84 431.44 870.01z"/>
    <path class="fil1" d="M9235.5 4844.7c0,247.97 -201,448.93 -448.95,448.93 -184.6,0 -343.14,-111.38 -412.13,-270.58 76.4,62.08 173.81,99.27 279.88,99.27 245.33,0 444.21,-198.86 444.21,-444.14 0,-69.61 -16.03,-135.46 -44.56,-194.09 110.13,81.78 181.55,212.88 181.55,360.61z"/>
    <path class="fil1" d="M4860.63 4844.7c0,247.97 -200.98,448.93 -448.95,448.93 -184.58,0 -343.14,-111.38 -412.11,-270.58 76.4,62.08 173.81,99.27 279.88,99.27 245.31,0 444.21,-198.86 444.21,-444.14 0,-69.61 -16.03,-135.46 -44.59,-194.09 110.16,81.78 181.55,212.88 181.55,360.61z"/>
    <circle class="fil2" cx="6595.98" cy="742.46" r="481.91"/>
    <polygon class="fil2" points="8617.38,5215.91 8353.62,5024.82 6610.8,6074.35 6674.48,6097.43 "/>
    <path class="fil2" d="M6136.87 5973.07c-5.62,-15.93 42.6,-252.53 66.42,-277.97l-1773.2 -806.25 37.1 57.38 1669.68 1026.85z"/>
    <circle class="fil2" cx="8783.39" cy="4888.86" r="481.91"/>
    <circle class="fil2" cx="6578.26" cy="5919.08" r="481.91"/>
    <circle class="fil2" cx="4408.55" cy="4888.86" r="481.91"/>
    <polygon class="fil2" points="6595.97,1127.99 6887.33,952.24 8866.93,4950.82 8811.77,4940.58 "/>
    <polygon class="fil2" points="6596,1127.99 6304.64,952.24 4325.04,4950.82 4380.17,4940.58 "/>
    <path class="fil1" d="M6086.31 3441.36c-37.27,-111.36 -33.21,-232.68 13.64,-344.75l14.8 -35.48 38.19 4.15c66.32,7.2 128.83,27.05 184.93,57.83 -11.71,45.25 -17.63,92.43 -17.32,140.7 0.52,75.29 16.19,147.85 45.29,214.22 -7.77,17.73 -14.59,35.83 -20.39,54.33 -76.76,-52.07 -165.46,-83.44 -259.14,-91.01z"/>
    <path class="fil1" d="M6863.25 3125.77c56.93,-32.74 120.82,-54.07 188.87,-62.15l38.19 -4.56 15.11 35.36c48.03,112.04 53.2,233.72 16.57,345.85 -96.89,4.98 -189.01,35.24 -268.7,87.52 -5.22,-15.74 -11.14,-31.23 -17.77,-46.36 30.07,-68.61 45.77,-143.67 45.22,-221.47 -0.28,-46.03 -6.25,-91.01 -17.49,-134.21z"/>
    <path class="fil1" d="M6598.33 2909.26c108.08,79.68 178.67,206.93 179.74,351.5 0.26,36.14 -3.87,71.28 -11.9,104.94l-1.44 -1.82 -1.42 -1.79 -1.44 -1.79 -1.44 -1.79 -1.46 -1.77 -1.25 -1.56 -0.21 -0.21 -1.46 -1.77 -1.49 -1.77 -1.46 -1.75 -0.45 -0.54 -2.57 -2.95 -1.49 -1.75 -1.09 -1.25 -0.45 -0.5 -1.51 -1.72 -1.56 -1.72 -1.53 -1.72 -0.19 -0.24 -1.35 -1.49 -1.58 -1.7 -1.56 -1.68 -1.58 -1.7 -1.58 -1.7 -1.58 -1.68 -1.53 -1.65 -0.05 -0.05 -1.61 -1.65 -1.63 -1.68 -1.63 -1.65 -0.61 -0.66 -0.99 -0.99 -1.65 -1.65 -1.63 -1.65 -1.32 -1.32 -0.33 -0.31 -1.68 -1.63 -1.65 -1.61 -1.68 -1.63 -0.38 -0.38 -1.3 -1.23 -1.7 -1.61 -1.7 -1.61 -1.09 -1.04 -0.61 -0.54 -1.72 -1.58 -1.72 -1.58 -1.72 -1.58 -0.09 -0.09 -1.65 -1.46 -1.72 -1.56 -1.77 -1.58 -0.83 -0.73 -0.92 -0.8 -1.79 -1.53 -1.77 -1.53 -1.61 -1.37 -0.17 -0.17 -1.79 -1.53 -1.79 -1.49 -1.79 -1.51 -0.59 -0.5 -1.23 -1.01 -1.82 -1.49 -1.84 -1.49 -1.37 -1.11 -0.47 -0.38 -0.02 -0.05 -3.66 -2.9 -1.84 -1.46 -0.33 -0.24 -1.56 -1.2 -1.86 -1.44 -1.89 -1.46 -1.09 -0.83 -0.8 -0.61 -1.89 -1.42 -3.8 -2.83 -61.82 -45.65 0 0 -61.25 46.43 -5.38 4.13 -1.06 0.83 -0.71 0.54 -3.54 2.81 -1.75 1.39 -0.35 0.28 -1.42 1.13 -1.72 1.42 -1.75 1.42 -1.39 1.13 -0.33 0.31 -1.7 1.42 -1.72 1.44 -1.72 1.46 -0.68 0.57 -1.01 0.87 -1.7 1.46 -1.68 1.46 -1.68 1.46 -5 4.44 -0.99 0.9 -0.66 0.59 -1.65 1.51 -1.63 1.51 -1.63 1.49 -0.33 0.31 -1.3 1.23 -3.21 3.02 -0.02 0.02 -1.27 1.2 -0.31 0.31 -1.61 1.56 -1.61 1.53 -1.58 1.53 -0.61 0.64 -0.94 0.92 -0.17 0.17 -2.97 2.97 -1.56 1.56 0 0 -1.56 1.58 -1.53 1.58 -1.53 1.58 -0.92 0.94 -0.59 0.64 -1.53 1.61 -1.49 1.58 -1.51 1.63 -0.31 0.31 -1.2 1.3 -1.49 1.63 -1.46 1.61 -1.2 1.32 -0.28 0.31 -1.46 1.63 -1.46 1.65 -1.46 1.63 -0.59 0.66 -0.85 0.99 -1.44 1.65 -1.44 1.65 -1.42 1.68 -1.42 1.68 -1.42 1.68 -1.39 1.68 -0.85 1.01 -0.57 0.66 -1.37 1.7 -1.39 1.68 -1.37 1.7 -0.28 0.35 -1.09 1.37 -1.37 1.7 -1.35 1.72c-7.58,-31.77 -11.66,-64.88 -11.9,-98.94 -0.97,-144.57 67.93,-272.78 174.9,-353.88z"/>
    <path class="fil1" d="M6322.98 3643.99c-1.72,18.29 -2.55,36.8 -2.43,55.47 0.54,78.01 17.32,153.04 48.43,221.33 -9.06,19.9 -16.92,40.41 -23.51,61.34l-4.18 -2.81 -4.2 -2.76 -4.22 -2.71 -1.58 -1.01 -2.67 -1.68 -2.95 -1.84 -1.32 -0.8c-5.71,-3.49 -11.47,-6.87 -17.3,-10.15l-4.2 -2.36 -0.19 -0.07 -4.39 -2.38c-8.8,-4.74 -17.75,-9.25 -26.81,-13.5l-3.97 -1.84 -0.59 -0.24 -9.13 -4.06 -2.31 -1.01 -2.29 -0.97 -3.78 -1.61 -0.83 -0.33 -4.65 -1.86 -0.64 -0.28 -4.01 -1.56 -4.65 -1.79 -3.66 -1.39 -1.04 -0.35 -4.7 -1.7 -0.45 -0.19 -4.27 -1.49 -1.96 -0.68 -2.76 -0.94 -0.52 -0.17c-4.58,-1.56 -9.18,-3.02 -13.81,-4.41l-1.77 -0.57 -3.02 -0.9 -3.3 -0.97 -1.51 -0.42 -4.84 -1.35 0 -0.02 -4.84 -1.3 -1.58 -0.42 -3.28 -0.85 -3.12 -0.78 -1.75 -0.42 -4.7 -1.13 -0.21 -0.05 -4.89 -1.16 -1.37 -0.31 -3.56 -0.76 -4.86 -1.04 -0.05 -0.02 -4.51 -0.92 -0.42 -0.07 -4.98 -0.94 -9.94 -1.77 -4.32 -0.73 -0.66 -0.09 -5.03 -0.76 -0.92 -0.14 -4.08 -0.59 -2.53 -0.35 -2.5 -0.33 -4.13 -0.52 -0.9 -0.09 -5.05 -0.59 -0.68 -0.07 -4.39 -0.47 -2.29 -0.24 -2.79 -0.26 -3.92 -0.35 -1.16 -0.09 -5.07 -0.4 -0.45 -0.02 -6.75 -0.45 -2.27 -0.14c-81.12,-98.31 -112.7,-223.69 -95.36,-343.31 21.15,-3.04 42.34,-4.58 63.8,-4.58 100.05,0 200.11,33.75 281.47,101.59z"/>
    <path class="fil1" d="M7118.92 3890.29l-8.43 0.54 -0.57 0.05 -4.39 0.33 -2.31 0.19 -2.64 0.24 -4.06 0.38 -0.87 0.09 -4.93 0.52 -0.85 0.09 -4.08 0.45 -2.57 0.31 -2.34 0.28 -4.3 0.57 -0.61 0.09 -4.86 0.68 -1.13 0.17 -3.75 0.57 -2.86 0.42 -2.03 0.33 -4.53 0.78 -0.33 0.05 -4.84 0.85 -1.37 0.26 -3.47 0.66 -3.07 0.59 -1.75 0.35 -4.77 0.97 -0.05 0.02 -4.79 1.04 -4.25 0.97 -0.54 0.12 -3.33 0.78 -1.44 0.33 -4.74 1.16 -0.26 0.07 -0.8 0.19 -5.59 1.44 -2.83 0.76 -3.56 0.97 -1.16 0.31 -4.7 1.32 -0.52 0.17 -4.18 1.23 -2.17 0.64 -2.5 0.78 -1.23 0.38 -3.42 1.09 -4.65 1.49 -3 0.99 -1.65 0.54 -2.38 0.83 -2.22 0.76 -4.01 1.42 -0.59 0.21 -4.6 1.68 -1.01 0.35 -3.54 1.35 -2.62 0.99 -1.94 0.76 -4.2 1.65 -0.33 0.14 -4.51 1.82 -1.25 0.52 -3.26 1.35 -2.83 1.23 -1.65 0.68 -4.41 1.94 -0.05 0.02 -4.46 2.01 -1.51 0.66 -2.93 1.37 -3.04 1.42 -1.35 0.66 -4.41 2.1 -0.19 0.09 -4.18 2.08 -4.2 2.1 -0.14 0.09 -3.23 1.65 -1.11 0.59 -4.32 2.27 -0.45 0.24 -3.85 2.08 -1.94 1.06 -2.34 1.3 -3.45 1.91 -0.83 0.47 -4.22 2.45 -0.66 0.35 -3.56 2.12 -2.15 1.25 -2.05 1.25 -3.61 2.2 -0.57 0.35 -4.15 2.6 -0.9 0.57 -3.21 2.05 -2.34 1.51 -1.79 1.18c-6.02,-18.2 -13.01,-35.99 -20.91,-53.37 32.12,-70.45 48.93,-147.99 48.36,-228.45 -0.12,-19.71 -1.3,-39.2 -3.45,-58.46 79.75,-63.35 176.36,-94.88 273.18,-94.88 21.31,0 42.67,1.53 63.82,4.58 17.25,119.6 -14.28,244.98 -95.38,343.31zm-355.44 -78.27c-3.97,-4.96 -8,-9.87 -12.16,-14.68 6.94,-15.04 14.78,-29.74 23.48,-44.07 -2.45,20.02 -6.25,39.63 -11.33,58.75z"/>
    <path class="fil1" d="M6763.48 3812.02c-29.67,-37.17 -64.53,-70.79 -104.14,-99.98l-61.82 -45.65 0 0 -61.25 46.4c-37.22,28.21 -70.05,60.33 -98.26,95.62l-0.42 -1.63 -0.42 -1.65 -0.4 -1.65 -0.02 -0.02 -0.4 -1.63 -0.4 -1.65 -0.4 -1.65 -0.35 -1.37 -0.05 -0.28 -0.4 -1.65 -0.35 -1.68 -1.11 -5 -0.35 -1.65 -0.35 -1.68 -0.19 -0.76 -0.17 -0.92 -0.33 -1.68 -0.33 -1.7 -0.64 -3.38 -0.33 -1.68 -0.59 -3.38 -0.05 -0.14 -0.26 -1.56 -0.26 -1.7 -0.31 -1.7 -0.24 -1.51 -0.02 -0.19 -0.26 -1.7 -0.28 -1.7 -0.24 -1.7 -0.19 -1.23 -0.05 -0.5 -0.26 -1.72 -0.24 -1.72 -0.21 -1.7 -0.42 -3.45 -0.21 -1.72 -0.21 -1.7 -0.07 -0.57 -0.12 -1.18 -0.19 -1.72 -0.19 -1.72 -0.17 -1.75 -0.05 -0.24 -0.14 -1.51 -0.14 -1.72 -0.17 -1.75 -0.14 -1.63 0 -0.09 -0.14 -1.75 -0.12 -1.77 -0.14 -1.72 -0.09 -1.32 -0.02 -0.45 -0.12 -1.72 -0.09 -1.77 -0.09 -1.75 -0.07 -0.99 -0.02 -0.76 -0.09 -1.77 -0.09 -1.75 -0.05 -1.79 -0.05 -0.66 -0.02 -1.09 -0.07 -1.75 -0.05 -1.79 -0.05 -1.77 0 -0.33 -0.02 -1.42 -0.05 -1.79 0 -1.77 -0.02 -1.77c-0.97,-144.43 67.93,-272.78 174.9,-353.81 108.08,79.59 178.67,206.97 179.74,351.54l0 1.86 0 3.73 0 1.16 -0.02 0.73 0 1.86 -0.02 1.86 -0.05 1.84 -0.02 0.42 -0.02 1.46 -0.05 1.84 -0.07 1.86 -0.05 1.56 -0.02 0.28 -0.07 1.86 -0.09 1.84 -0.09 1.84 -0.02 0.85 -0.07 0.99 -0.12 1.84 -0.12 1.84 -0.12 1.84 0 0.14 -0.12 1.72 -0.14 1.82 -0.14 1.82 -0.09 1.27 -0.07 0.57 -0.14 1.84 -0.19 1.82 -0.17 1.82 -0.05 0.54 -0.14 1.27 -0.19 1.84 -0.19 1.82 -0.19 1.65 0 0.17 -0.24 1.82 -0.21 1.79 -0.24 1.82 -0.09 0.94 -0.12 0.87 -0.26 1.79 -0.24 1.79 -0.28 1.79 -0.02 0.26 -0.21 1.56 -0.28 1.77 -0.28 1.79 -0.57 3.59 -0.31 1.77 -0.31 1.79 -0.09 0.66 -0.21 1.13 -0.33 1.77 -0.33 1.77 -0.68 3.54 -0.33 1.77 -0.35 1.77 -0.76 3.52 -0.35 1.77 -0.8 3.49 -0.4 1.75 -1.23 5.24 -0.42 1.72 -0.42 1.75 -0.45 1.75 -0.45 1.7 -0.45 1.75z"/>
    <path class="fil1" d="M6322.98 4093.84c-1.72,18.27 -2.55,36.73 -2.43,55.37 0.92,129.42 47.04,251.82 130.69,349.14 -12.84,1.11 -25.75,1.68 -38.64,1.68 -112.49,0 -225.01,-42.65 -310.99,-128.57 -102.13,-102.22 -143.15,-241.98 -123.89,-374.7 21.15,-3.04 42.34,-4.58 63.8,-4.58 100.05,0 200.11,33.68 281.47,101.66z"/>
    <path class="fil1" d="M6752.56 4499.23c83.81,-98.9 129.08,-223.02 128.19,-353.71 -0.12,-19.68 -1.3,-39.18 -3.45,-58.39 79.78,-63.49 176.36,-94.93 273.18,-94.93 21.31,0 42.67,1.53 63.82,4.58 19.14,132.72 -21.79,272.47 -123.92,374.7 -86.01,85.91 -198.5,128.57 -310.99,128.57 -8.97,0 -17.91,-0.26 -26.84,-0.8zm22.21 -296.12c-7.74,62.97 -28.87,121.84 -60.38,173.67 7.53,-60.64 27.64,-119.9 60.38,-173.67z"/>
    <path class="fil1" d="M6598.33 3794.77c108.08,79.54 178.67,206.93 179.74,351.35 0.8,120.92 -47.47,230.48 -125.71,310.57 -13.45,13.69 -31.7,20.58 -49.9,20.58 -17.96,0 -35.81,-6.54 -49.26,-19.9 -79.31,-79.02 -129.01,-187.88 -129.77,-308.8 -0.97,-144.47 67.93,-272.8 174.9,-353.81z"/>
    <path class="fil1" d="M6593.52 4999.7c-50.51,0 -91.39,-33.3 -91.39,-74.37l0 -272.97c0,-41.21 40.88,-74.51 91.39,-74.51 50.68,0 91.63,33.3 91.63,74.51l0 272.97c0,41.07 -40.95,74.37 -91.63,74.37z"/>
   </g>
   <g>
    <path class="fil0" d="M11036.76 1548.26l-486.67 0 0 -325.84 441.31 0 0 -120.97 -441.31 0 0 -298.34 478.43 0 0 -120.99 -589.79 0 0 987.12 598.03 0 0 -120.99zm840.36 -64.6l-408.31 -801.53 -129.25 0 0 987.12 105.86 0 0 -801.53 415.2 801.53 122.36 0 0 -987.12 -105.86 0 0 801.53zm790.87 -228.24l251.58 0c0,29.1 -1.37,54.99 -4.11,77.47 -2.76,22.21 -6.42,42.6 -11,60.71 -4.58,18.34 -11,35.07 -19.26,49.97 -8.24,15.11 -17.87,30 -28.87,44.68 -46.73,61.18 -109.07,91.65 -186.98,91.65 -90.28,0 -158.56,-33.45 -205.06,-100.15 -46.52,-66.68 -69.89,-165.2 -69.89,-295.82 0,-63 6.42,-119.6 19.24,-170.01 12.84,-50.18 30.94,-92.81 54.31,-128.09 23.37,-35.05 51.78,-62.1 85.23,-80.65 33.47,-18.79 70.81,-28.18 112.07,-28.18 58.65,0 108.6,16.5 149.86,49.5 11,9.16 20.84,18.55 29.55,28.18 8.71,9.63 16.5,20.63 23.37,33 6.87,12.37 12.84,26.34 17.87,41.94 5.05,15.58 10.31,33.45 15.81,53.6l105.86 0c-2.74,-18.32 -5.5,-34.6 -8.24,-48.81 -2.76,-14.19 -5.97,-27.26 -9.63,-39.18 -3.66,-11.9 -8.03,-23.13 -13.05,-33.68 -5.05,-10.53 -10.76,-21.76 -17.18,-33.68 -30.26,-53.39 -71.49,-95.31 -123.75,-126.02 -52.23,-30.47 -109.52,-45.84 -171.85,-45.84 -56.81,0 -108.83,12.84 -156.04,38.5 -47.21,25.66 -87.31,61.86 -120.52,108.62 -33.23,46.73 -58.89,102.65 -76.99,167.72 -18.1,65.07 -27.26,137.49 -27.26,217.22 0,85.25 10.31,159.49 30.92,222.72 20.63,63.26 52.94,120.99 96.94,173.25 32.08,38.5 67.6,66.68 106.54,84.55 38.94,17.87 84.1,26.81 135.41,26.81 61.41,0 117.78,-15.58 169.12,-46.76 21.08,-13.97 38.94,-28.18 53.63,-42.84 14.66,-14.66 31.6,-36.21 50.86,-64.84l24.74 128.31 71.49 0 0 -529.3 -354.71 0 0 115.47zm1295.4 292.84l-486.67 0 0 -325.84 441.31 0 0 -120.97 -441.31 0 0 -298.34 478.43 0 0 -120.99 -589.79 0 0 987.12 598.03 0 0 -120.99zm840.36 -64.6l-408.31 -801.53 -129.25 0 0 987.12 105.86 0 0 -801.53 415.2 801.53 122.36 0 0 -987.12 -105.86 0 0 801.53zm970.98 -394.59l-420.7 0 0 -406.94 -111.36 0 0 987.12 111.36 0 0 -459.2 420.7 0 0 459.2 111.36 0 0 -987.12 -111.36 0 0 406.94zm893.96 292.84l79.73 287.34 119.62 0 -292.84 -987.12 -125.1 0 -303.84 987.12 112.73 0 85.23 -287.34 324.47 0zm-291.47 -120.99l130.62 -437.2 120.99 437.2 -251.61 0zm877.49 -15.11l264.42 0c51.1,0 87.52,13.5 109.07,40.55 21.31,27.03 33,72.18 34.84,135.41 0,26.58 0.45,52.47 1.37,77.68 0.92,25.21 2.29,48.81 4.13,70.81 1.82,22 3.66,41.47 5.5,58.44 1.82,16.95 4.11,30.47 6.87,40.55l134.73 0 0 -22c-8.24,-5.5 -14.89,-11 -19.92,-16.5 -5.05,-5.5 -8.95,-11.92 -11.71,-19.24 -2.74,-7.34 -4.79,-15.81 -6.18,-25.44 -1.37,-9.63 -2.5,-22.23 -3.42,-37.81l-5.5 -178.72c-1.84,-28.42 -4.58,-52.47 -8.26,-72.18 -3.66,-19.71 -9.16,-36.66 -16.5,-50.86 -7.32,-14.21 -16.95,-26.13 -28.87,-35.76 -11.92,-9.61 -26.58,-18.55 -44,-26.81 20.87,-15.58 38.26,-31.39 52.26,-47.42 13.97,-16.05 25.66,-33.23 34.58,-51.55 9.18,-18.34 15.37,-38.5 19.02,-60.49 3.68,-22 5.5,-47.21 5.5,-75.62 0,-87.99 -22.45,-154.43 -67.13,-199.35 -44.92,-44.92 -110.67,-67.36 -197.53,-67.36l-374.63 0 0 987.12 111.36 0 0 -423.44zm0 -448.2l271.29 0c96.94,0 145.28,54.07 145.28,162.22 0,59.13 -13.29,102.2 -39.63,129.46 -26.6,27.26 -68.07,41.02 -124.88,41.02l-252.06 0 0 -332.71zm979.22 -115.49l-111.36 0 0 987.12 111.36 0 0 -987.12zm797.73 699.78l79.73 287.34 119.62 0 -292.84 -987.12 -125.1 0 -303.84 987.12 112.73 0 85.23 -287.34 324.47 0zm-291.47 -120.99l130.62 -437.2 120.99 437.2 -251.61 0zm1384.81 408.33l323.79 0c53.15,0 100.81,-11.68 143.44,-35.05 42.39,-23.39 78.6,-57.07 108.38,-101.07 29.79,-43.97 52.47,-97.15 68.52,-159.46 16.03,-62.34 24.05,-131.99 24.05,-208.98 0,-73.33 -8.03,-139.78 -24.05,-199.35 -16.05,-59.57 -38.73,-110.23 -68.52,-151.91 -29.79,-41.71 -65.55,-74.02 -107.02,-96.94 -41.71,-22.92 -88.44,-34.37 -140.67,-34.37l-327.92 0 0 987.12zm111.36 -871.63l204.17 0c77.68,0 137.25,32.31 178.96,97.15 41.47,64.84 62.34,158.56 62.34,280.92 0,58.44 -5.5,110.91 -16.5,157.64 -11,46.52 -26.36,86.15 -46.52,119.15 -20.16,32.76 -44.68,57.97 -73.31,75.15 -28.89,17.42 -61.41,26.13 -98.07,26.13l-211.06 0 0 -756.15zm1468.65 750.65l-486.67 0 0 -325.84 441.31 0 0 -120.97 -441.31 0 0 -298.34 478.43 0 0 -120.99 -589.79 0 0 987.12 598.03 0 0 -120.99z"/>
    <path class="fil0" d="M11911.7 2228.92l-457.4 0 -273.91 1472.97 -279.08 -1472.97 -462.55 0 0 1855.41 294.59 0 0 -1573.73 281.65 1573.73 312.69 0 289.42 -1573.73 0 1573.73 294.59 0 0 -1855.41zm627.93 1472.97l560.76 0 98.19 382.44 346.28 0 -537.49 -1855.41 -366.96 0 -542.66 1855.41 335.94 0 105.93 -382.44zm281.68 -1062.09l191.23 744.23 -387.63 0 196.4 -744.23zm1573.73 -80.11l459.98 0 0 -330.77 -1240.38 0 0 330.77 459.98 0 0 1524.64 320.43 0 0 -1524.64zm1762.39 -330.77l-1116.35 0 0 1855.41 1152.51 0 0 -330.77 -845.01 0 0 -478.05 744.25 0 0 -330.77 -744.25 0 0 -385.04 808.85 0 0 -330.77zm297.16 1855.41l307.5 0 0 -723.55 329.92 0c57.28,0 102.51,6.02 136.52,18.08 33.59,12.06 59.43,31.86 76.66,59.43 6.89,12.06 12.93,25 18.08,38.76 5.17,13.78 9.06,31.01 11.64,51.69 2.6,20.68 4.32,46.1 5.17,76.24 0.87,30.14 1.3,65.9 1.3,107.23 0,44.8 0.85,84 2.57,117.59 1.72,33.59 3.89,65.03 6.47,94.32 2.6,29.29 6.47,56.86 10.76,82.7 4.32,25.82 9.91,51.67 16.81,77.51l353.17 0 0 -49.09c-27.57,-12.06 -45.22,-33.16 -52.99,-63.33 -7.74,-30.14 -12.49,-85.7 -14.63,-166.66 0,-108.53 -1.72,-197.25 -5.17,-266.17 -3.45,-68.9 -12.06,-124.91 -25.85,-167.96 -13.78,-43.08 -33.59,-77.54 -59.86,-103.38 -25.85,-25.82 -60.31,-49.94 -103.81,-72.34 157.62,-77.54 236.45,-223.97 236.45,-439.3 0,-79.26 -11.21,-151.6 -33.61,-217.08 -22.38,-65.45 -54.69,-121.01 -97.32,-166.66 -42.23,-45.67 -93.04,-80.98 -152.48,-105.95 -59.86,-25 -125.76,-37.48 -198.12,-37.48l-769.2 0 0 1855.41zm307.5 -1041.41l0 -496.13 399.69 0c148.58,0 223.1,83.11 223.1,249.37 0,85.7 -19.83,148.16 -59.88,187.76 -39.61,39.2 -102.06,59.01 -186.49,59.01l-376.42 0zm1516.89 -814l-320.43 0 0 1855.41 320.43 0 0 -1855.41zm617.6 1472.97l560.76 0 98.19 382.44 346.28 0 -537.49 -1855.41 -366.96 0 -542.66 1855.41 335.94 0 105.93 -382.44zm281.68 -1062.09l191.23 744.23 -387.63 0 196.4 -744.23zm1219.71 -410.88l-320.43 0 0 1855.41 320.43 0 0 -1855.41zm217.05 1284.31c3.45,72.37 9.49,130.08 18.1,173.15 8.62,43.05 24.12,87.85 46.52,134.37 48.22,101.63 121.01,179.17 218.35,232.56 97.34,53.41 214.06,80.11 350.15,80.11 192.95,0 344.56,-53.39 454.81,-160.22 110.25,-106.8 165.39,-254.11 165.39,-441.87 0,-137.82 -31.01,-245.49 -93.47,-323.03 -62.45,-77.51 -164.51,-137.82 -306.65,-180.89l-374.27 -111.1c-59.01,-18.95 -100.34,-42.65 -124.88,-71.07 -24.12,-28.42 -36.18,-69.35 -36.18,-122.76 0,-70.62 23.67,-125.76 71.07,-165.36 47.37,-39.63 114.12,-59.46 200.27,-59.46 94.74,0 166.24,22.4 214.48,67.2 48.22,44.8 78.39,116.29 90.45,214.48l304.93 0c-12.06,-194.68 -69.35,-343.26 -171.85,-445.77 -102.51,-102.51 -245.07,-153.75 -427.66,-153.75 -182.62,0 -324.33,51.24 -425.09,153.75 -100.78,102.51 -151.18,245.07 -151.18,427.69 0,160.22 43.08,283.38 129.2,369.53 32.74,34.46 75.36,63.73 127.9,87.85 52.56,24.12 127.93,49.97 226.12,77.54l162.81 46.5c106.8,31.01 179.6,62.88 218.35,95.62 38.76,32.74 58.13,79.26 58.13,139.54 0,77.54 -26.69,136.54 -80.11,177.02 -53.39,40.48 -129.2,60.73 -227.39,60.73 -210.18,0 -321.31,-100.78 -333.37,-302.35l-304.93 0z"/>
    <polygon class="fil2" points="10275.11,4839.98 21868.22,4839.98 21868.22,4966.45 10275.11,4966.45 "/>
   </g>
  </g>
 </g>
</svg>
