<?xml version="1.0" encoding="UTF-8"?>
<!DOCTYPE svg PUBLIC "-//W3C//DTD SVG 1.1//EN" "http://www.w3.org/Graphics/SVG/1.1/DTD/svg11.dtd">
<!-- Creator: CorelDRAW 2018 (64 Bit Versão de avaliação) -->
<svg xmlns="http://www.w3.org/2000/svg" xml:space="preserve" width="21.875mm" height="8.5154mm" version="1.1" style="shape-rendering:geometricPrecision; text-rendering:geometricPrecision; image-rendering:optimizeQuality; fill-rule:evenodd; clip-rule:evenodd"
viewBox="0 0 2525.47 983.1"
 xmlns:xlink="http://www.w3.org/1999/xlink">
 <defs>
  <style type="text/css">
   <![CDATA[
    .fil0 {fill:#FEFEFE;fill-rule:nonzero}
   ]]>
  </style>
 </defs>
 <g id="Camada_x0020_1">
  <metadata id="CorelCorpID_0Corel-Layer"/>
  <g id="_1742587619232">
   <path class="fil0" d="M907.9 975.23l-42.09 0c-22.78,0 -45.56,-0.16 -68.33,0.13 -5.58,0.07 -10.09,-1.27 -13.51,-5.48 -7.03,-8.66 -14.58,-17.02 -20.61,-26.35 -5.95,-9.22 -8,-19.9 -7.98,-31.14 0.21,-76.16 0.27,-152.31 -0.1,-228.46 -0.05,-8.98 -1.74,-18.39 -4.77,-26.84 -13.89,-38.68 -56.66,-53.36 -91.94,-31.95 -16.96,10.29 -27.66,25.88 -35.04,43.84 -1.47,3.57 -1.12,8 -1.12,12.03 -0.06,93.5 -0.05,186.99 -0.05,280.49l0 11.89c-7.92,2.24 -102.1,2.91 -118.01,0.94l0 -463.9 118.05 0 0 47.39c34.67,-38.34 75.94,-55.65 124.78,-54.24 50.14,1.45 87.94,24.78 114.8,67.16 26.93,-42.47 68.53,-56.3 114.78,-60.68 18.95,-1.79 38.05,-1.96 56.82,2.45 37.56,8.82 63.16,31.77 78.09,66.89 6.83,16.07 10.51,32.78 10.45,50.5 -0.25,93.49 0.2,186.99 -0.37,280.49 -0.12,19.38 6.65,35 18.67,49.14 4.12,4.85 8.75,9.27 14.17,14.95 -3.34,0.33 -5.48,0.74 -7.64,0.75 -34,0.03 -68,-0.08 -102,0.14 -5.52,0.03 -9.69,-1.55 -13.63,-5.31 -9.2,-8.75 -17.25,-18.31 -22.61,-29.91 -3.74,-8.1 -5.78,-16.53 -5.77,-25.61 0.13,-72.41 0.2,-144.83 -0.06,-217.24 -0.05,-10.81 -0.79,-21.82 -2.99,-32.37 -8.07,-38.55 -36.01,-55.54 -74.35,-45.98 -28.22,7.03 -46.7,29.54 -50,61.25 -0.7,6.75 -0.99,13.57 -0.99,20.35 -0.08,69.7 0.31,139.39 -0.28,209.08 -0.16,19.29 6.29,35.13 18.32,49.33 4.32,5.09 9.13,9.77 15.32,16.3z"/>
   <path class="fil0" d="M1317.64 746.83c-0.02,24.91 4.96,48.25 14.94,69.07 8.34,17.42 19.64,32.53 35.34,44.04 27.83,20.37 62.02,20.69 90.28,0.92 14.22,-9.93 25.34,-22.77 33.06,-38.12 25.41,-50.42 25.4,-101.16 0.05,-151.61 -7.4,-14.72 -17.96,-27.14 -31.36,-36.98 -28.39,-20.85 -62.35,-21.25 -91.07,-0.96 -13.85,9.79 -24.38,22.56 -32.49,37.34 -13.01,23.75 -18.83,49.31 -18.76,76.29zm-114.06 -377.35l120.24 0 0 199.02c3.64,-3.27 5.83,-5.09 7.85,-7.09 23.16,-22.95 49.92,-39.89 81.89,-47.36 48.34,-11.3 92.39,-0.83 132.01,28.39 36.11,26.65 60.62,62.26 75.2,104.27 28.98,83.56 22.99,164.44 -21.94,241.37 -13.84,23.71 -32.26,43.66 -54.56,59.9 -57.62,41.97 -130.42,42.35 -188.2,0.51 -10.68,-7.74 -20.33,-16.92 -30.94,-25.84 -2.54,5.47 -0.79,11.53 -1.1,17.33 -0.31,5.76 -0.07,11.54 -0.07,17.33l0 18.88 -119.71 0c-2.15,-6.92 -2.94,-590.71 -0.68,-606.71z"/>
   <path class="fil0" d="M128.23 747.71c-0.37,19.18 3.11,39.11 10.6,58.33 7.67,19.6 18.69,36.93 35.11,50.43 30.65,25.21 69.21,25.39 99.99,0.48 12.88,-10.43 22.82,-23.31 29.96,-38.17 19.95,-41.54 21.91,-84.23 6.87,-127.64 -7.6,-21.91 -19.79,-40.92 -38.27,-55.38 -29.95,-23.41 -66.83,-23.33 -96.76,0.13 -12.77,10.01 -22.57,22.52 -30.05,36.83 -12.03,23.02 -17.63,47.61 -17.44,75zm306.14 228.71l-120.07 0 0 -53.66c-0.67,-0.25 -1.35,-0.52 -2.03,-0.77 -2.54,2.51 -5.07,5.05 -7.64,7.53 -25.51,24.69 -55,41.89 -90.42,47.82 -35.81,5.99 -69.67,0.12 -101.46,-17.29 -31.48,-17.24 -55.6,-42.19 -74.14,-72.63 -26.09,-42.86 -38.16,-89.69 -38.58,-139.65 -0.48,-56.49 13.31,-108.94 45.24,-156.02 18.84,-27.77 42.72,-50.12 72.86,-65.26 61.21,-30.76 133.06,-18.48 184.25,31.25 3.32,3.24 6.6,6.53 11.67,11.56l0 -56.41 120.32 0 0 463.54z"/>
   <path class="fil0" d="M1996.87 707.99c-6.55,-46.33 -56.17,-87.19 -105.71,-87.6 -49.4,-0.42 -99.53,40.43 -106.8,87.6l212.51 0zm104.37 82.34l-316.31 0c0.72,4.77 0.94,8.39 1.82,11.85 8.19,31.84 27.99,53.7 57.79,66.86 15.41,6.82 31.71,10.38 48.36,11.48 35.18,2.32 70,-0.33 103.93,-10.45 25.42,-7.59 48.7,-19.12 66.56,-39.59 0.35,-0.42 1.18,-0.4 2.68,-0.87 0.16,2.72 0.45,5.25 0.45,7.79 0.03,25.84 -0.1,51.68 0.13,77.5 0.06,5.82 -1.52,10.28 -5.47,14.6 -22.81,25.01 -51.39,39.95 -83.93,47.3 -61.5,13.91 -120.25,4.16 -176.36,-23.06 -44.52,-21.6 -80.34,-53.13 -104.89,-96.56 -23.75,-42.01 -30.7,-87.44 -26.1,-134.93 3.71,-38.36 14.7,-74.6 34.14,-107.99 28.41,-48.78 67.85,-85.21 122.38,-102.03 71.41,-22.03 136.69,-7.71 193.83,39.84 48.97,40.77 75.35,94.41 83.62,157.27 3.04,23.06 2.68,46.1 -0.38,69.12 -0.5,3.65 -1.35,7.25 -2.24,11.87z"/>
   <path class="fil0" d="M2388.46 510.51l137 0c-54.62,155.71 -109.28,310.43 -163.79,465.37l-133.64 0c-51.5,-154.38 -103.13,-309.14 -154.78,-463.94 7.94,-2.17 126.72,-2.78 140.29,-0.8 28.74,107.16 57.55,214.63 86.37,322.11l2.02 0.24c29.04,-107.28 57.33,-214.76 86.53,-322.98z"/>
   <path class="fil0" d="M1667.36 183.24c-11.95,-2.26 -22.49,-4.26 -34.2,-6.48 8.64,-47.17 17.1,-93.47 25.68,-140.33 2.76,0 5.07,-0.33 7.25,0.06 18.03,3.28 36.17,6.12 54,10.31 8.4,1.99 16.83,5.62 24.13,10.29 14.02,8.96 18.88,22.72 15.99,38.92 -2.9,16.19 -14.05,27.08 -30.32,30.46 -1.6,0.33 -3.2,0.69 -6.47,1.4 14.2,13.96 18.43,32.18 27.26,47.93 3.9,6.94 9.39,13 14.51,19.94 -0.99,0.44 -2.87,1.6 -4.93,2.14 -10.6,2.71 -20.94,1.06 -30.99,-2.61 -7.69,-2.82 -13.29,-8.37 -16.43,-15.85 -3.27,-7.8 -5.83,-15.92 -8.59,-23.93 -4.4,-12.75 -8.72,-25.53 -13.24,-38.81 4.38,-0.74 9.92,-1.32 15.27,-2.64 8.13,-2.02 13.72,-7.04 16.31,-15.25 3.78,-11.89 -0.3,-21.2 -12.03,-25.19 -6.65,-2.27 -13.74,-3.23 -21.95,-5.09 -7.12,38.46 -14.07,75.98 -21.27,114.76z"/>
   <path class="fil0" d="M1001.06 152.87c-17.53,17.78 -43.61,17.83 -59.47,0.7 -3.91,-4.23 -7.3,-8.94 -10.94,-13.42 -9.35,-11.48 -18.73,-22.94 -28.16,-34.51 3.68,-1.97 8.66,-4.13 13.07,-7.13 9.97,-6.79 13.03,-16.69 9.2,-27.58 -2.66,-7.56 -7.95,-12.11 -15.87,-12 -8.04,0.12 -16.04,1.5 -25.2,2.45 6.8,38.79 13.39,76.39 20.18,115.07 -11.38,2 -22.24,3.9 -34.32,6.03 -8.42,-47.53 -16.66,-94.1 -25.1,-141.74 16.58,-2.94 32.13,-6.1 47.81,-8.36 10.34,-1.49 20.94,-2.84 31.31,-2.23 19.75,1.14 32.05,12 36.34,29.92 4.18,17.51 -2.62,32.46 -19.51,42.89 -0.85,0.52 -1.67,1.12 -3.57,2.4 15.02,5.77 24.5,17.42 34.85,27.99 8.35,8.5 17.03,16.43 29.38,19.51z"/>
   <path class="fil0" d="M1975.4 147.51l-2.17 -0.65c-9.79,15.48 -19.77,30.85 -29.95,47.32 10.17,3.16 18.7,5.82 28.6,8.91 1.25,-19.68 2.39,-37.64 3.52,-55.59zm29 124.66c-12.97,-4.08 -23.91,-7.52 -35.1,-11.04l0 -29.56c-13.57,-4.29 -27.05,-8.55 -41.33,-13.08 -5.31,8.09 -10.46,15.93 -16.06,24.46 -10.43,-3.23 -20.67,-6.41 -30.92,-9.58 2.44,-8 62.77,-98.59 83.05,-124.85 14.26,4.47 28.98,9.07 44.43,13.91 -1.35,49.77 -2.69,98.86 -4.08,149.73z"/>
   <path class="fil0" d="M1532.96 51.13c-0.72,-0.15 -1.43,-0.3 -2.15,-0.45 -6.64,17.14 -14.04,33.99 -20.02,52.8 10.58,-0.21 19.55,3.17 29.31,1.92 -2.48,-18.85 -4.81,-36.56 -7.15,-54.26zm-19.19 -36.26c15.81,1.73 30.89,3.39 46.85,5.15 8.23,48.89 16.38,97.29 24.75,147 -12.71,0.29 -24.48,-2.24 -37.02,-3.49 -1.51,-9.51 -2.93,-18.46 -4.55,-28.7 -14.17,-1.63 -28.49,-3.28 -43.63,-5.02 -3.74,9.05 -7.32,17.72 -11.26,27.22 -11,-1.26 -21.94,-2.52 -33.97,-3.89 19.94,-46.88 39.29,-92.35 58.82,-138.27z"/>
   <path class="fil0" d="M1297.74 0l0 27.92c-22.46,0.28 -44.97,0.54 -67.76,0.81l0 30.06 54.79 0 0 26.65c-17.68,0.52 -35.44,1.05 -53.92,1.59l0 30.02 70.16 0 0 27.3 -105.06 0c-0.7,-47.2 -1.42,-94.26 -2.14,-142.5 34.84,-0.61 68.65,-1.21 103.92,-1.85z"/>
   <path class="fil0" d="M723.65 126.72c18.01,-4.33 35.34,-8.5 53.6,-12.9 2.26,8.77 4.35,16.89 6.81,26.45 -17.86,4.58 -35.39,9.09 -53.68,13.77 2.44,9.88 4.68,19.01 7.26,29.52 22.71,-5.51 44.96,-10.91 68.39,-16.59 2.71,8.75 4.28,17.47 4.68,27.28 -33.2,8.19 -66.07,16.3 -100.34,24.75 -11.52,-46.62 -22.88,-92.57 -34.58,-139.87 33.7,-8.35 66.82,-16.56 101.16,-25.05 2.31,8.97 4.46,17.33 6.87,26.69 -22.59,5.7 -44.52,11.22 -67.28,16.97 2.41,9.84 4.64,18.9 7.11,28.97z"/>
   <path class="fil0" d="M1086.71 118.68c5.32,-37.04 10.64,-74.07 16.07,-111.82 11.89,-1.29 23.24,-2.52 36.22,-3.93 -3.64,25.78 -9.26,50.04 -13.89,74.45 -4.61,24.29 -9.37,48.56 -14.2,73.51 -15.62,1.72 -30.72,3.39 -46.68,5.16 -19.37,-45.95 -38.58,-91.48 -58.38,-138.44 13.75,-1.54 26.43,-2.93 40.17,-4.46 12.9,35.54 25.64,70.64 38.39,105.76 0.77,-0.08 1.54,-0.16 2.31,-0.24z"/>
   <path class="fil0" d="M605.72 101.71c3.04,8.21 5.82,15.76 8.35,22.59 -12.33,2.82 -24.11,4.61 -35.27,8.28 -13.43,4.42 -23.17,13.84 -24.72,28.41 -2.12,19.85 3.63,37.75 18.15,51.94 7.46,7.28 17.18,9.4 27.42,8.21 14.93,-1.72 28.11,-7.53 39.39,-17.54 1.77,-1.56 3.61,-3.04 5.45,-4.5 0.2,-0.15 0.62,-0.02 0.95,-0.02 4.76,13.12 0.9,26.65 -11.04,36.96 -12.3,10.61 -27.11,15.34 -42.99,16.58 -24.9,1.92 -44.52,-8.02 -58.27,-28.55 -12.68,-18.91 -18.81,-39.76 -15.19,-62.82 2.79,-17.73 11.74,-31.74 26.15,-42.1 18.02,-12.97 38.4,-18.15 61.63,-17.43z"/>
   <path class="fil0" d="M1348.7 120.28c3.96,0.85 7.82,1.82 11.72,2.52 13.48,2.38 20.05,-2.6 20.78,-16.34 0.96,-17.95 1.47,-35.92 2.18,-53.87 0.63,-15.87 1.29,-31.74 1.94,-47.7l34.25 0c0,7.07 0.2,13.09 -0.03,19.1 -1.04,26.76 -1.93,53.53 -3.48,80.28 -0.47,8.35 -1.65,17.04 -4.57,24.8 -7.64,20.3 -36.85,27.49 -53.87,13.95 -6.67,-5.32 -9.37,-12 -8.92,-22.73z"/>
   <path class="fil0" d="M1872.91 80.8c-11.43,47.24 -22.5,92.97 -33.83,139.8 -6.15,-1.42 -11.67,-2.67 -17.16,-3.96 -5.24,-1.25 -10.46,-2.54 -16.8,-4.09 11.28,-46.68 22.4,-92.67 33.79,-139.83 11.44,2.72 22.13,5.26 33.99,8.08z"/>
  </g>
 </g>
</svg>
