<?xml version="1.0" encoding="UTF-8"?>
<!DOCTYPE svg PUBLIC "-//W3C//DTD SVG 1.1//EN" "http://www.w3.org/Graphics/SVG/1.1/DTD/svg11.dtd">
<!-- Creator: CorelDRAW 2018 (64 Bit Versão de avaliação) -->
<svg xmlns="http://www.w3.org/2000/svg" xml:space="preserve" width="7.2713mm" height="8.0949mm" version="1.1" style="shape-rendering:geometricPrecision; text-rendering:geometricPrecision; image-rendering:optimizeQuality; fill-rule:evenodd; clip-rule:evenodd"
viewBox="0 0 74.12 82.51"
 xmlns:xlink="http://www.w3.org/1999/xlink">
 <defs>
  <style type="text/css">
   <![CDATA[
    .fil0 {fill:#FEFEFE;fill-rule:nonzero}
    .fil1 {fill:#FF6A00;fill-rule:nonzero}
   ]]>
  </style>
 </defs>
 <g id="Camada_x0020_1">
  <metadata id="CorelCorpID_0Corel-Layer"/>
  <g id="_1742658149472">
   <path class="fil0" d="M1.59 0l61.76 0 0 50.01c-1,-0.49 -2.07,-0.87 -3.17,-1.14l0 -45.69 -57 0 0 71.83 40.54 0c1.01,1.22 2.19,2.29 3.5,3.17l-47.21 0 0 -78.18 1.59 0z"/>
   <path class="fil0" d="M23.84 22.93c-0.58,0 -1.06,-0.47 -1.06,-1.06 0,-0.58 0.47,-1.06 1.06,-1.06l27.15 0c0.58,0 1.06,0.47 1.06,1.06 0,0.58 -0.47,1.06 -1.06,1.06l-27.15 0z"/>
   <path class="fil0" d="M12.57 22.93c-0.58,0 -1.06,-0.47 -1.06,-1.06 0,-0.58 0.47,-1.06 1.06,-1.06l5.18 0c0.58,0 1.06,0.47 1.06,1.06 0,0.58 -0.47,1.06 -1.06,1.06l-5.18 0z"/>
   <path class="fil0" d="M23.84 34.58c-0.58,0 -1.06,-0.47 -1.06,-1.06 0,-0.58 0.47,-1.06 1.06,-1.06l27.15 0c0.58,0 1.06,0.47 1.06,1.06 0,0.58 -0.47,1.06 -1.06,1.06l-27.15 0z"/>
   <path class="fil0" d="M12.57 34.58c-0.58,0 -1.06,-0.47 -1.06,-1.06 0,-0.58 0.47,-1.06 1.06,-1.06l5.18 0c0.58,0 1.06,0.47 1.06,1.06 0,0.58 -0.47,1.06 -1.06,1.06l-5.18 0z"/>
   <path class="fil0" d="M23.84 46.23c-0.58,0 -1.06,-0.47 -1.06,-1.06 0,-0.58 0.47,-1.06 1.06,-1.06l27.15 0c0.58,0 1.06,0.47 1.06,1.06 0,0.58 -0.47,1.06 -1.06,1.06l-27.15 0z"/>
   <path class="fil0" d="M12.57 46.23c-0.58,0 -1.06,-0.47 -1.06,-1.06 0,-0.58 0.47,-1.06 1.06,-1.06l5.18 0c0.58,0 1.06,0.47 1.06,1.06 0,0.58 -0.47,1.06 -1.06,1.06l-5.18 0z"/>
   <path class="fil1" d="M56.27 46.81c4.93,0 9.39,2 12.62,5.23 3.23,3.23 5.23,7.69 5.23,12.62 0,4.93 -2,9.39 -5.23,12.62 -3.23,3.23 -7.69,5.23 -12.62,5.23 -4.93,0 -9.39,-2 -12.62,-5.23 -3.23,-3.23 -5.23,-7.69 -5.23,-12.62 0,-4.93 2,-9.39 5.23,-12.62 3.23,-3.23 7.69,-5.23 12.62,-5.23zm10.38 7.47c-2.66,-2.66 -6.33,-4.3 -10.38,-4.3 -4.05,0 -7.72,1.64 -10.38,4.3 -2.66,2.66 -4.3,6.33 -4.3,10.38 0,4.05 1.64,7.72 4.3,10.38 2.66,2.66 6.33,4.3 10.38,4.3 4.05,0 7.72,-1.64 10.38,-4.3 2.66,-2.66 4.3,-6.33 4.3,-10.38 0,-4.05 -1.64,-7.72 -4.3,-10.38z"/>
   <path class="fil1" d="M48.85 66.78c-1.17,0 -2.12,-0.95 -2.12,-2.12 0,-1.17 0.95,-2.12 2.12,-2.12l5.3 0 0 -5.3c0,-1.17 0.95,-2.12 2.12,-2.12 1.17,0 2.12,0.95 2.12,2.12l0 5.3 5.3 0c1.17,0 2.12,0.95 2.12,2.12 0,1.17 -0.95,2.12 -2.12,2.12l-5.3 0 0 5.3c0,1.17 -0.95,2.12 -2.12,2.12 -1.17,0 -2.12,-0.95 -2.12,-2.12l0 -5.3 -5.3 0z"/>
  </g>
 </g>
</svg>
