<?xml version="1.0" encoding="UTF-8"?>
<!DOCTYPE svg PUBLIC "-//W3C//DTD SVG 1.1//EN" "http://www.w3.org/Graphics/SVG/1.1/DTD/svg11.dtd">
<!-- Creator: CorelDRAW 2018 (64 Bit Versão de avaliação) -->
<svg xmlns="http://www.w3.org/2000/svg" xml:space="preserve" width="9.1754mm" height="9.1628mm" version="1.1" style="shape-rendering:geometricPrecision; text-rendering:geometricPrecision; image-rendering:optimizeQuality; fill-rule:evenodd; clip-rule:evenodd"
viewBox="0 0 142.52 142.32"
 xmlns:xlink="http://www.w3.org/1999/xlink">
 <defs>
  <style type="text/css">
   <![CDATA[
    .fil0 {fill:#FEFEFE}
   ]]>
  </style>
 </defs>
 <g id="Camada_x0020_1">
  <metadata id="CorelCorpID_0Corel-Layer"/>
  <g id="_1742685460528">
   <path class="fil0" d="M35.58 39.9l0 97.9c0,2.16 2.08,4.52 4.72,4.52l77.45 0c1.04,0 2.12,-0.61 2.87,-1.26 0.73,-0.63 1.65,-2.24 1.65,-3.46l0 -83.94c0,-0.96 -2.03,-0.59 -2.95,-0.59 -1.18,0 -2.36,-0 -3.54,0 -4.25,0 -7.39,-0.97 -9.65,-4.51 -0.35,-0.56 -0.32,-0.37 -0.66,-1.11 -1.6,-3.45 -1.09,-7.88 -1.09,-12.08l-64.28 0c-2.15,0 -4.52,2.37 -4.52,4.52zm10.68 86.54c-1.6,0 -2.9,-1.3 -2.9,-2.9 0,-1.6 1.3,-2.9 2.9,-2.9l65.12 0c1.6,0 2.9,1.3 2.9,2.9 0,1.6 -1.3,2.9 -2.9,2.9l-65.12 0zm0 -10.44c-1.6,0 -2.9,-1.3 -2.9,-2.9 0,-1.6 1.3,-2.9 2.9,-2.9l65.12 0c1.6,0 2.9,1.3 2.9,2.9 0,1.6 -1.3,2.9 -2.9,2.9l-65.12 0zm0 -10.44c-1.6,0 -2.9,-1.3 -2.9,-2.9 0,-1.6 1.3,-2.9 2.9,-2.9l65.12 0c1.6,0 2.9,1.3 2.9,2.9 0,1.6 -1.3,2.9 -2.9,2.9l-65.12 0zm0 -10.44c-1.6,0 -2.9,-1.3 -2.9,-2.9 0,-1.6 1.3,-2.9 2.9,-2.9l65.12 0c1.6,0 2.9,1.3 2.9,2.9 0,1.6 -1.3,2.9 -2.9,2.9l-65.12 0zm0 -10.44c-1.6,0 -2.9,-1.3 -2.9,-2.9 0,-1.6 1.3,-2.9 2.9,-2.9l65.12 0c1.6,0 2.9,1.3 2.9,2.9 0,1.6 -1.3,2.9 -2.9,2.9l-65.12 0zm0 -10.44c-1.6,0 -2.9,-1.3 -2.9,-2.9 0,-1.6 1.3,-2.9 2.9,-2.9l65.12 0c1.6,0 2.9,1.3 2.9,2.9 0,1.6 -1.3,2.9 -2.9,2.9l-65.12 0zm0 -10.44c-1.6,0 -2.9,-1.3 -2.9,-2.9 0,-1.6 1.3,-2.9 2.9,-2.9l65.12 0c1.6,0 2.9,1.3 2.9,2.9 0,1.6 -1.3,2.9 -2.9,2.9l-65.12 0zm0 -10.44c-1.6,0 -2.9,-1.3 -2.9,-2.9 0,-1.6 1.3,-2.9 2.9,-2.9l42.08 0c1.6,0 2.9,1.3 2.9,2.9 0,1.6 -1.3,2.9 -2.9,2.9l-42.08 0z"/>
   <path class="fil0" d="M55.83 17.1l0 0.59 28.31 0c3.46,0 4.73,1.52 6.37,3.06 0.03,0.03 0.07,0.07 0.1,0.09l5.24 5.18c0.03,0.03 0.07,0.07 0.1,0.09l3.44 3.44c1.85,1.87 1.66,0.54 6.17,0.9 3.46,0.28 6.02,3.75 8.41,6.14 1.69,1.69 3.23,3.23 4.91,4.91 2.4,2.4 7.21,6.46 7.92,9.18 0.19,0.71 0.39,1.28 0.39,2.17l0 66.64 10.42 0c1.44,0 2.55,-0.66 3.38,-1.34 0.47,-0.38 0.67,-0.84 0.99,-1.37 0.33,-0.55 0.55,-0.98 0.55,-1.81l0 -84.72 -4.32 -0.2c-4.4,-0.05 -6.99,0.66 -10.58,-2.99 -3.45,-3.51 -2.87,-7.93 -2.79,-12.94 0.02,-0.87 0.23,-1.76 -0.6,-1.76l-62.31 0c-2.45,0 -4.33,0.69 -5.38,2.68 -0.21,0.41 -0.72,1.56 -0.72,2.03z"/>
   <path class="fil0" d="M15.14 27.52l0 97.31c0,1.45 0.98,3 1.82,3.68 1.09,0.87 2.38,1.23 4.27,1.23 11.03,0 9.44,0.79 9.44,-2.75l0 -85.12c0,-2.84 0.14,-3.78 1.07,-5.81 0.75,-1.61 1.82,-2.7 3.16,-3.72l2.17 -1.17c0.59,-0.22 2.2,-0.71 2.83,-0.71l44.23 0 0 -7.86 -63.89 0c-2.99,0 -5.11,2.61 -5.11,4.91z"/>
   <path class="fil0" d="M-0 4.13l0 97.9c0,2.63 2.36,4.72 4.52,4.72l5.9 0 0 -79.81c0,-2.62 1.68,-5.28 3.11,-6.52 2,-1.74 4.29,-2.72 7.11,-2.72l29.32 0.03c2.01,-0.02 0.63,-0.64 1.63,-3.29 0.43,-1.15 1.01,-2.36 1.74,-3.18 0.19,-0.21 0.38,-0.43 0.56,-0.62l0.3 -0.29c3.51,-3.26 6.26,-2.67 10.3,-2.67 0.79,0 1.58,-0.01 2.36,0 2.55,0.04 1.96,1.01 1.96,-7.67l-65.26 0c-1.22,0 -3.54,2.11 -3.54,4.13z"/>
   <path class="fil0" d="M118.54 48.36c-0.15,-0.64 -0.23,-0.68 -0.56,-1.01l-6.4 -6.37c-0.65,-0.64 -1.42,-1.65 -2.28,-1.85 0,3.81 -0.45,5.6 1.62,7.62 1.98,1.93 3.93,1.62 7.62,1.62z"/>
   <path class="fil0" d="M138.78 25.36c-0.09,-0.87 -0.51,-0.94 -1.46,-1.88l-4.81 -4.82c-0.83,-0.79 -1.83,-2.03 -2.77,-2.53 0,3.49 -0.57,5.6 1.42,7.62 2.13,2.17 4.26,1.62 7.62,1.62z"/>
   <path class="fil0" d="M74.31 7.67c4.73,0 4.32,0.4 0.71,-3.26 -0.34,-0.35 -0.23,-0.25 -0.61,-0.57 -0.56,-0.48 -0.03,-0.25 -0.69,-0.49 0,1.86 -0.38,4.32 0.59,4.32z"/>
   <path class="fil0" d="M89.05 30.47l3.93 0c-0.08,-0.9 -0.66,-1.15 -1.72,-2.21 -0.61,-0.61 -1.37,-1.69 -2.21,-1.92l0 4.13z"/>
  </g>
 </g>
</svg>
