<?xml version="1.0" encoding="UTF-8"?>
<!DOCTYPE svg PUBLIC "-//W3C//DTD SVG 1.1//EN" "http://www.w3.org/Graphics/SVG/1.1/DTD/svg11.dtd">
<!-- Creator: CorelDRAW 2018 (64 Bit Versão de avaliação) -->
<svg xmlns="http://www.w3.org/2000/svg" xml:space="preserve" width="14.6744mm" height="14.6542mm" version="1.1" style="shape-rendering:geometricPrecision; text-rendering:geometricPrecision; image-rendering:optimizeQuality; fill-rule:evenodd; clip-rule:evenodd"
viewBox="0 0 1469.3 1467.28"
 xmlns:xlink="http://www.w3.org/1999/xlink">
 <defs>
  <style type="text/css">
   <![CDATA[
    .fil0 {fill:#FEFEFE}
   ]]>
  </style>
 </defs>
 <g id="Camada_x0020_1">
  <metadata id="CorelCorpID_0Corel-Layer"/>
  <g id="_1742685448944">
   <path class="fil0" d="M366.82 411.41l0 1009.26c0,22.23 21.48,46.61 48.63,46.61l798.49 0c10.71,0 21.88,-6.33 29.57,-13 7.52,-6.52 17.04,-23.06 17.04,-35.65l0 -865.37c0,-9.89 -20.93,-6.09 -30.4,-6.08 -12.16,0.01 -24.32,-0.02 -36.48,0 -43.78,0.05 -76.22,-10 -99.47,-46.45 -3.65,-5.73 -3.32,-3.82 -6.84,-11.4 -16.49,-35.61 -11.23,-81.21 -11.23,-124.55l-662.71 0c-22.15,0 -46.61,24.47 -46.61,46.62zm110.05 892.21c-16.52,0 -29.92,-13.4 -29.92,-29.93 0,-16.52 13.4,-29.92 29.92,-29.92l671.32 0c16.53,0 29.93,13.4 29.93,29.92 0,16.53 -13.4,29.93 -29.93,29.93l-671.32 0zm0 -107.67c-16.52,0 -29.92,-13.4 -29.92,-29.92 0,-16.53 13.4,-29.93 29.92,-29.93l671.32 0c16.53,0 29.93,13.4 29.93,29.93 0,16.52 -13.4,29.92 -29.93,29.92l-671.32 0zm0 -107.67c-16.52,0 -29.92,-13.4 -29.92,-29.92 0,-16.52 13.4,-29.93 29.92,-29.93l671.32 0c16.53,0 29.93,13.41 29.93,29.93 0,16.52 -13.4,29.92 -29.93,29.92l-671.32 0zm0 -107.67c-16.52,0 -29.92,-13.4 -29.92,-29.92 0,-16.52 13.4,-29.92 29.92,-29.92l671.32 0c16.53,0 29.93,13.4 29.93,29.92 0,16.52 -13.4,29.92 -29.93,29.92l-671.32 0zm0 -107.67c-16.52,0 -29.92,-13.4 -29.92,-29.92 0,-16.52 13.4,-29.92 29.92,-29.92l671.32 0c16.53,0 29.93,13.4 29.93,29.92 0,16.52 -13.4,29.92 -29.93,29.92l-671.32 0zm0 -107.66c-16.52,0 -29.92,-13.4 -29.92,-29.93 0,-16.52 13.4,-29.92 29.92,-29.92l671.32 0c16.53,0 29.93,13.4 29.93,29.92 0,16.53 -13.4,29.93 -29.93,29.93l-671.32 0zm0 -107.67c-16.52,0 -29.92,-13.4 -29.92,-29.92 0,-16.53 13.4,-29.93 29.92,-29.93l671.32 0c16.53,0 29.93,13.4 29.93,29.93 0,16.52 -13.4,29.92 -29.93,29.92l-671.32 0zm0 -107.67c-16.52,0 -29.92,-13.4 -29.92,-29.92 0,-16.52 13.4,-29.92 29.92,-29.92l433.82 0c16.53,0 29.93,13.4 29.93,29.92 0,16.52 -13.4,29.92 -29.93,29.92l-433.82 0z"/>
   <path class="fil0" d="M575.56 176.32l0 6.08 291.84 0c35.71,0 48.74,15.65 65.69,31.58 0.3,0.29 0.75,0.69 1.05,0.97l54.01 53.41c0.3,0.28 0.74,0.69 1.04,0.98l35.43 35.51c19.06,19.31 17.06,5.6 63.64,9.31 35.72,2.85 62.06,38.69 86.67,63.3 17.38,17.39 33.28,33.28 50.66,50.66 24.77,24.77 74.29,66.55 81.63,94.69 1.93,7.37 4,13.15 4,22.35l0 687.03 107.41 0c14.89,0 26.32,-6.78 34.86,-13.78 4.82,-3.96 6.94,-8.66 10.17,-14.15 3.36,-5.7 5.63,-10.14 5.63,-18.69l0 -873.47 -44.51 -2.11c-45.36,-0.56 -72.09,6.85 -109.05,-30.78 -35.6,-36.24 -29.62,-81.77 -28.77,-133.36 0.15,-9.03 2.39,-18.17 -6.16,-18.17l-642.43 0c-25.22,0 -44.63,7.15 -55.42,27.67 -2.21,4.2 -7.41,16.1 -7.41,20.98z"/>
   <path class="fil0" d="M156.05 283.73l0 1003.18c0,14.9 10.05,30.94 18.77,37.97 11.18,9.02 24.55,12.7 44.06,12.7 113.71,0 97.33,8.11 97.27,-28.38l0 -877.52c0,-29.33 1.39,-39.02 11.07,-59.87 7.72,-16.64 18.74,-27.8 32.59,-38.34l22.41 -12.05c6.1,-2.28 22.65,-7.3 29.18,-7.3l456 0 0 -81.06 -658.65 0c-30.83,0 -52.7,26.94 -52.7,50.66z"/>
   <path class="fil0" d="M-0 42.56l0 1009.26c0,27.11 24.31,48.64 46.61,48.64l60.8 0 0 -822.81c0,-27 17.35,-54.45 32.06,-67.26 20.62,-17.94 44.18,-28.05 73.26,-28.07l302.26 0.3c20.72,-0.16 6.46,-6.57 16.77,-33.9 4.49,-11.9 10.38,-24.31 17.91,-32.74 1.97,-2.21 3.96,-4.41 5.82,-6.35l3.06 -3.01c36.16,-33.57 64.49,-27.58 106.17,-27.58 8.11,0 16.25,-0.07 24.36,0.04 26.32,0.35 20.23,10.38 20.23,-79.08l-672.84 0c-12.62,0 -36.48,21.79 -36.48,42.56z"/>
   <path class="fil0" d="M1222.06 498.55c-1.53,-6.56 -2.35,-6.95 -5.78,-10.44l-66 -65.71c-6.73,-6.62 -14.61,-17.03 -23.47,-19.09 0,39.29 -4.64,57.76 16.65,78.59 20.39,19.95 40.53,16.66 78.6,16.66z"/>
   <path class="fil0" d="M1430.79 261.44c-0.97,-8.96 -5.28,-9.72 -15.02,-19.42l-49.6 -49.71c-8.53,-8.15 -18.82,-20.95 -28.6,-26.11 0,36 -5.89,57.71 14.63,78.59 21.98,22.36 43.93,16.66 78.59,16.66z"/>
   <path class="fil0" d="M766.06 79.04c48.72,0 44.57,4.17 7.31,-33.65 -3.5,-3.55 -2.4,-2.55 -6.28,-5.88 -5.81,-4.98 -0.31,-2.59 -7.11,-5.06 0,19.16 -3.86,44.59 6.08,44.59z"/>
   <path class="fil0" d="M918.06 314.13l40.53 0c-0.77,-9.29 -6.82,-11.89 -17.73,-22.8 -6.29,-6.29 -14.13,-17.44 -22.8,-19.76l0 42.55z"/>
  </g>
 </g>
</svg>
