<?xml version="1.0" encoding="UTF-8"?>
<!DOCTYPE svg PUBLIC "-//W3C//DTD SVG 1.1//EN" "http://www.w3.org/Graphics/SVG/1.1/DTD/svg11.dtd">
<!-- Creator: CorelDRAW 2018 (64 Bit Versão de avaliação) -->
<svg xmlns="http://www.w3.org/2000/svg" xml:space="preserve" width="16.04mm" height="18.0225mm" version="1.1" style="shape-rendering:geometricPrecision; text-rendering:geometricPrecision; image-rendering:optimizeQuality; fill-rule:evenodd; clip-rule:evenodd"
viewBox="0 0 433.92 487.55"
 xmlns:xlink="http://www.w3.org/1999/xlink">
 <defs>
  <style type="text/css">
   <![CDATA[
    .fil0 {fill:#FEFEFE}
   ]]>
  </style>
 </defs>
 <g id="Camada_x0020_1">
  <metadata id="CorelCorpID_0Corel-Layer"/>
  <path class="fil0" d="M206.62 360.16c0,13.05 -7.28,21.25 -16.51,25.18 -13.92,5.92 -12.78,2.95 -3.97,24.32 8.92,21.65 6.91,21.2 19.2,16 12.61,-5.34 23.13,-2.25 30.48,5.52 3.58,3.78 6.18,6.45 7.64,12.95 1.52,6.76 0.41,11.56 -1.93,17.26 -4.98,12.14 -6.65,10.53 15.45,19.34 21.57,8.6 18.67,10.43 24.61,-3.5 4.17,-9.77 11.84,-16.83 25.27,-16.8 12.64,0.04 21.13,7.45 24.79,16.39 6.15,15.03 3.82,12.19 24.36,4.1 5.02,-1.98 9.56,-3.92 14.58,-6.04 2.65,-1.12 4.98,-2.05 4.33,-5.87 -0.72,-4.27 -13.5,-22.62 2.92,-38.37 7.79,-7.47 17.67,-10.23 30.47,-4.92 12.79,5.3 9.9,5.48 19.2,-16.6 8.7,-20.65 9.67,-17.95 -4.29,-23.84 -22.27,-9.38 -21.87,-40.86 -0.07,-49.9 13.8,-5.72 13.2,-3.12 4.26,-24.09 -2.08,-4.89 -4.01,-9.63 -6.04,-14.57 -2.82,-6.91 -5.32,-5.15 -13.15,-1.78 -23.65,10.18 -46.33,-11.91 -36.28,-35.81 2.45,-5.82 6.04,-10.27 -1.3,-13.33l-29.46 -12.17c-5.94,-2.11 -6.82,3.57 -9.44,9.96 -9.21,22.47 -40.77,22.06 -50.02,0.23 -1.85,-4.37 -3.23,-12.29 -9.3,-10.31l-29.45 12.17c-7.08,2.93 -4.73,5.66 -1.7,13.03 10.49,25.48 -13.26,45.62 -35.27,36.61 -12.91,-5.28 -10.87,-6.71 -19.79,15.43 -8.65,21.46 -10.16,18.57 3.62,24.47 9.37,4.01 16.76,11.73 16.76,24.93zm97.53 -61.54c-52.26,3.58 -78.61,62.36 -44.05,102.93 11.18,13.13 30.56,22.03 49.19,20.54 33.41,-2.67 61.19,-28.63 59.53,-64.62 -1.51,-32.81 -29.57,-61.25 -64.67,-58.85z"/>
  <path class="fil0" d="M237.15 79.21l-1.25 0.46c0.2,0.12 0.35,0.05 0.51,0.02l0.63 -0.38c0.03,-0.04 0.08,-0.07 0.11,-0.11l0 0zm-94.73 173.99c-1.47,-0.37 0,1.71 0,0zm-63.3 -79.13c0,-1.34 -1.1,0.73 0,0zm158.03 -94.86l0.22 -0.08c-0.09,-0.06 -0.04,-0.08 -0.09,-0.12 -0.04,0.08 -0.07,0.11 -0.13,0.21l0 0zm16.04 -79.21l-189.89 0c-34.96,0 -63.3,28.34 -63.3,63.3l0 189.89c0,34.96 28.34,63.3 63.3,63.3l101.78 0c3.57,-11.2 8.45,-21.8 14.46,-31.65l-100.41 0c-26.22,0 -47.48,-21.25 -47.48,-47.48l0 -158.25c0,-26.22 21.25,-47.47 47.48,-47.47l158.24 0c26.22,0 47.47,21.25 47.47,47.47l0 137.09c6.3,-0.83 12.72,-1.27 19.25,-1.27 4.18,0 8.31,0.19 12.4,0.53l0 -152.18c0,-34.96 -28.34,-63.3 -63.3,-63.3l0 0zm-16.78 79.7l-157.29 94.37c0,0 22.58,11.93 46.48,21.27l95.93 -100.38 -79.12 110.77 0 47.48 20.04 -41.54 59.09 25.72 15.82 -158.25 -0.32 0.19c-0.16,0.21 -0.37,0.33 -0.63,0.38zm0.86 -0.69c0.13,-0.26 0.19,-0.41 0.09,0.12 1.13,-0.56 -0.65,-0.68 -0.09,-0.12z"/>
 </g>
</svg>
