<?xml version="1.0" encoding="UTF-8"?>
<!DOCTYPE svg PUBLIC "-//W3C//DTD SVG 1.1//EN" "http://www.w3.org/Graphics/SVG/1.1/DTD/svg11.dtd">
<!-- Creator: CorelDRAW 2018 (64 Bit Versão de avaliação) -->
<svg xmlns="http://www.w3.org/2000/svg" xml:space="preserve" width="10.9318mm" height="17.4136mm" version="1.1" style="shape-rendering:geometricPrecision; text-rendering:geometricPrecision; image-rendering:optimizeQuality; fill-rule:evenodd; clip-rule:evenodd"
viewBox="0 0 1095.04 1744.33"
 xmlns:xlink="http://www.w3.org/1999/xlink">
 <defs>
  <style type="text/css">
   <![CDATA[
    .fil0 {fill:#FEFEFE;fill-rule:nonzero}
   ]]>
  </style>
 </defs>
 <g id="Camada_x0020_1">
  <metadata id="CorelCorpID_0Corel-Layer"/>
  <g id="_1742685462448">
   <path class="fil0" d="M698.64 742.45c-6.85,-6.85 -20.83,-10.95 -27.88,-10.95 -9.81,0 -32.04,7.39 -31.97,19.75 0,3.03 1.41,5.98 4.17,8.73 6.71,6.78 20.76,10.95 27.81,10.95 9.74,0.07 32.04,-7.46 32.04,-19.68 0,-3.09 -1.41,-6.05 -4.17,-8.8zm-12.49 16.13c-5.71,2.75 -12.03,4.23 -15.39,4.23 -5.44,0 -17.13,-3.63 -22.04,-8.59 -1.21,-1.14 -1.81,-2.15 -1.81,-2.96 0,-1.74 2.69,-4.64 8.4,-7.39 5.7,-2.82 12.09,-4.23 15.45,-4.23 5.44,0 17.13,3.63 22.1,8.59 1.15,1.14 1.68,2.15 1.68,3.03 0,1.61 -2.55,4.57 -8.39,7.32z"/>
   <path class="fil0" d="M692.15 748.95c-4.78,-4.78 -16.06,-8.26 -21.37,-8.26 -3.23,0 -9.48,1.34 -14.98,4.1 -5.72,2.68 -7.86,5.44 -7.86,6.45 0,0.4 0.4,1.2 1.41,2.21 4.77,4.77 16.19,8.33 21.43,8.33 3.16,0 9.41,-1.41 14.99,-4.11 5.71,-2.68 7.79,-5.37 7.79,-6.44 0,-0.47 -0.34,-1.21 -1.41,-2.28zm-44.14 5.98c-0.94,-0.94 -2.02,-2.28 -2.02,-3.7 0,-2.48 3.37,-5.65 8.88,-8.33 5.84,-2.82 12.42,-4.24 15.92,-4.24 5.58,0 17.4,3.5 22.78,8.88 0.93,0.87 2.07,2.28 2.07,3.7 0,2.41 -3.49,5.57 -9,8.26 -5.85,2.81 -12.43,4.3 -15.86,4.3 -5.58,0 -17.67,-3.77 -22.77,-8.87zm49.91 -11.76c-6.65,-6.65 -20.29,-10.68 -27.15,-10.68 -6.78,0 -20.28,3.83 -27.15,10.55 -2.54,2.61 -3.83,5.37 -3.83,8.19 0,2.75 1.28,5.51 3.77,7.99 6.65,6.65 20.28,10.68 27.21,10.68 6.72,0 20.22,-3.7 27.08,-10.55 2.55,-2.61 3.9,-5.31 3.9,-8.12 0,-2.82 -1.28,-5.51 -3.83,-8.06zm-55.69 17.53c-2.96,-2.96 -4.5,-6.11 -4.5,-9.47 0,-3.43 1.54,-6.59 4.5,-9.54 7.18,-7.26 21.43,-11.23 28.55,-11.16 7.19,0 21.57,4.24 28.55,11.22 2.89,2.96 4.44,6.11 4.44,9.48 0,3.36 -1.54,6.58 -4.5,9.54 -7.19,7.19 -21.44,11.22 -28.49,11.22 -7.25,0 -21.64,-4.37 -28.55,-11.29z"/>
   <path class="fil0" d="M663.54 777.55c-6.78,-6.85 -20.83,-11.01 -27.88,-11.01 -9.75,0 -31.98,7.45 -31.98,19.74 0,3.1 1.41,6.05 4.17,8.8 6.79,6.72 20.77,10.95 27.89,10.95 9.74,0 31.97,-7.52 31.97,-19.75 0,-3.09 -1.41,-6.04 -4.17,-8.73zm-12.43 16.13c-5.71,2.75 -12.02,4.17 -15.38,4.17 -5.45,0 -17.14,-3.57 -22.11,-8.53 -1.14,-1.14 -1.81,-2.21 -1.81,-3.03 0,-1.67 2.68,-4.57 8.39,-7.32 5.71,-2.81 12.16,-4.23 15.46,-4.23 5.44,0 17.13,3.63 22.1,8.59 1.14,1.14 1.75,2.15 1.75,2.96 0,1.68 -2.62,4.57 -8.4,7.39z"/>
   <path class="fil0" d="M657.05 783.98c-4.77,-4.77 -16.06,-8.26 -21.36,-8.26 -3.23,0 -9.41,1.41 -14.99,4.11 -5.71,2.74 -7.79,5.44 -7.79,6.44 0,0.4 0.4,1.28 1.41,2.28 4.77,4.78 16.19,8.26 21.43,8.26 3.17,0 9.34,-1.34 14.92,-4.03 5.71,-2.75 7.79,-5.44 7.79,-6.52 0,-0.4 -0.27,-1.14 -1.41,-2.28zm-44.14 6.05c-0.94,-0.94 -2.01,-2.35 -2.01,-3.77 0,-2.41 3.36,-5.64 8.94,-8.26 5.84,-2.81 12.42,-4.23 15.86,-4.3 5.57,0.07 17.46,3.57 22.77,8.87 0.94,0.94 2.08,2.35 2.08,3.7 0,2.49 -3.43,5.65 -9.01,8.33 -5.84,2.75 -12.42,4.3 -15.79,4.3 -5.64,0 -17.73,-3.76 -22.84,-8.87zm49.91 -11.82c-6.58,-6.59 -20.28,-10.62 -27.14,-10.62 -6.72,0 -20.22,3.76 -27.08,10.55 -2.62,2.55 -3.9,5.31 -3.9,8.12 0,2.82 1.27,5.51 3.83,8.06 6.65,6.65 20.29,10.68 27.21,10.68 4.24,0 12.09,-1.61 19.15,-5.17 4.37,-2.15 11.82,-6.85 11.82,-13.57 0,-2.75 -1.34,-5.5 -3.9,-8.05zm-55.69 17.6c-2.96,-2.96 -4.43,-6.18 -4.43,-9.55 0,-3.36 1.54,-6.51 4.5,-9.54 7.18,-7.19 21.43,-11.15 28.49,-11.15 7.25,0 21.63,4.23 28.55,11.28 2.96,2.89 4.5,6.05 4.5,9.41 0,5.78 -4.64,11.22 -12.96,15.46 -6.25,3.16 -14.51,5.31 -20.02,5.31 -7.32,0 -21.7,-4.31 -28.62,-11.22z"/>
   <path class="fil0" d="M628.51 812.59c-6.85,-6.79 -20.9,-10.95 -27.88,-10.95 -9.81,0 -32.04,7.45 -32.04,19.74 0,3.1 1.48,6.05 4.17,8.73 6.78,6.79 20.83,11.02 27.88,11.02 9.75,0 32.04,-7.52 32.04,-19.75 0,-3.09 -1.47,-6.04 -4.17,-8.79zm-12.49 16.13c-5.71,2.74 -12.03,4.23 -15.39,4.23 -5.44,0 -17.13,-3.63 -22.1,-8.6 -1.14,-1.13 -1.75,-2.14 -1.75,-2.96 0,-1.74 2.62,-4.63 8.4,-7.38 5.7,-2.82 12.09,-4.24 15.45,-4.24 5.44,0 17.13,3.63 22.1,8.6 1.14,1.14 1.68,2.14 1.68,3.02 0,1.61 -2.55,4.57 -8.39,7.33z"/>
   <path class="fil0" d="M622.02 819.08c-4.78,-4.77 -16.13,-8.25 -21.37,-8.25 -3.23,0 -9.48,1.34 -15.05,4.1 -5.65,2.75 -7.79,5.44 -7.79,6.45 0,0.4 0.4,1.2 1.41,2.28 4.77,4.77 16.19,8.25 21.43,8.25 3.16,0 9.41,-1.4 14.99,-4.03 5.71,-2.75 7.79,-5.44 7.79,-6.51 0,-0.41 -0.34,-1.21 -1.41,-2.29zm-44.14 5.98c-1.01,-0.94 -2.02,-2.28 -2.02,-3.69 0,-2.49 3.37,-5.65 8.88,-8.33 5.84,-2.75 12.42,-4.24 15.92,-4.24 5.51,0 17.4,3.5 22.78,8.88 0.93,0.87 2.07,2.34 2.01,3.7 0.06,2.41 -3.43,5.64 -8.94,8.25 -5.85,2.82 -12.43,4.31 -15.86,4.31 -5.64,0 -17.67,-3.7 -22.77,-8.88zm49.91 -11.75c-6.65,-6.65 -20.29,-10.69 -27.15,-10.69 -4.37,0 -12.16,1.61 -19.21,5.18 -4.44,2.14 -11.76,6.92 -11.76,13.57 0,2.74 1.21,5.51 3.77,8.05 6.65,6.58 20.28,10.62 27.21,10.62 4.3,0 12.09,-1.54 19.21,-5.11 4.37,-2.21 11.76,-6.85 11.76,-13.56 0,-2.82 -1.28,-5.51 -3.83,-8.06zm-55.69 17.53c-2.96,-2.88 -4.51,-6.11 -4.51,-9.47 0,-5.78 4.64,-11.23 12.9,-15.39 6.32,-3.16 14.57,-5.31 20.15,-5.31 7.19,0 21.57,4.23 28.49,11.22 2.96,2.96 4.5,6.11 4.5,9.48 0,5.7 -4.64,11.22 -12.9,15.38 -6.31,3.17 -14.57,5.38 -20.08,5.38 -7.25,0 -21.64,-4.3 -28.55,-11.29z"/>
   <path class="fil0" d="M621.95 739.05c2.75,2.75 5.71,4.17 8.8,4.17 12.22,0 19.74,-22.31 19.68,-32.04 0,-7.05 -4.17,-21.1 -10.96,-27.88 -2.74,-2.75 -5.71,-4.1 -8.72,-4.1 -12.3,0 -19.75,22.17 -19.75,31.97 0,7.05 4.1,21.03 10.95,27.88zm8.8 -51.73c0.8,0 1.81,0.67 2.96,1.74 4.97,5.05 8.59,16.67 8.59,22.11 0,3.36 -1.48,9.68 -4.23,15.39 -2.75,5.84 -5.71,8.39 -7.32,8.39 -0.88,0 -1.88,-0.53 -3.03,-1.68 -4.98,-4.97 -8.6,-16.66 -8.6,-22.1 0,-3.36 1.41,-9.75 4.24,-15.46 2.75,-5.77 5.64,-8.39 7.39,-8.39z"/>
   <path class="fil0" d="M630.74 688.37c-1.14,0 -3.77,2.14 -6.52,7.79 -2.68,5.57 -4.03,11.82 -4.03,14.98 0,5.18 3.56,16.66 8.26,21.44 1.01,1 1.81,1.41 2.28,1.41 1.07,0 3.77,-2.08 6.51,-7.79 2.62,-5.58 4.04,-11.76 4.04,-15.06 0,-5.1 -3.57,-16.59 -8.33,-21.36 -1,-1.08 -1.81,-1.41 -2.21,-1.41zm-3.77 45.62c-5.1,-5.18 -8.79,-17.2 -8.79,-22.85 0,-3.43 1.47,-10.01 4.23,-15.79 2.69,-5.57 5.85,-9.01 8.33,-9.01 1.41,0 2.75,1.08 3.7,2.02 5.31,5.37 8.87,17.26 8.87,22.77 0,3.5 -1.47,10.08 -4.3,15.93 -2.62,5.51 -5.85,8.94 -8.26,8.94 -1.14,0 -2.41,-0.67 -3.77,-2.01zm11.76 -49.92c-2.48,-2.61 -5.24,-3.89 -7.99,-3.89 -2.82,0 -5.58,1.34 -8.19,3.96 -6.85,6.79 -10.55,20.29 -10.55,27.01 0,6.92 4.03,20.56 10.68,27.22 2.55,2.54 5.24,3.76 8.06,3.76 6.65,0 11.35,-7.32 13.56,-11.76 3.57,-7.05 5.11,-14.91 5.11,-19.21 0,-6.85 -4.03,-20.48 -10.68,-27.08zm-17.53 55.69c-6.92,-6.98 -11.22,-21.36 -11.22,-28.62 -0.07,-7.05 3.96,-21.3 11.15,-28.48 2.96,-2.96 6.18,-4.51 9.61,-4.51 3.36,0 6.51,1.55 9.48,4.44 6.91,6.98 11.28,21.37 11.28,28.55 0,5.58 -2.28,13.84 -5.37,20.15 -4.17,8.26 -9.68,12.9 -15.39,12.9 -3.36,0 -6.58,-1.54 -9.54,-4.44z"/>
   <path class="fil0" d="M586.85 774.08c2.75,2.75 5.71,4.17 8.79,4.17 12.23,0 19.75,-22.24 19.75,-31.97 0,-7.12 -4.23,-21.1 -10.95,-27.89 -2.75,-2.75 -5.71,-4.16 -8.8,-4.16 -12.29,0 -19.74,22.23 -19.74,32.04 0,6.98 4.17,21.03 10.95,27.81zm8.79 -51.66c0.81,0 1.88,0.6 3.03,1.74 4.98,4.98 8.53,16.66 8.53,22.11 0,3.36 -1.41,9.67 -4.17,15.38 -2.81,5.78 -5.71,8.4 -7.39,8.4 -0.8,0 -1.81,-0.54 -3.02,-1.75 -4.91,-4.9 -8.53,-16.59 -8.53,-22.03 0,-3.37 1.41,-9.75 4.17,-15.46 2.75,-5.78 5.71,-8.39 7.38,-8.39z"/>
   <path class="fil0" d="M597.94 724.87c-1.07,-1.07 -1.88,-1.41 -2.28,-1.41 -1.07,0 -3.77,2.08 -6.51,7.79 -2.62,5.58 -4.04,11.76 -4.04,14.99 0,5.17 3.5,16.66 8.26,21.36 1.01,1.08 1.88,1.41 2.28,1.41 1.01,0.07 3.7,-2.08 6.45,-7.79 2.75,-5.57 4.1,-11.75 4.1,-14.98 0,-5.31 -3.5,-16.6 -8.26,-21.37zm-5.98 44.14c-5.17,-5.1 -8.94,-17.2 -8.94,-22.77 0.07,-3.43 1.54,-10.02 4.37,-15.86 2.62,-5.51 5.85,-9.01 8.26,-9.01 1.34,0 2.75,1.14 3.7,2.08 5.37,5.31 8.87,17.2 8.87,22.78 0,3.5 -1.47,10.08 -4.23,15.92 -2.69,5.51 -5.91,8.88 -8.33,8.88 -1.14,0 -2.35,-0.68 -3.7,-2.02zm11.76 -49.91c-2.55,-2.55 -5.24,-3.83 -8.06,-3.83 -2.82,0 -5.58,1.27 -8.12,3.9 -6.85,6.85 -10.55,20.35 -10.55,27.08 0,6.92 3.96,20.55 10.61,27.14 2.55,2.55 5.24,3.83 8.06,3.83 6.65,0 11.35,-7.32 13.57,-11.75 3.56,-7.05 5.17,-14.92 5.17,-19.21 0,-6.85 -4.03,-20.49 -10.68,-27.15zm-17.54 55.69c-6.98,-6.92 -11.28,-21.3 -11.28,-28.55 0,-7.05 3.96,-21.3 11.15,-28.49 3.03,-2.96 6.25,-4.5 9.61,-4.5 3.37,0 6.51,1.48 9.48,4.44 6.98,6.98 11.22,21.36 11.22,28.55 0,5.51 -2.15,13.77 -5.38,20.08 -4.1,8.33 -9.54,12.97 -15.32,12.97 -3.36,0 -6.58,-1.55 -9.48,-4.51z"/>
   <path class="fil0" d="M580.29 781.3c0,-6.98 -4.17,-21.03 -10.95,-27.81 -2.75,-2.76 -5.71,-4.17 -8.79,-4.17 -12.3,0 -19.69,22.17 -19.69,31.97 0,7.05 4.17,21.03 10.95,27.88 2.76,2.75 5.72,4.17 8.8,4.17 12.29,0 19.68,-22.24 19.68,-32.04zm-19.68 23.78c-0.87,0 -1.88,-0.53 -3.03,-1.68 -4.97,-4.97 -8.59,-16.66 -8.59,-22.1 0,-3.36 1.48,-9.75 4.24,-15.39 2.74,-5.77 5.71,-8.39 7.32,-8.39 0.87,0 1.87,0.6 3.02,1.74 4.97,4.91 8.6,16.6 8.6,22.04 0,3.36 -1.48,9.75 -4.24,15.45 -2.75,5.78 -5.71,8.33 -7.32,8.33z"/>
   <path class="fil0" d="M562.84 759.91c-1.07,-1.08 -1.81,-1.41 -2.28,-1.41 -1.07,0 -3.7,2.15 -6.45,7.85 -2.68,5.51 -4.03,11.76 -4.1,14.93 0.07,5.24 3.56,16.66 8.33,21.43 1,1 1.81,1.41 2.27,1.41 1.01,0 3.64,-2.08 6.39,-7.79 2.75,-5.58 4.1,-11.76 4.17,-15.05 -0.07,-5.25 -3.57,-16.54 -8.33,-21.37zm-5.98 44.21c-5.11,-5.18 -8.87,-17.2 -8.87,-22.84 0,-3.44 1.47,-10.02 4.3,-15.8 2.68,-5.57 5.85,-9 8.26,-9 1.34,0 2.82,1.14 3.7,2.01 5.37,5.38 8.87,17.27 8.87,22.78 0,3.49 -1.41,10.07 -4.24,15.92 -2.68,5.57 -5.84,8.94 -8.32,8.94 -1.41,0 -2.75,-1.07 -3.7,-2.01zm11.76 -49.91c-2.55,-2.55 -5.24,-3.9 -8.06,-3.9 -2.82,0 -5.51,1.34 -8.13,3.9 -6.85,6.91 -10.55,20.41 -10.55,27.08 0,6.91 4.04,20.55 10.69,27.21 2.48,2.54 5.24,3.83 8.05,3.83 6.59,0 11.36,-7.39 13.51,-11.83 3.56,-7.05 5.17,-14.85 5.17,-19.2 0,-6.86 -4.03,-20.49 -10.68,-27.08zm-17.54 55.69c-6.92,-6.99 -11.28,-21.37 -11.28,-28.62 0,-7.06 4.03,-21.24 11.22,-28.43 2.96,-3.02 6.18,-4.57 9.54,-4.57 3.36,0 6.51,1.55 9.48,4.51 6.98,6.92 11.28,21.3 11.28,28.49 0,5.57 -2.21,13.83 -5.37,20.14 -4.17,8.33 -9.61,12.9 -15.33,12.9 -3.42,0 -6.58,-1.47 -9.54,-4.43z"/>
   <path class="fil0" d="M561.93 819.21c-1.61,-1.61 -4.17,-1.61 -5.78,0l-24.19 24.12c-1.6,1.67 -1.6,4.23 0,5.78 1.62,1.67 4.17,1.67 5.78,0l24.19 -24.12c1.54,-1.61 1.54,-4.24 0,-5.78z"/>
   <path class="fil0" d="M561.19 819.95c-1.2,-1.28 -3.16,-1.28 -4.3,0l-24.25 24.11c-1.14,1.21 -1.14,3.16 0,4.37 1.21,1.21 3.16,1.21 4.37,0l24.18 -24.18c1.21,-1.14 1.21,-3.1 0,-4.3zm-29.96 29.89c-2.01,-1.95 -2.01,-5.17 0,-7.19l24.18 -24.11c1.95,-2.02 5.18,-2.02 7.19,0 2.01,1.94 2.01,5.17 0,7.18l-24.18 24.12c-1.95,2.01 -5.18,2.01 -7.19,0z"/>
   <path class="fil0" d="M652.13 697.94c1.54,1.55 4.17,1.55 5.77,0l24.19 -24.18c1.61,-1.61 1.61,-4.17 0,-5.78 -1.61,-1.61 -4.17,-1.61 -5.85,0l-24.11 24.19c-1.55,1.61 -1.55,4.17 0,5.77z"/>
   <path class="fil0" d="M681.39 668.69c-1.27,-1.21 -3.16,-1.21 -4.37,0l-24.18 24.18c-1.14,1.21 -1.14,3.16 0,4.37 1.2,1.21 3.16,1.21 4.37,0l24.18 -24.18c1.21,-1.21 1.21,-3.17 0,-4.37zm-29.96 29.96c-2.01,-1.94 -2.01,-5.24 0,-7.19l24.18 -24.18c1.95,-2.01 5.17,-2.01 7.19,0 2.01,1.94 2.01,5.24 0,7.18l-24.19 24.19c-1.94,2.01 -5.24,2.01 -7.18,0z"/>
   <path class="fil0" d="M659.02 722.12c1.54,1.55 4.17,1.55 5.78,0l24.11 -24.18c1.68,-1.61 1.61,-4.17 0,-5.78 -1.54,-1.61 -4.17,-1.61 -5.78,0l-24.11 24.18c-1.61,1.61 -1.61,4.24 0,5.78z"/>
   <path class="fil0" d="M688.21 692.86c-1.21,-1.2 -3.17,-1.2 -4.31,0l-24.25 24.19c-1.14,1.21 -1.14,3.16 0,4.37 1.28,1.14 3.17,1.14 4.44,0l24.12 -24.19c1.27,-1.2 1.27,-3.16 0,-4.37zm-29.9 29.97c-2.08,-1.95 -2.08,-5.18 0,-7.19l24.12 -24.19c2.01,-1.94 5.24,-1.94 7.19,0 2.01,2.02 2.01,5.24 0,7.19l-24.19 24.19c-1.94,2.01 -5.17,2.01 -7.12,0z"/>
   <path class="fil0" d="M683.15 729c1.61,1.55 4.17,1.55 5.78,0l24.19 -24.18c1.61,-1.61 1.61,-4.17 0,-5.78 -1.55,-1.6 -4.17,-1.6 -5.78,0l-24.19 24.19c-1.54,1.61 -1.54,4.17 0,5.77z"/>
   <path class="fil0" d="M712.42 699.75c-1.21,-1.21 -3.16,-1.21 -4.3,0l-24.25 24.12c-1.15,1.27 -1.15,3.16 0,4.43 1.2,1.14 3.16,1.14 4.37,0l24.18 -24.25c1.21,-1.14 1.21,-3.1 0,-4.3zm-29.96 29.89c-2.02,-1.94 -2.02,-5.17 0,-7.12l24.18 -24.18c1.95,-2.01 5.17,-2.01 7.19,0 2.01,1.95 2.01,5.18 0,7.19l-24.19 24.11c-1.94,2.08 -5.17,2.08 -7.18,0z"/>
   <path class="fil0" d="M698.64 742.45c-6.85,-6.85 -20.83,-10.95 -27.88,-10.95 -9.81,0 -32.04,7.39 -31.97,19.75 0,3.03 1.41,5.98 4.17,8.73 6.71,6.78 20.76,10.95 27.81,10.95 9.74,0.07 32.04,-7.46 32.04,-19.68 0,-3.09 -1.41,-6.05 -4.17,-8.8zm-12.49 16.13c-5.71,2.75 -12.03,4.23 -15.39,4.23 -5.44,0 -17.13,-3.63 -22.04,-8.59 -1.21,-1.14 -1.81,-2.15 -1.81,-2.96 0,-1.74 2.69,-4.64 8.4,-7.39 5.7,-2.82 12.09,-4.23 15.45,-4.23 5.44,0 17.13,3.63 22.1,8.59 1.15,1.14 1.68,2.15 1.68,3.03 0,1.61 -2.55,4.57 -8.39,7.32z"/>
   <path class="fil0" d="M692.15 748.95c-4.78,-4.78 -16.06,-8.26 -21.37,-8.26 -3.23,0 -9.48,1.34 -14.98,4.1 -5.72,2.68 -7.86,5.44 -7.86,6.45 0,0.4 0.4,1.2 1.41,2.21 4.77,4.77 16.19,8.33 21.43,8.33 3.16,0 9.41,-1.41 14.99,-4.11 5.71,-2.68 7.79,-5.37 7.79,-6.44 0,-0.47 -0.34,-1.21 -1.41,-2.28zm-44.14 5.98c-0.94,-0.94 -2.02,-2.28 -2.02,-3.7 0,-2.48 3.37,-5.65 8.88,-8.33 5.84,-2.82 12.42,-4.24 15.92,-4.24 5.58,0 17.4,3.5 22.78,8.88 0.93,0.87 2.07,2.28 2.07,3.7 0,2.41 -3.49,5.57 -9,8.26 -5.85,2.81 -12.43,4.3 -15.86,4.3 -5.58,0 -17.67,-3.77 -22.77,-8.87zm49.91 -11.76c-6.65,-6.65 -20.29,-10.68 -27.15,-10.68 -6.78,0 -20.28,3.83 -27.15,10.55 -2.54,2.61 -3.83,5.37 -3.83,8.19 0,2.75 1.28,5.51 3.77,7.99 6.65,6.65 20.28,10.68 27.21,10.68 6.72,0 20.22,-3.7 27.08,-10.55 2.55,-2.61 3.9,-5.31 3.9,-8.12 0,-2.82 -1.28,-5.51 -3.83,-8.06zm-55.69 17.53c-2.96,-2.96 -4.5,-6.11 -4.5,-9.47 0,-3.43 1.54,-6.59 4.5,-9.54 7.18,-7.26 21.43,-11.23 28.55,-11.16 7.19,0 21.57,4.24 28.55,11.22 2.89,2.96 4.44,6.11 4.44,9.48 0,3.36 -1.54,6.58 -4.5,9.54 -7.19,7.19 -21.44,11.22 -28.49,11.22 -7.25,0 -21.64,-4.37 -28.55,-11.29z"/>
   <path class="fil0" d="M663.54 777.55c-6.78,-6.85 -20.83,-11.01 -27.88,-11.01 -9.75,0 -31.98,7.45 -31.98,19.74 0,3.1 1.41,6.05 4.17,8.8 6.79,6.72 20.77,10.95 27.89,10.95 9.74,0 31.97,-7.52 31.97,-19.75 0,-3.09 -1.41,-6.04 -4.17,-8.73zm-12.43 16.13c-5.71,2.75 -12.02,4.17 -15.38,4.17 -5.45,0 -17.14,-3.57 -22.11,-8.53 -1.14,-1.14 -1.81,-2.21 -1.81,-3.03 0,-1.67 2.68,-4.57 8.39,-7.32 5.71,-2.81 12.16,-4.23 15.46,-4.23 5.44,0 17.13,3.63 22.1,8.59 1.14,1.14 1.75,2.15 1.75,2.96 0,1.68 -2.62,4.57 -8.4,7.39z"/>
   <path class="fil0" d="M657.05 783.98c-4.77,-4.77 -16.06,-8.26 -21.36,-8.26 -3.23,0 -9.41,1.41 -14.99,4.11 -5.71,2.74 -7.79,5.44 -7.79,6.44 0,0.4 0.4,1.28 1.41,2.28 4.77,4.78 16.19,8.26 21.43,8.26 3.17,0 9.34,-1.34 14.92,-4.03 5.71,-2.75 7.79,-5.44 7.79,-6.52 0,-0.4 -0.27,-1.14 -1.41,-2.28zm-44.14 6.05c-0.94,-0.94 -2.01,-2.35 -2.01,-3.77 0,-2.41 3.36,-5.64 8.94,-8.26 5.84,-2.81 12.42,-4.23 15.86,-4.3 5.57,0.07 17.46,3.57 22.77,8.87 0.94,0.94 2.08,2.35 2.08,3.7 0,2.49 -3.43,5.65 -9.01,8.33 -5.84,2.75 -12.42,4.3 -15.79,4.3 -5.64,0 -17.73,-3.76 -22.84,-8.87zm49.91 -11.82c-6.58,-6.59 -20.28,-10.62 -27.14,-10.62 -6.72,0 -20.22,3.76 -27.08,10.55 -2.62,2.55 -3.9,5.31 -3.9,8.12 0,2.82 1.27,5.51 3.83,8.06 6.65,6.65 20.29,10.68 27.21,10.68 4.24,0 12.09,-1.61 19.15,-5.17 4.37,-2.15 11.82,-6.85 11.82,-13.57 0,-2.75 -1.34,-5.5 -3.9,-8.05zm-55.69 17.6c-2.96,-2.96 -4.43,-6.18 -4.43,-9.55 0,-3.36 1.54,-6.51 4.5,-9.54 7.18,-7.19 21.43,-11.15 28.49,-11.15 7.25,0 21.63,4.23 28.55,11.28 2.96,2.89 4.5,6.05 4.5,9.41 0,5.78 -4.64,11.22 -12.96,15.46 -6.25,3.16 -14.51,5.31 -20.02,5.31 -7.32,0 -21.7,-4.31 -28.62,-11.22z"/>
   <path class="fil0" d="M628.51 812.59c-6.85,-6.79 -20.9,-10.95 -27.88,-10.95 -9.81,0 -32.04,7.45 -32.04,19.74 0,3.1 1.48,6.05 4.17,8.73 6.78,6.79 20.83,11.02 27.88,11.02 9.75,0 32.04,-7.52 32.04,-19.75 0,-3.09 -1.47,-6.04 -4.17,-8.79zm-12.49 16.13c-5.71,2.74 -12.03,4.23 -15.39,4.23 -5.44,0 -17.13,-3.63 -22.1,-8.6 -1.14,-1.13 -1.75,-2.14 -1.75,-2.96 0,-1.74 2.62,-4.63 8.4,-7.38 5.7,-2.82 12.09,-4.24 15.45,-4.24 5.44,0 17.13,3.63 22.1,8.6 1.14,1.14 1.68,2.14 1.68,3.02 0,1.61 -2.55,4.57 -8.39,7.33z"/>
   <path class="fil0" d="M622.02 819.08c-4.78,-4.77 -16.13,-8.25 -21.37,-8.25 -3.23,0 -9.48,1.34 -15.05,4.1 -5.65,2.75 -7.79,5.44 -7.79,6.45 0,0.4 0.4,1.2 1.41,2.28 4.77,4.77 16.19,8.25 21.43,8.25 3.16,0 9.41,-1.4 14.99,-4.03 5.71,-2.75 7.79,-5.44 7.79,-6.51 0,-0.41 -0.34,-1.21 -1.41,-2.29zm-44.14 5.98c-1.01,-0.94 -2.02,-2.28 -2.02,-3.69 0,-2.49 3.37,-5.65 8.88,-8.33 5.84,-2.75 12.42,-4.24 15.92,-4.24 5.51,0 17.4,3.5 22.78,8.88 0.93,0.87 2.07,2.34 2.01,3.7 0.06,2.41 -3.43,5.64 -8.94,8.25 -5.85,2.82 -12.43,4.31 -15.86,4.31 -5.64,0 -17.67,-3.7 -22.77,-8.88zm49.91 -11.75c-6.65,-6.65 -20.29,-10.69 -27.15,-10.69 -4.37,0 -12.16,1.61 -19.21,5.18 -4.44,2.14 -11.76,6.92 -11.76,13.57 0,2.74 1.21,5.51 3.77,8.05 6.65,6.58 20.28,10.62 27.21,10.62 4.3,0 12.09,-1.54 19.21,-5.11 4.37,-2.21 11.76,-6.85 11.76,-13.56 0,-2.82 -1.28,-5.51 -3.83,-8.06zm-55.69 17.53c-2.96,-2.88 -4.51,-6.11 -4.51,-9.47 0,-5.78 4.64,-11.23 12.9,-15.39 6.32,-3.16 14.57,-5.31 20.15,-5.31 7.19,0 21.57,4.23 28.49,11.22 2.96,2.96 4.5,6.11 4.5,9.48 0,5.7 -4.64,11.22 -12.9,15.38 -6.31,3.17 -14.57,5.38 -20.08,5.38 -7.25,0 -21.64,-4.3 -28.55,-11.29z"/>
   <path class="fil0" d="M621.95 739.05c2.75,2.75 5.71,4.17 8.8,4.17 12.22,0 19.74,-22.31 19.68,-32.04 0,-7.05 -4.17,-21.1 -10.96,-27.88 -2.74,-2.75 -5.71,-4.1 -8.72,-4.1 -12.3,0 -19.75,22.17 -19.75,31.97 0,7.05 4.1,21.03 10.95,27.88zm8.8 -51.73c0.8,0 1.81,0.67 2.96,1.74 4.97,5.05 8.59,16.67 8.59,22.11 0,3.36 -1.48,9.68 -4.23,15.39 -2.75,5.84 -5.71,8.39 -7.32,8.39 -0.88,0 -1.88,-0.53 -3.03,-1.68 -4.98,-4.97 -8.6,-16.66 -8.6,-22.1 0,-3.36 1.41,-9.75 4.24,-15.46 2.75,-5.77 5.64,-8.39 7.39,-8.39z"/>
   <path class="fil0" d="M630.74 688.37c-1.14,0 -3.77,2.14 -6.52,7.79 -2.68,5.57 -4.03,11.82 -4.03,14.98 0,5.18 3.56,16.66 8.26,21.44 1.01,1 1.81,1.41 2.28,1.41 1.07,0 3.77,-2.08 6.51,-7.79 2.62,-5.58 4.04,-11.76 4.04,-15.06 0,-5.1 -3.57,-16.59 -8.33,-21.36 -1,-1.08 -1.81,-1.41 -2.21,-1.41zm-3.77 45.62c-5.1,-5.18 -8.79,-17.2 -8.79,-22.85 0,-3.43 1.47,-10.01 4.23,-15.79 2.69,-5.57 5.85,-9.01 8.33,-9.01 1.41,0 2.75,1.08 3.7,2.02 5.31,5.37 8.87,17.26 8.87,22.77 0,3.5 -1.47,10.08 -4.3,15.93 -2.62,5.51 -5.85,8.94 -8.26,8.94 -1.14,0 -2.41,-0.67 -3.77,-2.01zm11.76 -49.92c-2.48,-2.61 -5.24,-3.89 -7.99,-3.89 -2.82,0 -5.58,1.34 -8.19,3.96 -6.85,6.79 -10.55,20.29 -10.55,27.01 0,6.92 4.03,20.56 10.68,27.22 2.55,2.54 5.24,3.76 8.06,3.76 6.65,0 11.35,-7.32 13.56,-11.76 3.57,-7.05 5.11,-14.91 5.11,-19.21 0,-6.85 -4.03,-20.48 -10.68,-27.08zm-17.53 55.69c-6.92,-6.98 -11.22,-21.36 -11.22,-28.62 -0.07,-7.05 3.96,-21.3 11.15,-28.48 2.96,-2.96 6.18,-4.51 9.61,-4.51 3.36,0 6.51,1.55 9.48,4.44 6.91,6.98 11.28,21.37 11.28,28.55 0,5.58 -2.28,13.84 -5.37,20.15 -4.17,8.26 -9.68,12.9 -15.39,12.9 -3.36,0 -6.58,-1.54 -9.54,-4.44z"/>
   <path class="fil0" d="M586.85 774.08c2.75,2.75 5.71,4.17 8.79,4.17 12.23,0 19.75,-22.24 19.75,-31.97 0,-7.12 -4.23,-21.1 -10.95,-27.89 -2.75,-2.75 -5.71,-4.16 -8.8,-4.16 -12.29,0 -19.74,22.23 -19.74,32.04 0,6.98 4.17,21.03 10.95,27.81zm8.79 -51.66c0.81,0 1.88,0.6 3.03,1.74 4.98,4.98 8.53,16.66 8.53,22.11 0,3.36 -1.41,9.67 -4.17,15.38 -2.81,5.78 -5.71,8.4 -7.39,8.4 -0.8,0 -1.81,-0.54 -3.02,-1.75 -4.91,-4.9 -8.53,-16.59 -8.53,-22.03 0,-3.37 1.41,-9.75 4.17,-15.46 2.75,-5.78 5.71,-8.39 7.38,-8.39z"/>
   <path class="fil0" d="M597.94 724.87c-1.07,-1.07 -1.88,-1.41 -2.28,-1.41 -1.07,0 -3.77,2.08 -6.51,7.79 -2.62,5.58 -4.04,11.76 -4.04,14.99 0,5.17 3.5,16.66 8.26,21.36 1.01,1.08 1.88,1.41 2.28,1.41 1.01,0.07 3.7,-2.08 6.45,-7.79 2.75,-5.57 4.1,-11.75 4.1,-14.98 0,-5.31 -3.5,-16.6 -8.26,-21.37zm-5.98 44.14c-5.17,-5.1 -8.94,-17.2 -8.94,-22.77 0.07,-3.43 1.54,-10.02 4.37,-15.86 2.62,-5.51 5.85,-9.01 8.26,-9.01 1.34,0 2.75,1.14 3.7,2.08 5.37,5.31 8.87,17.2 8.87,22.78 0,3.5 -1.47,10.08 -4.23,15.92 -2.69,5.51 -5.91,8.88 -8.33,8.88 -1.14,0 -2.35,-0.68 -3.7,-2.02zm11.76 -49.91c-2.55,-2.55 -5.24,-3.83 -8.06,-3.83 -2.82,0 -5.58,1.27 -8.12,3.9 -6.85,6.85 -10.55,20.35 -10.55,27.08 0,6.92 3.96,20.55 10.61,27.14 2.55,2.55 5.24,3.83 8.06,3.83 6.65,0 11.35,-7.32 13.57,-11.75 3.56,-7.05 5.17,-14.92 5.17,-19.21 0,-6.85 -4.03,-20.49 -10.68,-27.15zm-17.54 55.69c-6.98,-6.92 -11.28,-21.3 -11.28,-28.55 0,-7.05 3.96,-21.3 11.15,-28.49 3.03,-2.96 6.25,-4.5 9.61,-4.5 3.37,0 6.51,1.48 9.48,4.44 6.98,6.98 11.22,21.36 11.22,28.55 0,5.51 -2.15,13.77 -5.38,20.08 -4.1,8.33 -9.54,12.97 -15.32,12.97 -3.36,0 -6.58,-1.55 -9.48,-4.51z"/>
   <path class="fil0" d="M580.29 781.3c0,-6.98 -4.17,-21.03 -10.95,-27.81 -2.75,-2.76 -5.71,-4.17 -8.79,-4.17 -12.3,0 -19.69,22.17 -19.69,31.97 0,7.05 4.17,21.03 10.95,27.88 2.76,2.75 5.72,4.17 8.8,4.17 12.29,0 19.68,-22.24 19.68,-32.04zm-19.68 23.78c-0.87,0 -1.88,-0.53 -3.03,-1.68 -4.97,-4.97 -8.59,-16.66 -8.59,-22.1 0,-3.36 1.48,-9.75 4.24,-15.39 2.74,-5.77 5.71,-8.39 7.32,-8.39 0.87,0 1.87,0.6 3.02,1.74 4.97,4.91 8.6,16.6 8.6,22.04 0,3.36 -1.48,9.75 -4.24,15.45 -2.75,5.78 -5.71,8.33 -7.32,8.33z"/>
   <path class="fil0" d="M562.84 759.91c-1.07,-1.08 -1.81,-1.41 -2.28,-1.41 -1.07,0 -3.7,2.15 -6.45,7.85 -2.68,5.51 -4.03,11.76 -4.1,14.93 0.07,5.24 3.56,16.66 8.33,21.43 1,1 1.81,1.41 2.27,1.41 1.01,0 3.64,-2.08 6.39,-7.79 2.75,-5.58 4.1,-11.76 4.17,-15.05 -0.07,-5.25 -3.57,-16.54 -8.33,-21.37zm-5.98 44.21c-5.11,-5.18 -8.87,-17.2 -8.87,-22.84 0,-3.44 1.47,-10.02 4.3,-15.8 2.68,-5.57 5.85,-9 8.26,-9 1.34,0 2.82,1.14 3.7,2.01 5.37,5.38 8.87,17.27 8.87,22.78 0,3.49 -1.41,10.07 -4.24,15.92 -2.68,5.57 -5.84,8.94 -8.32,8.94 -1.41,0 -2.75,-1.07 -3.7,-2.01zm11.76 -49.91c-2.55,-2.55 -5.24,-3.9 -8.06,-3.9 -2.82,0 -5.51,1.34 -8.13,3.9 -6.85,6.91 -10.55,20.41 -10.55,27.08 0,6.91 4.04,20.55 10.69,27.21 2.48,2.54 5.24,3.83 8.05,3.83 6.59,0 11.36,-7.39 13.51,-11.83 3.56,-7.05 5.17,-14.85 5.17,-19.2 0,-6.86 -4.03,-20.49 -10.68,-27.08zm-17.54 55.69c-6.92,-6.99 -11.28,-21.37 -11.28,-28.62 0,-7.06 4.03,-21.24 11.22,-28.43 2.96,-3.02 6.18,-4.57 9.54,-4.57 3.36,0 6.51,1.55 9.48,4.51 6.98,6.92 11.28,21.3 11.28,28.49 0,5.57 -2.21,13.83 -5.37,20.14 -4.17,8.33 -9.61,12.9 -15.33,12.9 -3.42,0 -6.58,-1.47 -9.54,-4.43z"/>
   <path class="fil0" d="M561.93 819.21c-1.61,-1.61 -4.17,-1.61 -5.78,0l-24.19 24.12c-1.6,1.67 -1.6,4.23 0,5.78 1.62,1.67 4.17,1.67 5.78,0l24.19 -24.12c1.54,-1.61 1.54,-4.24 0,-5.78z"/>
   <path class="fil0" d="M561.19 819.95c-1.2,-1.28 -3.16,-1.28 -4.3,0l-24.25 24.11c-1.14,1.21 -1.14,3.16 0,4.37 1.21,1.21 3.16,1.21 4.37,0l24.18 -24.18c1.21,-1.14 1.21,-3.1 0,-4.3zm-29.96 29.89c-2.01,-1.95 -2.01,-5.17 0,-7.19l24.18 -24.11c1.95,-2.02 5.18,-2.02 7.19,0 2.01,1.94 2.01,5.17 0,7.18l-24.18 24.12c-1.95,2.01 -5.18,2.01 -7.19,0z"/>
   <path class="fil0" d="M652.13 697.94c1.54,1.55 4.17,1.55 5.77,0l24.19 -24.18c1.61,-1.61 1.61,-4.17 0,-5.78 -1.61,-1.61 -4.17,-1.61 -5.85,0l-24.11 24.19c-1.55,1.61 -1.55,4.17 0,5.77z"/>
   <path class="fil0" d="M681.39 668.69c-1.27,-1.21 -3.16,-1.21 -4.37,0l-24.18 24.18c-1.14,1.21 -1.14,3.16 0,4.37 1.2,1.21 3.16,1.21 4.37,0l24.18 -24.18c1.21,-1.21 1.21,-3.17 0,-4.37zm-29.96 29.96c-2.01,-1.94 -2.01,-5.24 0,-7.19l24.18 -24.18c1.95,-2.01 5.17,-2.01 7.19,0 2.01,1.94 2.01,5.24 0,7.18l-24.19 24.19c-1.94,2.01 -5.24,2.01 -7.18,0z"/>
   <path class="fil0" d="M659.02 722.12c1.54,1.55 4.17,1.55 5.78,0l24.11 -24.18c1.68,-1.61 1.61,-4.17 0,-5.78 -1.54,-1.61 -4.17,-1.61 -5.78,0l-24.11 24.18c-1.61,1.61 -1.61,4.24 0,5.78z"/>
   <path class="fil0" d="M688.21 692.86c-1.21,-1.2 -3.17,-1.2 -4.31,0l-24.25 24.19c-1.14,1.21 -1.14,3.16 0,4.37 1.28,1.14 3.17,1.14 4.44,0l24.12 -24.19c1.27,-1.2 1.27,-3.16 0,-4.37zm-29.9 29.97c-2.08,-1.95 -2.08,-5.18 0,-7.19l24.12 -24.19c2.01,-1.94 5.24,-1.94 7.19,0 2.01,2.02 2.01,5.24 0,7.19l-24.19 24.19c-1.94,2.01 -5.17,2.01 -7.12,0z"/>
   <path class="fil0" d="M683.15 729c1.61,1.55 4.17,1.55 5.78,0l24.19 -24.18c1.61,-1.61 1.61,-4.17 0,-5.78 -1.55,-1.6 -4.17,-1.6 -5.78,0l-24.19 24.19c-1.54,1.61 -1.54,4.17 0,5.77z"/>
   <path class="fil0" d="M712.42 699.75c-1.21,-1.21 -3.16,-1.21 -4.3,0l-24.25 24.12c-1.15,1.27 -1.15,3.16 0,4.43 1.2,1.14 3.16,1.14 4.37,0l24.18 -24.25c1.21,-1.14 1.21,-3.1 0,-4.3zm-29.96 29.89c-2.02,-1.94 -2.02,-5.17 0,-7.12l24.18 -24.18c1.95,-2.01 5.17,-2.01 7.19,0 2.01,1.95 2.01,5.18 0,7.19l-24.19 24.11c-1.94,2.08 -5.17,2.08 -7.18,0z"/>
   <path class="fil0" d="M349.55 742.45c-2.75,2.75 -4.17,5.72 -4.17,8.8 0,12.22 22.31,19.75 32.04,19.68 7.05,0 21.1,-4.17 27.82,-10.95 2.74,-2.75 4.16,-5.71 4.16,-8.73 0,-12.36 -22.17,-19.75 -31.97,-19.75 -7.05,0 -21.03,4.1 -27.88,10.95zm12.49 16.13c-5.84,-2.75 -8.39,-5.71 -8.39,-7.32 0,-0.87 0.54,-1.88 1.67,-3.03 4.98,-4.97 16.67,-8.59 22.11,-8.59 3.36,0 9.74,1.4 15.45,4.23 5.72,2.75 8.4,5.65 8.4,7.39 0,0.8 -0.67,1.81 -1.81,2.96 -4.91,4.97 -16.6,8.59 -22.04,8.59 -3.36,0 -9.68,-1.47 -15.39,-4.23z"/>
   <path class="fil0" d="M354.6 751.25c0,1.08 2.08,3.77 7.79,6.45 5.58,2.68 11.76,4.1 15.05,4.1 5.11,0 16.67,-3.56 21.3,-8.33 1.14,-1 1.48,-1.81 1.48,-2.21 0,-1.07 -2.15,-3.83 -7.86,-6.51 -5.57,-2.69 -11.69,-4.04 -14.92,-4.04 -5.31,0 -16.59,3.5 -21.43,8.26 -1.01,1.01 -1.41,1.81 -1.41,2.28zm22.84 12.56c-3.49,0 -10.08,-1.47 -15.85,-4.3 -5.58,-2.68 -9.01,-5.84 -9.01,-8.26 0,-1.41 1.07,-2.82 2.01,-3.77 5.31,-5.3 17.27,-8.79 22.84,-8.79 3.5,0 10.02,1.41 15.79,4.24 5.58,2.68 9.01,5.84 9.01,8.32 0,1.41 -1.14,2.75 -2.01,3.7 -5.11,5.11 -17.2,8.87 -22.78,8.87zm-31.03 -12.56c0,2.82 1.27,5.51 3.97,8.13 6.78,6.85 20.28,10.54 27.07,10.54 6.85,0 20.56,-4.03 27.08,-10.68 2.55,-2.48 3.9,-5.24 3.9,-7.99 0,-2.82 -1.34,-5.57 -3.9,-8.19 -6.78,-6.78 -20.35,-10.55 -27.08,-10.55 -6.91,0 -20.55,4.03 -27.14,10.68 -2.62,2.55 -3.9,5.24 -3.9,8.06zm31.03 20.77c-7.11,0 -21.36,-4.04 -28.55,-11.22 -2.96,-2.96 -4.44,-6.19 -4.44,-9.55 0,-3.36 1.41,-6.58 4.37,-9.54 7.06,-6.92 21.37,-11.22 28.62,-11.22 7.06,-0.07 21.3,3.96 28.49,11.15 3.03,2.96 4.5,6.18 4.5,9.61 0,3.36 -1.47,6.52 -4.43,9.48 -6.99,6.92 -21.37,11.29 -28.56,11.29z"/>
   <path class="fil0" d="M384.65 777.55c-2.75,2.69 -4.17,5.65 -4.17,8.73 0,12.23 22.24,19.75 31.98,19.75 7.11,0 21.09,-4.23 27.88,-10.95 2.75,-2.75 4.17,-5.71 4.17,-8.8 0,-12.29 -22.24,-19.74 -32.04,-19.74 -6.99,0 -21.04,4.16 -27.82,11.01zm12.43 16.13c-5.78,-2.82 -8.4,-5.71 -8.4,-7.39 0,-0.8 0.54,-1.81 1.75,-2.96 4.9,-4.97 16.59,-8.59 22.04,-8.59 3.36,0 9.74,1.41 15.45,4.23 5.78,2.75 8.39,5.65 8.39,7.32 0,0.81 -0.6,1.88 -1.74,3.03 -4.97,4.97 -16.66,8.53 -22.1,8.53 -3.37,0 -9.68,-1.41 -15.39,-4.17z"/>
   <path class="fil0" d="M389.64 786.29c0,1.07 2.14,3.76 7.85,6.51 5.58,2.68 11.76,4.03 14.99,4.03 5.17,0 16.66,-3.56 21.37,-8.25 1.07,-1.01 1.47,-1.88 1.47,-2.28 0,-1.08 -2.15,-3.77 -7.86,-6.52 -5.57,-2.61 -11.69,-4.03 -14.98,-4.03 -5.24,0 -16.53,3.49 -21.44,8.26 -1,1.07 -1.4,1.87 -1.4,2.28zm22.84 12.56c-3.43,0 -10.01,-1.48 -15.86,-4.24 -5.58,-2.68 -8.94,-5.84 -8.94,-8.32 0,-1.41 1.07,-2.75 2.01,-3.7 5.31,-5.31 17.27,-8.88 22.78,-8.88 3.5,0 10.01,1.48 15.85,4.3 5.52,2.62 9.01,5.85 9.01,8.27 0,1.41 -1.14,2.81 -2.01,3.76 -5.17,5.11 -17.2,8.8 -22.84,8.8zm-30.97 -12.56c0,6.71 7.32,11.42 11.76,13.56 7.05,3.57 14.92,5.18 19.21,5.18 6.85,0 20.55,-4.04 27.14,-10.69 2.55,-2.55 3.9,-5.24 3.9,-8.05 0,-2.82 -1.34,-5.58 -3.96,-8.13 -6.79,-6.85 -20.35,-10.55 -27.08,-10.55 -6.92,0 -20.55,4.03 -27.15,10.62 -2.54,2.55 -3.83,5.31 -3.83,8.06zm30.97 20.76c-5.51,0 -13.77,-2.21 -20.09,-5.38 -8.32,-4.16 -12.89,-9.61 -12.89,-15.38 0,-3.37 1.48,-6.59 4.43,-9.48 6.99,-6.98 21.3,-11.29 28.56,-11.29 7.05,0 21.3,4.04 28.55,11.16 2.96,3.02 4.44,6.24 4.44,9.61 0,3.36 -1.48,6.58 -4.37,9.54 -7.05,6.92 -21.44,11.22 -28.62,11.22z"/>
   <path class="fil0" d="M419.68 812.59c-2.74,2.75 -4.16,5.71 -4.16,8.79 0,12.23 22.3,19.75 32.04,19.75 7.05,0 21.1,-4.23 27.81,-11.02 2.75,-2.68 4.17,-5.64 4.17,-8.73 0.07,-12.29 -22.17,-19.74 -31.97,-19.74 -7.05,0 -21.04,4.16 -27.89,10.95zm12.5 16.13c-5.85,-2.76 -8.39,-5.72 -8.39,-7.33 0,-0.87 0.53,-1.87 1.67,-3.02 4.97,-4.98 16.66,-8.6 22.11,-8.6 3.36,0 9.74,1.41 15.45,4.24 5.71,2.75 8.39,5.64 8.39,7.38 0,0.81 -0.6,1.82 -1.81,2.96 -4.9,4.98 -16.59,8.6 -22.03,8.6 -3.37,0 -9.68,-1.48 -15.39,-4.23z"/>
   <path class="fil0" d="M424.74 821.38c0,1.08 2.08,3.77 7.79,6.52 5.57,2.61 11.82,4.03 15.05,4.03 5.11,0 16.66,-3.56 21.37,-8.26 1.07,-1.07 1.47,-1.88 1.47,-2.28 0,-1.07 -2.21,-3.77 -7.92,-6.51 -5.58,-2.69 -11.69,-4.04 -14.92,-4.04 -5.24,0 -16.59,3.5 -21.43,8.26 -1.01,1.01 -1.41,1.88 -1.41,2.28zm22.84 12.56c-3.5,0 -10.08,-1.47 -15.86,-4.3 -5.57,-2.61 -9,-5.85 -9,-8.26 0,-1.41 1.07,-2.82 2.01,-3.77 5.37,-5.3 17.26,-8.79 22.84,-8.79 3.5,0 10.01,1.48 15.86,4.23 5.51,2.69 8.94,5.85 8.94,8.33 0,1.41 -1.14,2.75 -2.01,3.7 -5.11,5.17 -17.2,8.87 -22.78,8.87zm-30.97 -12.56c0,6.72 7.32,11.35 11.76,13.57 7.05,3.56 14.85,5.1 19.21,5.1 6.85,0 20.55,-4.03 27.15,-10.61 2.48,-2.55 3.83,-5.31 3.83,-8.06 0,-6.71 -7.39,-11.42 -11.76,-13.57 -7.05,-3.56 -14.98,-5.17 -19.21,-5.17 -6.92,0 -20.55,4.03 -27.14,10.68 -2.62,2.55 -3.84,5.24 -3.84,8.06zm30.97 20.77c-5.58,0 -13.84,-2.29 -20.15,-5.38 -8.26,-4.17 -12.83,-9.68 -12.83,-15.39 0,-3.36 1.48,-6.58 4.37,-9.54 7.05,-6.92 21.37,-11.22 28.62,-11.22 5.51,0 13.77,2.21 20.08,5.37 8.33,4.17 12.9,9.61 12.9,15.39 0,3.36 -1.47,6.58 -4.44,9.48 -6.98,6.98 -21.36,11.29 -28.55,11.29z"/>
   <path class="fil0" d="M426.25 739.05c6.78,-6.85 10.95,-20.83 10.95,-27.88 0,-9.81 -7.45,-31.97 -19.74,-31.97 -3.1,0 -6.05,1.34 -8.73,4.1 -6.79,6.78 -11.02,20.83 -11.02,27.88 0,9.74 7.52,32.04 19.75,32.04 3.09,0 6.04,-1.41 8.79,-4.17zm-8.79 -51.73c1.74,0 4.63,2.62 7.38,8.39 2.82,5.71 4.17,12.1 4.17,15.46 0,5.44 -3.56,17.13 -8.53,22.1 -1.14,1.15 -2.14,1.68 -3.02,1.68 -1.61,0 -4.58,-2.55 -7.32,-8.39 -2.76,-5.71 -4.24,-12.03 -4.24,-15.39 0,-5.44 3.63,-17.06 8.59,-22.11 1.14,-1.07 2.15,-1.74 2.97,-1.74z"/>
   <path class="fil0" d="M415.16 689.81c-4.7,4.71 -8.26,16.19 -8.26,21.37 0,3.23 1.41,9.41 4.11,15.05 2.75,5.64 5.44,7.79 6.44,7.79 0.41,0 1.28,-0.4 2.28,-1.48 4.78,-4.7 8.26,-16.19 8.26,-21.36 0,-3.23 -1.34,-9.41 -4.03,-14.99 -2.75,-5.71 -5.44,-7.79 -6.52,-7.79 -0.4,0 -1.14,0.34 -2.28,1.41zm2.28 46.22c-2.41,0 -5.64,-3.5 -8.25,-9 -2.82,-5.85 -4.24,-12.36 -4.24,-15.86 0,-5.58 3.43,-17.47 8.8,-22.78 0.93,-0.94 2.34,-2.08 3.69,-2.08 2.49,0 5.65,3.5 8.33,9.01 2.75,5.78 4.3,12.36 4.3,15.86 0,5.57 -3.76,17.67 -8.87,22.84 -1.41,1.27 -2.61,2.01 -3.77,2.01zm-18.67 -24.85c0,4.3 1.54,12.16 5.11,19.21 2.21,4.37 6.92,11.76 13.56,11.76 2.82,0 5.51,-1.28 8.06,-3.84 6.65,-6.58 10.69,-20.28 10.69,-27.14 0,-6.72 -3.77,-20.22 -10.62,-27.08 -2.55,-2.62 -5.31,-3.9 -8.13,-3.9 -2.75,0 -5.5,1.27 -8.05,3.83 -6.59,6.59 -10.62,20.28 -10.62,27.15zm18.67 32.99c-5.71,0 -11.22,-4.57 -15.32,-12.83 -3.16,-6.32 -5.37,-14.64 -5.37,-20.15 0,-7.26 4.23,-21.57 11.29,-28.55 2.88,-2.97 6.04,-4.44 9.4,-4.44 3.44,0 6.65,1.47 9.61,4.5 7.19,7.19 11.16,21.44 11.16,28.49 0,7.18 -4.3,21.57 -11.22,28.62 -2.96,2.88 -6.18,4.37 -9.55,4.37z"/>
   <path class="fil0" d="M461.28 774.08c6.85,-6.78 11.01,-20.83 10.95,-27.81 0.06,-9.82 -7.39,-32.04 -19.68,-32.04 -3.1,0 -6.05,1.4 -8.8,4.16 -6.72,6.79 -10.95,20.77 -10.95,27.89 0,9.74 7.52,31.97 19.75,31.97 3.09,0 6.04,-1.41 8.73,-4.17zm-8.73 -51.66c1.67,0 4.57,2.61 7.32,8.39 2.81,5.71 4.23,12.09 4.23,15.46 0,5.44 -3.63,17.13 -8.59,22.03 -1.14,1.21 -2.15,1.75 -2.96,1.75 -1.68,0 -4.57,-2.62 -7.39,-8.4 -2.75,-5.71 -4.24,-12.02 -4.24,-15.38 0.07,-5.45 3.64,-17.13 8.6,-22.11 1.14,-1.14 2.15,-1.74 3.03,-1.74z"/>
   <path class="fil0" d="M441.99 746.26c0,3.23 1.41,9.41 4.1,14.99 2.75,5.71 5.45,7.86 6.45,7.79 0.4,0 1.21,-0.33 2.28,-1.47 4.77,-4.64 8.26,-16.2 8.26,-21.31 0,-3.29 -1.41,-9.47 -4.04,-15.05 -2.74,-5.71 -5.44,-7.79 -6.51,-7.79 -0.4,0 -1.21,0.4 -2.28,1.48 -4.77,4.77 -8.26,16.06 -8.26,21.36zm10.55 24.79c-2.48,0 -5.64,-3.43 -8.33,-8.94 -2.75,-5.84 -4.23,-12.36 -4.23,-15.86 0,-5.57 3.5,-17.53 8.87,-22.84 0.87,-0.93 2.35,-2.01 3.7,-2.01 2.41,0 5.64,3.5 8.26,9.01 2.82,5.84 4.3,12.36 4.3,15.85 0,5.58 -3.7,17.67 -8.87,22.78 -1.34,1.27 -2.55,2.01 -3.7,2.01zm-18.74 -24.79c0,4.24 1.61,12.17 5.17,19.22 2.15,4.43 6.92,11.75 13.57,11.75 2.75,0 5.51,-1.34 8.06,-3.9 6.58,-6.51 10.68,-20.15 10.68,-27.08 0,-6.78 -3.76,-20.28 -10.62,-27.07 -2.55,-2.62 -5.3,-3.9 -8.12,-3.9 -2.82,0 -5.51,1.27 -8.06,3.83 -6.65,6.58 -10.68,20.22 -10.68,27.14zm18.74 33c-5.78,0 -11.22,-4.58 -15.39,-12.9 -3.16,-6.32 -5.31,-14.58 -5.31,-20.09 0,-7.18 4.24,-21.56 11.22,-28.61 2.96,-2.89 6.11,-4.37 9.48,-4.44 3.36,0 6.58,1.54 9.61,4.5 7.12,7.26 11.15,21.5 11.15,28.55 0,7.19 -4.3,21.57 -11.28,28.56 -2.97,2.96 -6.12,4.44 -9.48,4.44z"/>
   <path class="fil0" d="M467.91 781.3c-0.07,9.81 7.38,32.04 19.68,32.04 3.09,0 6.04,-1.41 8.79,-4.17 6.79,-6.85 10.96,-20.83 10.96,-27.88 0,-9.81 -7.39,-31.97 -19.68,-31.97 -3.1,0 -6.05,1.4 -8.8,4.17 -6.78,6.78 -10.95,20.83 -10.95,27.81zm19.68 23.78c-1.61,0 -4.57,-2.55 -7.32,-8.33 -2.75,-5.7 -4.24,-12.09 -4.24,-15.45 0,-5.44 3.64,-17.13 8.6,-22.04 1.14,-1.14 2.14,-1.74 2.96,-1.74 1.67,0 4.57,2.62 7.39,8.39 2.74,5.64 4.23,12.03 4.23,15.39 0,5.44 -3.63,17.13 -8.59,22.1 -1.14,1.15 -2.15,1.68 -3.03,1.68z"/>
   <path class="fil0" d="M477.03 781.3c0,3.3 1.4,9.48 4.1,15.05 2.75,5.71 5.44,7.79 6.45,7.79 0.4,0 1.27,-0.4 2.28,-1.47 4.77,-4.71 8.25,-16.19 8.25,-21.37 0,-3.23 -1.34,-9.48 -4.03,-14.98 -2.75,-5.72 -5.44,-7.86 -6.51,-7.8 -0.41,-0.06 -1.15,0.34 -2.28,1.41 -4.78,4.84 -8.26,16.13 -8.26,21.37zm10.55 24.86l0 0c-2.42,0 -5.65,-3.44 -8.26,-9.01 -2.82,-5.85 -4.24,-12.36 -4.24,-15.86 0,-5.51 3.5,-17.47 8.87,-22.78 0.87,-0.94 2.28,-2.01 3.64,-2.01 2.48,0 5.64,3.43 8.32,9.01 2.75,5.78 4.3,12.29 4.3,15.79 0,5.64 -3.76,17.67 -8.87,22.84 -0.94,0.94 -2.28,2.02 -3.76,2.02zm-18.68 -24.86l0 0c0,4.3 1.54,12.16 5.11,19.21 2.21,4.44 6.98,11.82 13.57,11.82 2.81,0 5.5,-1.34 8.05,-3.89 6.65,-6.59 10.75,-20.22 10.75,-27.15 0,-6.71 -3.76,-20.22 -10.61,-27.08 -2.62,-2.55 -5.38,-3.9 -8.19,-3.9 -2.76,0 -5.51,1.34 -8,3.9 -6.65,6.52 -10.68,20.15 -10.68,27.08zm18.68 32.99c-5.72,0 -11.22,-4.5 -15.33,-12.83 -3.16,-6.31 -5.37,-14.57 -5.37,-20.15 0,-7.19 4.3,-21.57 11.28,-28.55 2.97,-2.96 6.05,-4.44 9.48,-4.44 3.36,0 6.58,1.48 9.55,4.5 7.18,7.26 11.21,21.44 11.15,28.49 0,7.19 -4.3,21.57 -11.22,28.62 -2.96,2.96 -6.18,4.37 -9.54,4.37z"/>
   <path class="fil0" d="M486.28 819.21c1.54,-1.61 4.17,-1.61 5.78,0l24.18 24.12c1.61,1.67 1.61,4.23 0,5.78 -1.61,1.67 -4.17,1.67 -5.78,0l-24.18 -24.12c-1.54,-1.61 -1.54,-4.24 0,-5.78z"/>
   <path class="fil0" d="M487 824.27l24.11 24.11c1.28,1.28 3.17,1.28 4.44,0 1.14,-1.14 1.14,-3.16 0,-4.3l-24.25 -24.12c-1.14,-1.27 -3.09,-1.27 -4.3,0 -1.21,1.14 -1.21,3.1 0,4.31zm22.77 25.59l-24.18 -24.18c-2.01,-2.02 -2.01,-5.24 0,-7.19 1.95,-1.95 5.24,-1.95 7.18,0l24.12 24.11c2.08,2.09 2.08,5.31 0,7.26 -1.94,1.94 -5.17,1.94 -7.12,0z"/>
   <path class="fil0" d="M396.06 697.94c-1.54,1.55 -4.16,1.55 -5.77,0l-24.19 -24.18c-1.61,-1.61 -1.61,-4.17 0,-5.78 1.61,-1.61 4.17,-1.61 5.78,0l24.18 24.19c1.55,1.61 1.55,4.17 0,5.77z"/>
   <path class="fil0" d="M366.81 673.05l24.18 24.18c1.21,1.21 3.16,1.21 4.37,0 1.14,-1.2 1.14,-3.16 0,-4.37l-24.25 -24.18c-1.14,-1.21 -3.1,-1.21 -4.3,0 -1.21,1.21 -1.21,3.16 0,4.37zm22.77 25.59l-24.18 -24.18c-2.01,-1.95 -2.01,-5.24 0,-7.19 2.01,-2.01 5.24,-2.01 7.18,0l24.19 24.19c2.01,1.94 2.01,5.24 0,7.18 -2.01,2.01 -5.24,2.01 -7.19,0z"/>
   <path class="fil0" d="M389.18 722.12c-1.54,1.55 -4.17,1.55 -5.78,0l-24.11 -24.18c-1.68,-1.61 -1.68,-4.17 0,-5.78 1.54,-1.61 4.1,-1.61 5.77,0l24.12 24.18c1.61,1.61 1.61,4.24 0,5.78z"/>
   <path class="fil0" d="M359.98 697.23l24.12 24.18c1.21,1.14 3.16,1.14 4.37,0 1.21,-1.21 1.21,-3.16 0,-4.37l-24.18 -24.18c-1.14,-1.21 -3.1,-1.21 -4.31,0 -1.27,1.2 -1.27,3.16 0,4.37zm22.71 25.59l-24.11 -24.18c-2.02,-1.95 -2.02,-5.18 0,-7.19 1.94,-1.94 5.17,-1.94 7.18,0l24.12 24.18c2.01,2.01 2.01,5.25 0,7.19 -1.95,2.01 -5.18,2.01 -7.19,0z"/>
   <path class="fil0" d="M365.04 729c-1.61,1.55 -4.17,1.55 -5.78,0l-24.19 -24.18c-1.61,-1.61 -1.61,-4.17 0,-5.78 1.55,-1.6 4.17,-1.6 5.78,0l24.19 24.19c1.54,1.61 1.54,4.17 0,5.77z"/>
   <path class="fil0" d="M335.77 704.08l24.12 24.19c1.27,1.21 3.16,1.21 4.43,0 1.15,-1.21 1.15,-3.16 0,-4.37l-24.25 -24.12c-1.13,-1.27 -3.09,-1.27 -4.3,0 -1.2,1.14 -1.2,3.1 0,4.3zm22.78 25.6l-24.19 -24.18c-2.01,-1.95 -2.01,-5.18 0,-7.19 1.95,-1.95 5.24,-1.95 7.19,0l24.12 24.18c2.08,2.01 2.08,5.24 0,7.19 -1.95,2.01 -5.18,2.01 -7.12,0z"/>
   <path class="fil0" d="M349.55 742.45c-2.75,2.75 -4.17,5.72 -4.17,8.8 0,12.22 22.31,19.75 32.04,19.68 7.05,0 21.1,-4.17 27.82,-10.95 2.74,-2.75 4.16,-5.71 4.16,-8.73 0,-12.36 -22.17,-19.75 -31.97,-19.75 -7.05,0 -21.03,4.1 -27.88,10.95zm12.49 16.13c-5.84,-2.75 -8.39,-5.71 -8.39,-7.32 0,-0.87 0.54,-1.88 1.67,-3.03 4.98,-4.97 16.67,-8.59 22.11,-8.59 3.36,0 9.74,1.4 15.45,4.23 5.72,2.75 8.4,5.65 8.4,7.39 0,0.8 -0.67,1.81 -1.81,2.96 -4.91,4.97 -16.6,8.59 -22.04,8.59 -3.36,0 -9.68,-1.47 -15.39,-4.23z"/>
   <path class="fil0" d="M354.6 751.25c0,1.08 2.08,3.77 7.79,6.45 5.58,2.68 11.76,4.1 15.05,4.1 5.11,0 16.67,-3.56 21.3,-8.33 1.14,-1 1.48,-1.81 1.48,-2.21 0,-1.07 -2.15,-3.83 -7.86,-6.51 -5.57,-2.69 -11.69,-4.04 -14.92,-4.04 -5.31,0 -16.59,3.5 -21.43,8.26 -1.01,1.01 -1.41,1.81 -1.41,2.28zm22.84 12.56c-3.49,0 -10.08,-1.47 -15.85,-4.3 -5.58,-2.68 -9.01,-5.84 -9.01,-8.26 0,-1.41 1.07,-2.82 2.01,-3.77 5.31,-5.3 17.27,-8.79 22.84,-8.79 3.5,0 10.02,1.41 15.79,4.24 5.58,2.68 9.01,5.84 9.01,8.32 0,1.41 -1.14,2.75 -2.01,3.7 -5.11,5.11 -17.2,8.87 -22.78,8.87zm-31.03 -12.56c0,2.82 1.27,5.51 3.97,8.13 6.78,6.85 20.28,10.54 27.07,10.54 6.85,0 20.56,-4.03 27.08,-10.68 2.55,-2.48 3.9,-5.24 3.9,-7.99 0,-2.82 -1.34,-5.57 -3.9,-8.19 -6.78,-6.78 -20.35,-10.55 -27.08,-10.55 -6.91,0 -20.55,4.03 -27.14,10.68 -2.62,2.55 -3.9,5.24 -3.9,8.06zm31.03 20.77c-7.11,0 -21.36,-4.04 -28.55,-11.22 -2.96,-2.96 -4.44,-6.19 -4.44,-9.55 0,-3.36 1.41,-6.58 4.37,-9.54 7.06,-6.92 21.37,-11.22 28.62,-11.22 7.06,-0.07 21.3,3.96 28.49,11.15 3.03,2.96 4.5,6.18 4.5,9.61 0,3.36 -1.47,6.52 -4.43,9.48 -6.99,6.92 -21.37,11.29 -28.56,11.29z"/>
   <path class="fil0" d="M384.65 777.55c-2.75,2.69 -4.17,5.65 -4.17,8.73 0,12.23 22.24,19.75 31.98,19.75 7.11,0 21.09,-4.23 27.88,-10.95 2.75,-2.75 4.17,-5.71 4.17,-8.8 0,-12.29 -22.24,-19.74 -32.04,-19.74 -6.99,0 -21.04,4.16 -27.82,11.01zm12.43 16.13c-5.78,-2.82 -8.4,-5.71 -8.4,-7.39 0,-0.8 0.54,-1.81 1.75,-2.96 4.9,-4.97 16.59,-8.59 22.04,-8.59 3.36,0 9.74,1.41 15.45,4.23 5.78,2.75 8.39,5.65 8.39,7.32 0,0.81 -0.6,1.88 -1.74,3.03 -4.97,4.97 -16.66,8.53 -22.1,8.53 -3.37,0 -9.68,-1.41 -15.39,-4.17z"/>
   <path class="fil0" d="M389.64 786.29c0,1.07 2.14,3.76 7.85,6.51 5.58,2.68 11.76,4.03 14.99,4.03 5.17,0 16.66,-3.56 21.37,-8.25 1.07,-1.01 1.47,-1.88 1.47,-2.28 0,-1.08 -2.15,-3.77 -7.86,-6.52 -5.57,-2.61 -11.69,-4.03 -14.98,-4.03 -5.24,0 -16.53,3.49 -21.44,8.26 -1,1.07 -1.4,1.87 -1.4,2.28zm22.84 12.56c-3.43,0 -10.01,-1.48 -15.86,-4.24 -5.58,-2.68 -8.94,-5.84 -8.94,-8.32 0,-1.41 1.07,-2.75 2.01,-3.7 5.31,-5.31 17.27,-8.88 22.78,-8.88 3.5,0 10.01,1.48 15.85,4.3 5.52,2.62 9.01,5.85 9.01,8.27 0,1.41 -1.14,2.81 -2.01,3.76 -5.17,5.11 -17.2,8.8 -22.84,8.8zm-30.97 -12.56c0,6.71 7.32,11.42 11.76,13.56 7.05,3.57 14.92,5.18 19.21,5.18 6.85,0 20.55,-4.04 27.14,-10.69 2.55,-2.55 3.9,-5.24 3.9,-8.05 0,-2.82 -1.34,-5.58 -3.96,-8.13 -6.79,-6.85 -20.35,-10.55 -27.08,-10.55 -6.92,0 -20.55,4.03 -27.15,10.62 -2.54,2.55 -3.83,5.31 -3.83,8.06zm30.97 20.76c-5.51,0 -13.77,-2.21 -20.09,-5.38 -8.32,-4.16 -12.89,-9.61 -12.89,-15.38 0,-3.37 1.48,-6.59 4.43,-9.48 6.99,-6.98 21.3,-11.29 28.56,-11.29 7.05,0 21.3,4.04 28.55,11.16 2.96,3.02 4.44,6.24 4.44,9.61 0,3.36 -1.48,6.58 -4.37,9.54 -7.05,6.92 -21.44,11.22 -28.62,11.22z"/>
   <path class="fil0" d="M419.68 812.59c-2.74,2.75 -4.16,5.71 -4.16,8.79 0,12.23 22.3,19.75 32.04,19.75 7.05,0 21.1,-4.23 27.81,-11.02 2.75,-2.68 4.17,-5.64 4.17,-8.73 0.07,-12.29 -22.17,-19.74 -31.97,-19.74 -7.05,0 -21.04,4.16 -27.89,10.95zm12.5 16.13c-5.85,-2.76 -8.39,-5.72 -8.39,-7.33 0,-0.87 0.53,-1.87 1.67,-3.02 4.97,-4.98 16.66,-8.6 22.11,-8.6 3.36,0 9.74,1.41 15.45,4.24 5.71,2.75 8.39,5.64 8.39,7.38 0,0.81 -0.6,1.82 -1.81,2.96 -4.9,4.98 -16.59,8.6 -22.03,8.6 -3.37,0 -9.68,-1.48 -15.39,-4.23z"/>
   <path class="fil0" d="M424.74 821.38c0,1.08 2.08,3.77 7.79,6.52 5.57,2.61 11.82,4.03 15.05,4.03 5.11,0 16.66,-3.56 21.37,-8.26 1.07,-1.07 1.47,-1.88 1.47,-2.28 0,-1.07 -2.21,-3.77 -7.92,-6.51 -5.58,-2.69 -11.69,-4.04 -14.92,-4.04 -5.24,0 -16.59,3.5 -21.43,8.26 -1.01,1.01 -1.41,1.88 -1.41,2.28zm22.84 12.56c-3.5,0 -10.08,-1.47 -15.86,-4.3 -5.57,-2.61 -9,-5.85 -9,-8.26 0,-1.41 1.07,-2.82 2.01,-3.77 5.37,-5.3 17.26,-8.79 22.84,-8.79 3.5,0 10.01,1.48 15.86,4.23 5.51,2.69 8.94,5.85 8.94,8.33 0,1.41 -1.14,2.75 -2.01,3.7 -5.11,5.17 -17.2,8.87 -22.78,8.87zm-30.97 -12.56c0,6.72 7.32,11.35 11.76,13.57 7.05,3.56 14.85,5.1 19.21,5.1 6.85,0 20.55,-4.03 27.15,-10.61 2.48,-2.55 3.83,-5.31 3.83,-8.06 0,-6.71 -7.39,-11.42 -11.76,-13.57 -7.05,-3.56 -14.98,-5.17 -19.21,-5.17 -6.92,0 -20.55,4.03 -27.14,10.68 -2.62,2.55 -3.84,5.24 -3.84,8.06zm30.97 20.77c-5.58,0 -13.84,-2.29 -20.15,-5.38 -8.26,-4.17 -12.83,-9.68 -12.83,-15.39 0,-3.36 1.48,-6.58 4.37,-9.54 7.05,-6.92 21.37,-11.22 28.62,-11.22 5.51,0 13.77,2.21 20.08,5.37 8.33,4.17 12.9,9.61 12.9,15.39 0,3.36 -1.47,6.58 -4.44,9.48 -6.98,6.98 -21.36,11.29 -28.55,11.29z"/>
   <path class="fil0" d="M426.25 739.05c6.78,-6.85 10.95,-20.83 10.95,-27.88 0,-9.81 -7.45,-31.97 -19.74,-31.97 -3.1,0 -6.05,1.34 -8.73,4.1 -6.79,6.78 -11.02,20.83 -11.02,27.88 0,9.74 7.52,32.04 19.75,32.04 3.09,0 6.04,-1.41 8.79,-4.17zm-8.79 -51.73c1.74,0 4.63,2.62 7.38,8.39 2.82,5.71 4.17,12.1 4.17,15.46 0,5.44 -3.56,17.13 -8.53,22.1 -1.14,1.15 -2.14,1.68 -3.02,1.68 -1.61,0 -4.58,-2.55 -7.32,-8.39 -2.76,-5.71 -4.24,-12.03 -4.24,-15.39 0,-5.44 3.63,-17.06 8.59,-22.11 1.14,-1.07 2.15,-1.74 2.97,-1.74z"/>
   <path class="fil0" d="M415.16 689.81c-4.7,4.71 -8.26,16.19 -8.26,21.37 0,3.23 1.41,9.41 4.11,15.05 2.75,5.64 5.44,7.79 6.44,7.79 0.41,0 1.28,-0.4 2.28,-1.48 4.78,-4.7 8.26,-16.19 8.26,-21.36 0,-3.23 -1.34,-9.41 -4.03,-14.99 -2.75,-5.71 -5.44,-7.79 -6.52,-7.79 -0.4,0 -1.14,0.34 -2.28,1.41zm2.28 46.22c-2.41,0 -5.64,-3.5 -8.25,-9 -2.82,-5.85 -4.24,-12.36 -4.24,-15.86 0,-5.58 3.43,-17.47 8.8,-22.78 0.93,-0.94 2.34,-2.08 3.69,-2.08 2.49,0 5.65,3.5 8.33,9.01 2.75,5.78 4.3,12.36 4.3,15.86 0,5.57 -3.76,17.67 -8.87,22.84 -1.41,1.27 -2.61,2.01 -3.77,2.01zm-18.67 -24.85c0,4.3 1.54,12.16 5.11,19.21 2.21,4.37 6.92,11.76 13.56,11.76 2.82,0 5.51,-1.28 8.06,-3.84 6.65,-6.58 10.69,-20.28 10.69,-27.14 0,-6.72 -3.77,-20.22 -10.62,-27.08 -2.55,-2.62 -5.31,-3.9 -8.13,-3.9 -2.75,0 -5.5,1.27 -8.05,3.83 -6.59,6.59 -10.62,20.28 -10.62,27.15zm18.67 32.99c-5.71,0 -11.22,-4.57 -15.32,-12.83 -3.16,-6.32 -5.37,-14.64 -5.37,-20.15 0,-7.26 4.23,-21.57 11.29,-28.55 2.88,-2.97 6.04,-4.44 9.4,-4.44 3.44,0 6.65,1.47 9.61,4.5 7.19,7.19 11.16,21.44 11.16,28.49 0,7.18 -4.3,21.57 -11.22,28.62 -2.96,2.88 -6.18,4.37 -9.55,4.37z"/>
   <path class="fil0" d="M461.28 774.08c6.85,-6.78 11.01,-20.83 10.95,-27.81 0.06,-9.82 -7.39,-32.04 -19.68,-32.04 -3.1,0 -6.05,1.4 -8.8,4.16 -6.72,6.79 -10.95,20.77 -10.95,27.89 0,9.74 7.52,31.97 19.75,31.97 3.09,0 6.04,-1.41 8.73,-4.17zm-8.73 -51.66c1.67,0 4.57,2.61 7.32,8.39 2.81,5.71 4.23,12.09 4.23,15.46 0,5.44 -3.63,17.13 -8.59,22.03 -1.14,1.21 -2.15,1.75 -2.96,1.75 -1.68,0 -4.57,-2.62 -7.39,-8.4 -2.75,-5.71 -4.24,-12.02 -4.24,-15.38 0.07,-5.45 3.64,-17.13 8.6,-22.11 1.14,-1.14 2.15,-1.74 3.03,-1.74z"/>
   <path class="fil0" d="M441.99 746.26c0,3.23 1.41,9.41 4.1,14.99 2.75,5.71 5.45,7.86 6.45,7.79 0.4,0 1.21,-0.33 2.28,-1.47 4.77,-4.64 8.26,-16.2 8.26,-21.31 0,-3.29 -1.41,-9.47 -4.04,-15.05 -2.74,-5.71 -5.44,-7.79 -6.51,-7.79 -0.4,0 -1.21,0.4 -2.28,1.48 -4.77,4.77 -8.26,16.06 -8.26,21.36zm10.55 24.79c-2.48,0 -5.64,-3.43 -8.33,-8.94 -2.75,-5.84 -4.23,-12.36 -4.23,-15.86 0,-5.57 3.5,-17.53 8.87,-22.84 0.87,-0.93 2.35,-2.01 3.7,-2.01 2.41,0 5.64,3.5 8.26,9.01 2.82,5.84 4.3,12.36 4.3,15.85 0,5.58 -3.7,17.67 -8.87,22.78 -1.34,1.27 -2.55,2.01 -3.7,2.01zm-18.74 -24.79c0,4.24 1.61,12.17 5.17,19.22 2.15,4.43 6.92,11.75 13.57,11.75 2.75,0 5.51,-1.34 8.06,-3.9 6.58,-6.51 10.68,-20.15 10.68,-27.08 0,-6.78 -3.76,-20.28 -10.62,-27.07 -2.55,-2.62 -5.3,-3.9 -8.12,-3.9 -2.82,0 -5.51,1.27 -8.06,3.83 -6.65,6.58 -10.68,20.22 -10.68,27.14zm18.74 33c-5.78,0 -11.22,-4.58 -15.39,-12.9 -3.16,-6.32 -5.31,-14.58 -5.31,-20.09 0,-7.18 4.24,-21.56 11.22,-28.61 2.96,-2.89 6.11,-4.37 9.48,-4.44 3.36,0 6.58,1.54 9.61,4.5 7.12,7.26 11.15,21.5 11.15,28.55 0,7.19 -4.3,21.57 -11.28,28.56 -2.97,2.96 -6.12,4.44 -9.48,4.44z"/>
   <path class="fil0" d="M467.91 781.3c-0.07,9.81 7.38,32.04 19.68,32.04 3.09,0 6.04,-1.41 8.79,-4.17 6.79,-6.85 10.96,-20.83 10.96,-27.88 0,-9.81 -7.39,-31.97 -19.68,-31.97 -3.1,0 -6.05,1.4 -8.8,4.17 -6.78,6.78 -10.95,20.83 -10.95,27.81zm19.68 23.78c-1.61,0 -4.57,-2.55 -7.32,-8.33 -2.75,-5.7 -4.24,-12.09 -4.24,-15.45 0,-5.44 3.64,-17.13 8.6,-22.04 1.14,-1.14 2.14,-1.74 2.96,-1.74 1.67,0 4.57,2.62 7.39,8.39 2.74,5.64 4.23,12.03 4.23,15.39 0,5.44 -3.63,17.13 -8.59,22.1 -1.14,1.15 -2.15,1.68 -3.03,1.68z"/>
   <path class="fil0" d="M477.03 781.3c0,3.3 1.4,9.48 4.1,15.05 2.75,5.71 5.44,7.79 6.45,7.79 0.4,0 1.27,-0.4 2.28,-1.47 4.77,-4.71 8.25,-16.19 8.25,-21.37 0,-3.23 -1.34,-9.48 -4.03,-14.98 -2.75,-5.72 -5.44,-7.86 -6.51,-7.8 -0.41,-0.06 -1.15,0.34 -2.28,1.41 -4.78,4.84 -8.26,16.13 -8.26,21.37zm10.55 24.86l0 0c-2.42,0 -5.65,-3.44 -8.26,-9.01 -2.82,-5.85 -4.24,-12.36 -4.24,-15.86 0,-5.51 3.5,-17.47 8.87,-22.78 0.87,-0.94 2.28,-2.01 3.64,-2.01 2.48,0 5.64,3.43 8.32,9.01 2.75,5.78 4.3,12.29 4.3,15.79 0,5.64 -3.76,17.67 -8.87,22.84 -0.94,0.94 -2.28,2.02 -3.76,2.02zm-18.68 -24.86l0 0c0,4.3 1.54,12.16 5.11,19.21 2.21,4.44 6.98,11.82 13.57,11.82 2.81,0 5.5,-1.34 8.05,-3.89 6.65,-6.59 10.75,-20.22 10.75,-27.15 0,-6.71 -3.76,-20.22 -10.61,-27.08 -2.62,-2.55 -5.38,-3.9 -8.19,-3.9 -2.76,0 -5.51,1.34 -8,3.9 -6.65,6.52 -10.68,20.15 -10.68,27.08zm18.68 32.99c-5.72,0 -11.22,-4.5 -15.33,-12.83 -3.16,-6.31 -5.37,-14.57 -5.37,-20.15 0,-7.19 4.3,-21.57 11.28,-28.55 2.97,-2.96 6.05,-4.44 9.48,-4.44 3.36,0 6.58,1.48 9.55,4.5 7.18,7.26 11.21,21.44 11.15,28.49 0,7.19 -4.3,21.57 -11.22,28.62 -2.96,2.96 -6.18,4.37 -9.54,4.37z"/>
   <path class="fil0" d="M486.28 819.21c1.54,-1.61 4.17,-1.61 5.78,0l24.18 24.12c1.61,1.67 1.61,4.23 0,5.78 -1.61,1.67 -4.17,1.67 -5.78,0l-24.18 -24.12c-1.54,-1.61 -1.54,-4.24 0,-5.78z"/>
   <path class="fil0" d="M487 824.27l24.11 24.11c1.28,1.28 3.17,1.28 4.44,0 1.14,-1.14 1.14,-3.16 0,-4.3l-24.25 -24.12c-1.14,-1.27 -3.09,-1.27 -4.3,0 -1.21,1.14 -1.21,3.1 0,4.31zm22.77 25.59l-24.18 -24.18c-2.01,-2.02 -2.01,-5.24 0,-7.19 1.95,-1.95 5.24,-1.95 7.18,0l24.12 24.11c2.08,2.09 2.08,5.31 0,7.26 -1.94,1.94 -5.17,1.94 -7.12,0z"/>
   <path class="fil0" d="M396.06 697.94c-1.54,1.55 -4.16,1.55 -5.77,0l-24.19 -24.18c-1.61,-1.61 -1.61,-4.17 0,-5.78 1.61,-1.61 4.17,-1.61 5.78,0l24.18 24.19c1.55,1.61 1.55,4.17 0,5.77z"/>
   <path class="fil0" d="M366.81 673.05l24.18 24.18c1.21,1.21 3.16,1.21 4.37,0 1.14,-1.2 1.14,-3.16 0,-4.37l-24.25 -24.18c-1.14,-1.21 -3.1,-1.21 -4.3,0 -1.21,1.21 -1.21,3.16 0,4.37zm22.77 25.59l-24.18 -24.18c-2.01,-1.95 -2.01,-5.24 0,-7.19 2.01,-2.01 5.24,-2.01 7.18,0l24.19 24.19c2.01,1.94 2.01,5.24 0,7.18 -2.01,2.01 -5.24,2.01 -7.19,0z"/>
   <path class="fil0" d="M389.18 722.12c-1.54,1.55 -4.17,1.55 -5.78,0l-24.11 -24.18c-1.68,-1.61 -1.68,-4.17 0,-5.78 1.54,-1.61 4.1,-1.61 5.77,0l24.12 24.18c1.61,1.61 1.61,4.24 0,5.78z"/>
   <path class="fil0" d="M359.98 697.23l24.12 24.18c1.21,1.14 3.16,1.14 4.37,0 1.21,-1.21 1.21,-3.16 0,-4.37l-24.18 -24.18c-1.14,-1.21 -3.1,-1.21 -4.31,0 -1.27,1.2 -1.27,3.16 0,4.37zm22.71 25.59l-24.11 -24.18c-2.02,-1.95 -2.02,-5.18 0,-7.19 1.94,-1.94 5.17,-1.94 7.18,0l24.12 24.18c2.01,2.01 2.01,5.25 0,7.19 -1.95,2.01 -5.18,2.01 -7.19,0z"/>
   <path class="fil0" d="M365.04 729c-1.61,1.55 -4.17,1.55 -5.78,0l-24.19 -24.18c-1.61,-1.61 -1.61,-4.17 0,-5.78 1.55,-1.6 4.17,-1.6 5.78,0l24.19 24.19c1.54,1.61 1.54,4.17 0,5.77z"/>
   <path class="fil0" d="M335.77 704.08l24.12 24.19c1.27,1.21 3.16,1.21 4.43,0 1.15,-1.21 1.15,-3.16 0,-4.37l-24.25 -24.12c-1.13,-1.27 -3.09,-1.27 -4.3,0 -1.2,1.14 -1.2,3.1 0,4.3zm22.78 25.6l-24.19 -24.18c-2.01,-1.95 -2.01,-5.18 0,-7.19 1.95,-1.95 5.24,-1.95 7.19,0l24.12 24.18c2.08,2.01 2.08,5.24 0,7.19 -1.95,2.01 -5.18,2.01 -7.12,0z"/>
   <path class="fil0" d="M612.17 510.58c-0.6,19.48 -6.18,37.15 -18.2,52.53 -10.95,14.11 -18.27,29.7 -21.71,47.23 -0.94,4.91 -5.03,7.93 -9.34,7.12 -4.9,-0.87 -7.72,-5.24 -6.65,-10.48 3.9,-19.55 11.9,-37.15 24.05,-52.94 30.57,-39.44 12.7,-97.08 -34.73,-112.39 -43.26,-13.97 -88.61,15.52 -93.45,60.66 -2.01,19.14 2.96,36.28 14.37,51.6 11.89,15.79 20.09,33.19 23.99,52.6 1.2,5.58 -1.28,9.95 -6.25,10.95 -4.51,0.87 -8.46,-2.15 -9.61,-7.39 -3.63,-17.13 -10.82,-32.58 -21.37,-46.62 -40.31,-53.88 -9.34,-129.99 57.18,-140.68 46.42,-7.39 91.7,24.86 99.76,71.35 0.94,5.44 1.27,10.95 1.94,16.46z"/>
   <path class="fil0" d="M523.86 652.31l38.3 0c6.99,0 11.49,4.1 11.56,10.22 0.07,5.91 -4.44,10.55 -11.02,10.55 -26.06,0.13 -52.07,0.13 -78.13,0.07 -5.84,-0.07 -9.61,-3.1 -10.82,-8.2 -1.07,-4.3 0.74,-9.07 4.77,-11.15 1.95,-1.01 4.44,-1.41 6.72,-1.48 12.83,-0.06 25.79,0 38.63,0z"/>
   <path class="fil0" d="M523.54 680.24l38.97 0c6.58,0 11.15,4.23 11.22,10.21 0.13,6.05 -4.64,10.62 -11.29,10.68l-77.65 0c-6.12,-0.06 -10.22,-3.43 -11.22,-9 -0.88,-4.71 2.07,-9.68 6.78,-11.29 1.54,-0.47 3.29,-0.6 4.97,-0.6l38.23 0z"/>
   <path class="fil0" d="M523.54 645.03c-12.96,0 -26.06,0.07 -39.03,0 -7.93,-0.13 -12.77,-6.38 -10.55,-13.43 1.21,-4.03 3.96,-6.52 8.26,-7.12 1.47,-0.27 3.09,-0.27 4.63,-0.27l73.09 0 1.21 0c7.86,0.07 12.56,4.03 12.56,10.48 0,6.45 -4.7,10.35 -12.63,10.35l-37.55 0z"/>
   <path class="fil0" d="M522.62 708.25l24.72 0c4.64,0 6.12,2.22 4.44,6.45 -1.61,3.63 -3.3,7.25 -4.84,10.95 -0.94,2.49 -2.48,3.57 -5.24,3.5 -12.83,-0.07 -25.79,-0.07 -38.7,0 -2.68,0.07 -4.23,-1 -5.24,-3.5 -1.41,-3.56 -3.1,-7.05 -4.5,-10.61 -2.02,-4.71 -0.54,-6.79 4.57,-6.79l24.78 0z"/>
   <path class="fil0" d="M772.98 1122.19c-67.65,34.6 -144.24,54.08 -225.38,54.08 -52.07,0 -102.18,-8 -149.28,-22.85 -16.26,-5.11 -32.24,-11.08 -47.76,-17.87 -12.83,12.83 -25.66,25.8 -38.23,38.9 14.78,7.12 29.96,13.5 45.42,19.22 59.12,21.9 123.07,33.79 189.85,33.79 90.48,0 175.87,-21.97 251.12,-60.93 13.7,-7.05 27.08,-14.72 40.04,-22.91 -8.33,-15.05 -16.86,-29.96 -25.66,-44.34 -13.03,8.26 -26.4,15.92 -40.11,22.91zm-137.71 -982.72c-17.67,-2.88 -35.54,-4.9 -53.75,-5.98 7.79,16.46 16.2,34.47 24.99,53.68 18.88,2.21 37.28,5.51 55.42,9.75 218.94,51.66 381.85,248.29 381.85,483.02 0,118.71 -41.58,227.61 -111.05,312.93 -12.15,14.91 -25.05,29.15 -38.83,42.45 3.77,19.95 7.52,39.77 11.15,59.25 13.91,-11.96 27.21,-24.65 39.85,-38.02 93.04,-98.15 150.15,-230.69 150.15,-376.61 0,-272.48 -199.13,-498.48 -459.78,-540.47zm-215.92 8.06c-240.51,57.71 -419.34,274.17 -419.34,532.41 0,121.33 39.44,233.39 106.14,324.01 11.76,16.06 24.39,31.3 37.69,45.89 4.37,-21.24 8.79,-42.39 13.23,-63.49 -13.03,-16.73 -25.12,-34.2 -36.01,-52.54 -44.34,-74.24 -69.8,-161.03 -69.8,-253.87 0,-217.73 140.21,-402.69 335.23,-469.53 19.68,-6.78 39.98,-12.35 60.66,-16.59 10.69,-20.28 20.77,-39.44 30.1,-56.9 -19.62,2.54 -38.9,6.04 -57.91,10.61z"/>
   <path class="fil0" d="M660.59 948.85c-82.5,-11.35 -200.47,78.33 -310.04,186.7 15.52,6.78 31.5,12.76 47.76,17.87 105.27,-101.38 193.28,-159.35 247.63,-159.35 2.96,0 5.64,0.13 8.32,0.53 9.81,1.28 46.83,13.7 111.66,116.36 2.41,3.7 4.77,7.39 7.05,11.22 13.7,-6.98 27.08,-14.64 40.11,-22.91 -48.17,-78.86 -102.18,-143.43 -152.5,-150.42zm-274.1 -738.45c-72.35,139.33 -158.35,313.19 -187.77,405.7 -21.84,68.87 -49.91,188.44 -77.66,317.7 10.88,18.34 22.98,35.87 36.01,52.53 30.29,-143.36 61.94,-281.62 85.66,-356.26 31.1,-98.08 130.46,-295.19 204.43,-436.27 -20.7,4.24 -40.98,9.82 -60.66,16.6zm534.28 1102.3c-21.23,-49.24 -49.71,-110.72 -82.02,-169.1 -8.33,-15.05 -16.93,-29.96 -25.66,-44.34 -48.17,-78.86 -102.18,-143.43 -152.5,-150.42 -82.5,-11.35 -200.47,78.33 -310.04,186.7 -12.9,12.83 -25.66,25.79 -38.3,38.9 -94.86,99.16 -179.1,205.37 -221.83,261.33 -7.53,9.74 -22.98,2.81 -20.7,-9.28 13.97,-74.37 42.46,-223.58 74.11,-376.68 4.36,-21.23 8.72,-42.39 13.23,-63.49 30.29,-143.36 61.94,-281.62 85.66,-356.26 31.1,-98.08 130.46,-295.19 204.43,-436.27 10.61,-20.28 20.76,-39.43 30.09,-56.9 19.55,-36.81 35.61,-66.44 45.49,-84.64 4.57,-8.4 16.66,-8.06 20.76,0.53 8.39,17.67 21.7,45.76 38.02,80.69 7.72,16.46 16.13,34.46 24.99,53.68 70.14,151.15 170.37,373.32 204.43,479.46 24.25,75.58 55.35,224.12 82.97,368.69 3.76,19.95 7.52,39.78 11.15,59.26 14.78,79.61 28.08,154.51 37.89,211.48 2.34,13.64 -16.67,19.28 -22.18,6.65zm67.66 -14.44c-11.62,-67.11 -26.88,-153.1 -43.6,-241.65 -3.9,-21.16 -7.99,-42.45 -12.09,-63.75 -26.47,-135.97 -55.02,-268.93 -77.79,-340.27 -32.72,-101.78 -122.87,-303.73 -193.01,-455.69 -9.34,-20.15 -18.27,-39.37 -26.68,-57.44 -20.89,-44.88 -38.56,-82.16 -50.12,-106.48 -9.68,-20.35 -29.62,-32.99 -52.13,-32.99 -21.23,0 -40.71,11.62 -50.79,30.23 -14.04,25.79 -36.48,67.38 -62.89,117.3 -10.41,19.81 -21.43,40.91 -32.85,62.88 -72.35,139.33 -158.35,313.19 -187.77,405.7 -21.84,68.87 -49.91,188.44 -77.66,317.7 -4.97,23.17 -10.01,46.69 -14.92,70.13 -33.06,158.21 -64.03,319.91 -81.76,414.03 -3.23,17 1.27,34.33 12.16,47.5 11.09,13.36 27.41,21.03 44.74,21.03 18.08,0 34.74,-8.26 45.76,-22.71 80.42,-105.14 158.88,-196.56 230.69,-270.06 13.77,-14.11 27.28,-27.62 40.58,-40.31 105.27,-101.38 193.28,-159.35 247.63,-159.35 2.96,0 5.64,0.13 8.32,0.53 9.81,1.28 46.83,13.7 111.66,116.36 2.41,3.7 4.77,7.39 7.05,11.22 8.79,14.37 17.4,29.29 25.72,44.35 31.91,57.91 59.93,118.77 79.75,164.45 4.64,10.69 12.03,19.41 21.3,25.39 9.14,6.12 20.02,9.55 31.51,9.55 17.26,0 33.52,-7.53 44.61,-20.7 10.88,-12.9 15.45,-30.09 12.56,-46.96zm-601.93 -1087.85c-72.35,139.33 -158.35,313.19 -187.77,405.7 -21.84,68.87 -49.91,188.44 -77.66,317.7 10.88,18.34 22.98,35.87 36.01,52.53 30.29,-143.36 61.94,-281.62 85.66,-356.26 31.1,-98.08 130.46,-295.19 204.43,-436.27 -20.7,4.24 -40.98,9.82 -60.66,16.6zm274.1 738.45c-82.5,-11.35 -200.47,78.33 -310.04,186.7 15.52,6.78 31.5,12.76 47.76,17.87 105.27,-101.38 193.28,-159.35 247.63,-159.35 2.96,0 5.64,0.13 8.32,0.53 9.81,1.28 46.83,13.7 111.66,116.36 2.41,3.7 4.77,7.39 7.05,11.22 13.7,-6.98 27.08,-14.64 40.11,-22.91 -48.17,-78.86 -102.18,-143.43 -152.5,-150.42z"/>
   <polygon class="fil0" points="237,1720.47 135.19,1673.62 135.19,1658.33 237,1605.28 237,1630.94 168.24,1664.84 237,1694.9 "/>
   <polygon class="fil0" points="268.57,1742.18 324.19,1613.84 252.29,1613.84 252.29,1586.03 360.12,1586.03 360.12,1606.77 303.11,1742.18 "/>
   <polygon class="fil0" points="386.76,1742.18 386.76,1585.81 419.91,1585.81 419.91,1714.8 476.81,1714.8 476.81,1742.18 "/>
   <path class="fil0" d="M561.2 1686.78l-10.81 0.43c-4.36,0.14 -8.01,0.71 -11.01,1.7 -3,1.01 -5.4,2.34 -7.23,4.01 -1.8,1.68 -3.14,3.69 -3.95,5.99 -0.83,2.32 -1.24,4.92 -1.24,7.76 0,4.99 1.23,8.53 3.64,10.64 2.43,2.11 5.61,3.17 9.53,3.17 3.01,0 5.79,-0.53 8.34,-1.55 2.56,-1.04 4.81,-2.57 6.69,-4.61 1.89,-2.02 3.37,-4.52 4.44,-7.48 1.07,-2.97 1.6,-6.37 1.6,-10.21l0 -9.85zm9.63 55.4l-6.31 -16.26 -0.96 0c-2.35,3.22 -4.71,5.97 -7.05,8.29 -2.35,2.31 -4.93,4.23 -7.71,5.71 -2.78,1.51 -5.9,2.6 -9.36,3.33 -3.47,0.71 -7.46,1.07 -12.03,1.07 -4.86,0 -9.35,-0.77 -13.47,-2.31 -4.15,-1.51 -7.73,-3.84 -10.75,-6.95 -3.05,-3.1 -5.41,-7.01 -7.12,-11.76 -1.71,-4.74 -2.56,-10.36 -2.56,-16.83 0,-12.7 4.07,-22.07 12.19,-28.1 8.13,-6.01 20.27,-9.36 36.47,-10l19.04 -0.64 0 -8.99c0,-4.92 -1.42,-8.55 -4.28,-10.91 -2.85,-2.35 -6.85,-3.54 -11.98,-3.54 -5.14,0 -10.16,0.76 -15.03,2.26 -4.89,1.49 -9.79,3.49 -14.72,5.98l-10.59 -21.61c5.99,-3.36 12.62,-5.99 19.9,-7.91 7.27,-1.93 14.91,-2.88 22.89,-2.88 14.9,0 26.32,3.49 34.28,10.48 7.96,6.99 11.92,17.62 11.92,31.87l0 79.69 -22.78 0z"/>
   <path class="fil0" d="M679.94 1646.45c-3.64,0 -6.72,0.67 -9.26,1.98 -2.53,1.32 -4.57,3.31 -6.15,5.94 -1.57,2.63 -2.71,5.97 -3.43,10 -0.7,4.03 -1.14,8.72 -1.28,14.06l0 3.53c0,5.78 0.33,10.91 1.02,15.41 0.68,4.49 1.79,8.25 3.36,11.28 1.59,3.04 3.68,5.34 6.27,6.9 2.6,1.57 5.83,2.35 9.69,2.35 6.47,0 11.24,-3.09 14.27,-9.26 3.02,-6.16 4.54,-15.14 4.54,-26.91 0,-11.76 -1.52,-20.59 -4.54,-26.47 -3.04,-5.88 -7.86,-8.83 -14.49,-8.83zm11.01 -26.1c6.14,0 11.73,1.33 16.8,3.97 5.06,2.64 9.41,6.56 13.04,11.77 3.65,5.21 6.48,11.66 8.5,19.35 2.04,7.71 3.06,16.62 3.06,26.75 0,10.27 -1.01,19.26 -3.06,27 -2.02,7.73 -4.9,14.21 -8.6,19.42 -3.7,5.2 -8.15,9.13 -13.36,11.77 -5.22,2.63 -10.96,3.96 -17.23,3.96 -4,0 -7.53,-0.42 -10.65,-1.29 -3.1,-0.85 -5.86,-1.99 -8.29,-3.43 -2.41,-1.42 -4.53,-3.05 -6.36,-4.86 -1.8,-1.82 -3.47,-3.73 -4.97,-5.73l-2.23 0 -5.47 13.16 -24.91 0 0 -166.42 32.62 0 0 38.71c0,2.35 -0.08,4.91 -0.22,7.66 -0.14,2.73 -0.28,5.28 -0.42,7.64l-0.64 8.34 1.28 0c1.5,-2.49 3.22,-4.82 5.14,-6.95 1.91,-2.13 4.15,-4.02 6.69,-5.62 2.52,-1.6 5.39,-2.86 8.59,-3.81 3.22,-0.92 6.78,-1.39 10.7,-1.39z"/>
   <path class="fil0" d="M840.05 1706.67c0,6.27 -1.14,11.77 -3.43,16.48 -2.26,4.7 -5.52,8.61 -9.73,11.76 -4.21,3.15 -9.32,5.5 -15.31,7.06 -5.98,1.56 -12.69,2.35 -20.09,2.35 -3.94,0 -7.57,-0.13 -10.93,-0.37 -3.34,-0.26 -6.5,-0.66 -9.51,-1.24 -3,-0.56 -5.89,-1.28 -8.65,-2.14 -2.77,-0.84 -5.61,-1.91 -8.46,-3.22l0 -26.95c3.01,1.5 6.16,2.85 9.48,4.08 3.31,1.21 6.6,2.26 9.9,3.15 3.28,0.9 6.46,1.58 9.56,2.09 3.11,0.49 5.99,0.75 8.62,0.75 2.91,0 5.41,-0.27 7.48,-0.81 2.06,-0.53 3.76,-1.28 5.07,-2.25 1.33,-0.96 2.28,-2.09 2.89,-3.42 0.62,-1.32 0.91,-2.72 0.91,-4.23 0,-1.49 -0.23,-2.82 -0.69,-4.01 -0.46,-1.17 -1.52,-2.41 -3.15,-3.75 -1.64,-1.3 -4.07,-2.8 -7.23,-4.48 -3.17,-1.68 -7.43,-3.73 -12.78,-6.16 -5.21,-2.35 -9.72,-4.69 -13.53,-7 -3.8,-2.31 -6.96,-4.91 -9.41,-7.76 -2.46,-2.83 -4.31,-6.12 -5.52,-9.78 -1.2,-3.68 -1.8,-8.04 -1.8,-13.11 0,-5.55 1.06,-10.42 3.21,-14.59 2.14,-4.18 5.17,-7.65 9.09,-10.44 3.92,-2.77 8.65,-4.86 14.16,-6.26 5.53,-1.38 11.68,-2.08 18.46,-2.08 7.13,0 13.9,0.83 20.32,2.47 6.41,1.63 13.01,4.1 19.79,7.37l-9.85 23.11c-5.42,-2.57 -10.59,-4.68 -15.51,-6.31 -4.93,-1.64 -9.85,-2.45 -14.77,-2.45 -4.43,0 -7.61,0.77 -9.56,2.35 -1.98,1.56 -2.97,3.7 -2.97,6.41 0,1.42 0.26,2.68 0.76,3.79 0.5,1.11 1.5,2.25 2.99,3.44 1.49,1.16 3.6,2.45 6.31,3.86 2.7,1.37 6.24,3.08 10.6,5.07 5.06,2.21 9.62,4.41 13.69,6.57 4.05,2.17 7.56,4.67 10.48,7.44 2.93,2.77 5.16,6.03 6.73,9.73 1.56,3.72 2.35,8.19 2.35,13.48z"/>
   <polygon class="fil0" points="858.02,1694.91 926.79,1664.85 858.02,1630.93 858.02,1605.28 959.84,1658.33 959.84,1673.62 858.02,1720.48 "/>
  </g>
 </g>
</svg>
