<?xml version="1.0" encoding="UTF-8"?>
<!DOCTYPE svg PUBLIC "-//W3C//DTD SVG 1.1//EN" "http://www.w3.org/Graphics/SVG/1.1/DTD/svg11.dtd">
<!-- Creator: CorelDRAW 2018 (64 Bit Versão de avaliação) -->
<svg xmlns="http://www.w3.org/2000/svg" xml:space="preserve" width="24.3846mm" height="16.1211mm" version="1.1" style="shape-rendering:geometricPrecision; text-rendering:geometricPrecision; image-rendering:optimizeQuality; fill-rule:evenodd; clip-rule:evenodd"
viewBox="0 0 2735.27 1808.33"
 xmlns:xlink="http://www.w3.org/1999/xlink">
 <defs>
  <style type="text/css">
   <![CDATA[
    .fil1 {fill:#FEFEFE}
    .fil0 {fill:#FEFEFE;fill-rule:nonzero}
   ]]>
  </style>
 </defs>
 <g id="Camada_x0020_1">
  <metadata id="CorelCorpID_0Corel-Layer"/>
  <g id="_1742687976160">
   <path class="fil0" d="M48.32 0l1529.59 0c14.9,11.7 24.48,29.88 24.48,50.3 0,18.25 -7.64,34.69 -19.89,46.34l-1485.86 0 0 1110.22 824.87 0 0 0.16c15.5,0.01 30.74,7.5 40.01,21.36l297.73 445.12 295.02 -441.77c8.26,-14.83 24.08,-24.87 42.26,-24.87l586.61 0 442.24 -556.33 -442.17 -553.89 -248.98 0c-12.25,-11.64 -19.89,-28.09 -19.89,-46.34 0,-20.42 9.57,-38.59 24.48,-50.3l267.52 0c16.35,0 30.8,8.13 39.55,20.56l478.91 599.9c14.41,18.14 13.66,43.47 -0.52,60.66l-480.19 604.07c-9.51,11.97 -23.57,18.21 -37.76,18.22l0 0.09 -584.17 0 -322.88 483.47c-14.8,22.1 -44.72,28.01 -66.81,13.21 -5.66,-3.79 -10.26,-8.58 -13.72,-13.97l-322.88 -482.72 -847.56 0c-26.69,0 -48.32,-21.64 -48.32,-48.31l0 -1206.86c0,-26.69 21.64,-48.32 48.32,-48.32z"/>
   <path class="fil0" d="M388.48 1441.7c-20.02,0 -36.24,-16.22 -36.24,-36.24 0,-20.01 16.22,-36.23 36.24,-36.23l442.34 0c20.01,0 36.23,16.22 36.23,36.23 0,20.02 -16.22,36.24 -36.23,36.24l-442.34 0z"/>
   <path class="fil0" d="M466.47 1611.74c-20.01,0 -36.24,-16.23 -36.24,-36.24 0,-20.01 16.23,-36.24 36.24,-36.24l442.34 0c20.01,0 36.23,16.23 36.23,36.24 0,20.01 -16.22,36.24 -36.23,36.24l-442.34 0z"/>
   <path class="fil0" d="M589.19 1781.77c-20.01,0 -36.23,-16.22 -36.23,-36.24 0,-20.01 16.22,-36.23 36.23,-36.23l442.34 0c20.02,0 36.24,16.22 36.24,36.23 0,20.02 -16.22,36.24 -36.24,36.24l-442.34 0z"/>
  </g>
  <path class="fil1" d="M885.07 676.59c0,46.42 -25.89,75.58 -58.7,89.54 -49.49,21.07 -45.44,10.51 -14.12,86.47 31.74,76.98 24.57,75.4 68.28,56.88 44.84,-18.99 82.26,-7.99 108.39,19.65 12.72,13.45 21.99,22.92 27.18,46.06 5.41,24.03 1.46,41.12 -6.85,61.37 -17.72,43.17 -23.66,37.45 54.96,68.78 76.71,30.59 66.37,37.11 87.51,-12.45 14.82,-34.75 42.1,-59.87 89.86,-59.72 44.96,0.13 75.13,26.48 88.14,58.3 21.85,53.44 13.58,43.33 86.61,14.56 17.87,-7.04 34.01,-13.94 51.83,-21.46 9.44,-3.98 17.72,-7.27 15.41,-20.88 -2.59,-15.18 -48.02,-80.43 10.39,-136.43 27.7,-26.57 62.83,-36.39 108.35,-17.51 45.49,18.87 35.21,19.47 68.28,-59.02 30.93,-73.43 34.39,-63.85 -15.24,-84.76 -79.18,-33.37 -77.78,-145.32 -0.24,-177.46 49.05,-20.34 46.92,-11.09 15.14,-85.65 -7.4,-17.39 -14.28,-34.27 -21.46,-51.83 -10.05,-24.58 -18.92,-18.3 -46.75,-6.32 -84.11,36.2 -164.77,-42.37 -129.01,-127.35 8.7,-20.68 21.46,-36.52 -4.6,-47.42l-104.76 -43.29c-21.12,-7.49 -24.25,12.71 -33.56,35.42 -32.75,79.92 -144.98,78.45 -177.88,0.83 -6.58,-15.52 -11.5,-43.7 -33.07,-36.65l-104.72 43.28c-25.19,10.42 -16.83,20.15 -6.05,46.34 37.3,90.6 -47.16,162.2 -125.41,130.19 -45.91,-18.78 -38.65,-23.84 -70.39,54.86 -30.77,76.3 -36.12,66.02 12.88,87 33.33,14.27 59.6,41.72 59.6,88.66zm346.84 -218.85c-185.85,12.73 -279.53,221.74 -156.65,366.04 39.76,46.69 108.68,78.33 174.93,73.02 118.82,-9.5 217.59,-101.82 211.69,-229.8 -5.38,-116.69 -105.17,-217.82 -229.97,-209.27z"/>
 </g>
</svg>
