<?xml version="1.0" encoding="UTF-8"?>
<!DOCTYPE svg PUBLIC "-//W3C//DTD SVG 1.1//EN" "http://www.w3.org/Graphics/SVG/1.1/DTD/svg11.dtd">
<!-- Creator: CorelDRAW 2018 (64 Bit Versão de avaliação) -->
<svg xmlns="http://www.w3.org/2000/svg" xml:space="preserve" width="14.4067mm" height="16.0386mm" version="1.1" style="shape-rendering:geometricPrecision; text-rendering:geometricPrecision; image-rendering:optimizeQuality; fill-rule:evenodd; clip-rule:evenodd"
viewBox="0 0 236.78 263.6"
 xmlns:xlink="http://www.w3.org/1999/xlink">
 <defs>
  <style type="text/css">
   <![CDATA[
    .fil0 {fill:#FEFEFE;fill-rule:nonzero}
   ]]>
  </style>
 </defs>
 <g id="Camada_x0020_1">
  <metadata id="CorelCorpID_0Corel-Layer"/>
  <g id="_1742587654944">
   <path class="fil0" d="M5.07 0l197.29 0 0 159.76c-3.21,-1.55 -6.6,-2.78 -10.14,-3.65l0 -145.97 -182.08 0 0 229.47 129.49 0c3.21,3.9 6.98,7.32 11.19,10.14l-150.82 0 0 -249.74 5.07 0z"/>
   <path class="fil0" d="M76.15 73.27c-1.87,0 -3.38,-1.51 -3.38,-3.38 0,-1.87 1.51,-3.38 3.38,-3.38l86.72 0c1.87,0 3.38,1.51 3.38,3.38 0,1.87 -1.51,3.38 -3.38,3.38l-86.72 0z"/>
   <path class="fil0" d="M40.16 73.27c-1.87,0 -3.38,-1.51 -3.38,-3.38 0,-1.87 1.51,-3.38 3.38,-3.38l16.54 0c1.87,0 3.38,1.51 3.38,3.38 0,1.87 -1.51,3.38 -3.38,3.38l-16.54 0z"/>
   <path class="fil0" d="M76.15 110.48c-1.87,0 -3.38,-1.51 -3.38,-3.38 0,-1.87 1.51,-3.38 3.38,-3.38l86.72 0c1.87,0 3.38,1.51 3.38,3.38 0,1.87 -1.51,3.38 -3.38,3.38l-86.72 0z"/>
   <path class="fil0" d="M40.16 110.48c-1.87,0 -3.38,-1.51 -3.38,-3.38 0,-1.87 1.51,-3.38 3.38,-3.38l16.54 0c1.87,0 3.38,1.51 3.38,3.38 0,1.87 -1.51,3.38 -3.38,3.38l-16.54 0z"/>
   <path class="fil0" d="M76.15 147.7c-1.87,0 -3.38,-1.51 -3.38,-3.38 0,-1.87 1.51,-3.38 3.38,-3.38l86.72 0c1.87,0 3.38,1.51 3.38,3.38 0,1.87 -1.51,3.38 -3.38,3.38l-86.72 0z"/>
   <path class="fil0" d="M40.16 147.7c-1.87,0 -3.38,-1.51 -3.38,-3.38 0,-1.87 1.51,-3.38 3.38,-3.38l16.54 0c1.87,0 3.38,1.51 3.38,3.38 0,1.87 -1.51,3.38 -3.38,3.38l-16.54 0z"/>
   <path class="fil0" d="M179.74 149.53c15.75,0 30.01,6.39 40.33,16.71 10.32,10.32 16.71,24.58 16.71,40.33 0,15.75 -6.38,30.01 -16.71,40.33 -10.32,10.32 -24.58,16.71 -40.33,16.71 -15.75,0 -30.01,-6.38 -40.33,-16.71 -10.32,-10.32 -16.71,-24.58 -16.71,-40.33 0,-15.75 6.39,-30.01 16.71,-40.33 10.32,-10.32 24.58,-16.71 40.33,-16.71zm33.16 23.87c-8.49,-8.49 -20.21,-13.74 -33.16,-13.74 -12.95,0 -24.68,5.25 -33.16,13.74 -8.49,8.49 -13.74,20.21 -13.74,33.16 0,12.95 5.25,24.68 13.74,33.16 8.49,8.49 20.21,13.74 33.16,13.74 12.95,0 24.68,-5.25 33.16,-13.74 8.49,-8.49 13.74,-20.21 13.74,-33.16 0,-12.95 -5.25,-24.68 -13.74,-33.16z"/>
   <path class="fil0" d="M156.05 213.32c-3.73,0 -6.76,-3.03 -6.76,-6.76 0,-3.73 3.03,-6.76 6.76,-6.76l16.93 0 0 -16.94c0,-3.73 3.03,-6.76 6.76,-6.76 3.73,0 6.76,3.03 6.76,6.76l0 16.94 16.93 0c3.73,0 6.76,3.03 6.76,6.76 0,3.73 -3.03,6.76 -6.76,6.76l-16.93 0 0 16.94c0,3.73 -3.03,6.76 -6.76,6.76 -3.73,0 -6.76,-3.03 -6.76,-6.76l0 -16.94 -16.93 0z"/>
  </g>
 </g>
</svg>
